<svg width="61" height="78" viewBox="0 0 61 78" fill="none" xmlns="http://www.w3.org/2000/svg">
<g clip-path="url(#clip0_1018_675)">
<path d="M7.43127 54.2151L7.44297 47.7647C7.44687 45.7674 8.98458 43.967 11.0719 43.9651L28.1252 43.9456C28.168 43.3429 28.1661 42.9001 28.1232 42.3715L14.2428 42.3578L14.1551 40.1518C13.5256 35.5056 14.12 30.8789 16.145 26.5819L31.7151 26.5721C33.8882 31.0018 34.4027 36.0361 33.6407 40.9691C33.5159 41.7824 33.7323 42.5958 34.2332 43.1576C34.6912 43.6705 35.535 43.9963 36.3107 43.9573C38.5559 43.8461 40.4717 45.4338 40.3918 47.6711L30.8829 50.9675C29.2945 51.5175 28.2129 52.645 27.558 54.2151H7.43127Z" fill="#350F38"/>
<path d="M40.2769 77.766C38.3221 78.4448 36.1938 77.6236 35.5156 75.6633L29.0977 57.1313C28.439 55.2314 29.4173 53.1658 31.3332 52.5007L49.6766 46.138C51.6723 45.4456 53.7382 46.4326 54.4301 48.4377L60.8187 66.9522C61.4502 68.7818 60.3529 70.8026 58.5697 71.4209L40.2769 77.766ZM48.4098 50.2361C46.5856 50.7159 45.7748 52.5553 46.2679 54.1333C46.761 55.7113 48.3903 56.5422 49.9047 56.1813C51.6178 55.7737 52.563 54.0728 52.1713 52.4734C51.7795 50.8739 50.1541 49.7758 48.4098 50.2361ZM35.5429 54.7087C33.7031 55.1007 32.8066 56.8855 33.1983 58.4576C33.59 60.0298 35.2038 61.0245 36.7395 60.7222C38.4663 60.3828 39.5109 58.7483 39.1757 57.0922C38.858 55.5162 37.3008 54.3381 35.5448 54.7106L35.5429 54.7087ZM44.1241 59.0155C42.3135 59.5129 41.5242 61.3581 42.0134 62.9029C42.5026 64.4477 44.1748 65.3177 45.6384 64.9607C47.3808 64.5335 48.3143 62.7937 47.9109 61.2137C47.5075 59.6338 45.8606 58.5395 44.1241 59.0174V59.0155ZM52.6994 63.3359C50.9668 63.9289 50.3081 65.778 50.7914 67.1882C51.3761 68.891 53.1204 69.6537 54.6698 69.1427C56.2192 68.6316 57.1021 66.8761 56.6422 65.3547C56.151 63.726 54.4282 62.7468 52.6975 63.3379L52.6994 63.3359ZM39.8247 67.8007C38.0492 68.3234 37.2424 70.1199 37.7861 71.7486C38.2831 73.2368 39.9592 74.1438 41.4891 73.6991C43.1282 73.2232 44.0617 71.5847 43.6388 69.9541C43.2315 68.3858 41.5885 67.2799 39.8228 67.7987L39.8247 67.8007Z" fill="#350F38"/>
<path d="M32.0153 24.9786L15.9443 24.9903C9.19703 20.1179 8.26739 10.6402 13.701 4.576C19.1347 -1.48821 28.6105 -1.53698 34.0987 4.47653C39.5791 10.4783 38.7937 19.9287 32.0133 24.9806L32.0153 24.9786ZM16.8213 4.2171C14.9055 4.78276 14.0733 6.77426 14.6794 8.48098C15.2524 10.096 17.0591 11.0108 18.6806 10.5232C20.4483 9.99264 21.4247 8.16694 20.9433 6.47778C20.4483 4.74375 18.702 3.65925 16.8213 4.21515V4.2171Z" fill="#350F38"/>
<path d="M31.1968 68.1323L0 68.144V60.6539C0 57.9914 2.13214 55.9492 4.76712 55.7795L27.2599 55.7834L27.6555 57.8647L31.1987 68.1323H31.1968Z" fill="#350F38"/>
</g>
<defs>
<clipPath id="clip0_1018_675">
<rect width="61" height="78" fill="white"/>
</clipPath>
</defs>
</svg>
