<svg width="786" height="362" viewBox="0 0 786 362" fill="none" xmlns="http://www.w3.org/2000/svg">
<path d="M31.2485 350.281C30.6073 349.426 34.7966 352.204 32.2317 354.94C32.1035 354.128 29.2394 351.136 31.2485 350.281ZM56.5124 322.751L56.8971 324.504L59.1627 318.177L56.5551 322.751H56.5124ZM84.9396 304.327C78.4419 300.266 75.2786 311.979 68.8664 313.176L67.1565 312.406L67.926 318.562C73.5687 313.817 79.5534 305.524 84.9396 304.327ZM108.28 307.063C105.886 305.396 110.289 302.959 104.304 308.645C104.817 308.645 104.988 308.73 105.33 308.815C105.929 308.388 106.784 307.832 108.323 307.063M105.33 308.815C102.466 310.91 108.536 309.457 105.33 308.815V308.815ZM118.283 298.513L115.675 303.087C117.385 303.9 121.061 301.933 120.42 303.729C123.754 300.009 122.045 299.197 118.325 298.513M119.309 291.845L117.812 294.025C118.539 294.367 119.223 294.196 119.309 291.845ZM114.692 298.642L117.855 294.025C116.658 293.469 115.376 291.588 116.274 295.991C115.504 294.025 115.718 296.248 114.692 298.684M111.657 299.411C108.622 299.582 105.245 300.651 107.895 296.034C100.884 301.719 104.646 305.096 111.657 299.411ZM82.5457 297.402L78.4847 297.616L77.2022 301.249C77.8434 299.454 83.9136 299.112 82.5457 297.402ZM144.829 285.604C144.273 284.193 141.366 283.167 140.041 281.756L138.075 285.091C140.127 284.962 143.461 283.894 144.872 285.604M140.084 281.756L143.034 276.798C138.973 279.063 138.93 280.559 140.084 281.756ZM115.846 284.962L111.614 294.068L117.171 283.979L115.846 284.92V284.962ZM150.856 272.608L150.429 272.865C150.429 272.865 150.728 272.694 150.856 272.608C150.472 272.352 150.301 272.309 150.429 272.865L150.856 272.608ZM129.312 280.688C130.594 277.054 134.57 271.497 127.473 271.882C127.174 275.472 131.235 275.216 129.312 280.688ZM145.47 269.872L140.34 272.095C141.024 272.95 142.734 273.762 142.093 275.558L145.47 269.872ZM145.47 269.872L147.394 269.06L147.009 267.308L145.47 269.872ZM178.984 253.415L202.795 237.897L203.308 237.598L202.496 237.213L202.795 237.854L178.984 253.415ZM165.519 267.222C164.023 267.179 162.441 267.308 160.817 267.564C162.527 267.992 165.733 268.376 165.519 267.222ZM172.23 225.971C173.983 229.433 170.691 235.803 163.937 235.29C161.073 240.59 170.905 249.354 178.642 252.773C177.873 251.277 177.018 249.952 180.352 245.079C177.616 244.352 167.528 247.558 169.494 242.129C174.453 236.529 175.18 240.035 179.241 239.821C176.676 238.624 177.659 235.888 178.6 232.853C179.668 229.732 180.694 226.313 177.787 224.004C176.676 225.714 175.308 227.595 173.983 229.433C173.299 228.578 174.239 225.842 172.23 225.971ZM169.751 258.117L168.126 259.741C170.649 258.929 173 259.185 177.488 259.912C179.583 256.279 179.455 254.697 178.984 253.457L169.452 259.014L169.794 258.117H169.751ZM159.705 265.256C158.893 260.767 162.398 256.364 157.183 254.355C151.84 258.202 155.217 259.827 152.951 263.46C161.287 256.792 151.669 267.094 159.406 264.871C158.038 266.624 156.585 267.821 155.217 268.932C157.098 268.333 158.978 267.821 160.859 267.521C160.731 267.521 160.646 267.479 160.517 267.436C159.833 267.265 159.534 267.051 160.133 267.051C160.133 267.008 160.218 266.923 160.261 266.837C160.004 266.324 159.876 265.769 159.791 265.256C162.826 264.315 160.774 265.897 160.261 266.837C160.346 267.008 160.389 267.222 160.475 267.436H160.517L168.169 259.741C165.946 260.468 163.681 262.135 159.748 265.256M103.535 276.755C104.005 276.883 104.176 277.139 104.347 277.396C104.646 276.584 104.689 276.156 103.535 276.755ZM108.579 276.498C108.237 277.396 108.622 279.191 106.271 280.175C103.749 280.303 105.202 278.465 104.347 277.396C103.663 279.149 101.526 282.825 106.655 281.927L106.955 281.03C111.315 279.918 118.796 281.286 118.496 282.184C115.376 279.704 112.982 278.037 108.579 276.498ZM181.506 254.355L182.96 258.715L183.815 250.679L181.506 254.355ZM191.424 247.259L193.006 250.85L196.041 246.105L191.467 247.259H191.424ZM167.271 279.063L167.015 277.268C167.015 277.738 167.1 278.336 167.271 279.063ZM162.313 273.164L162.997 276.627C162.826 274.917 162.527 273.506 162.313 273.164ZM172.016 132.695C166.93 129.489 159.278 124.53 159.876 128.805C160.475 130.173 161.03 131.541 161.543 132.909C166.032 131.798 169.409 131.969 171.974 132.695M66.0023 206.777L66.8146 205.794C64.3352 205.366 62.0268 204.939 59.8894 204.597C61.7276 205.281 63.7795 206.007 65.9596 206.777M88.2311 204.34C87.7609 205.152 87.3762 206.05 87.1197 207.076C87.6754 206.307 88.0601 205.366 88.2311 204.34ZM166.331 250.892C164.835 249.909 163.381 249.097 161.928 248.37C161.971 249.097 164.194 249.867 166.331 250.892ZM350.06 141.971C359.764 137.611 365.834 134.491 369.724 132.225C355.874 138.338 340.186 144.237 350.06 141.971ZM190.569 361.523C191.338 360.754 191.381 359.642 190.911 358.146C190.099 358.702 189.842 359.728 190.569 361.523ZM383.019 123.547C380.967 124.488 379.086 125.343 377.034 126.24C376.222 127.608 374.769 129.233 369.724 132.225C379.898 127.779 388.961 123.163 383.019 123.547ZM118.368 231.571C118.069 231.699 117.812 231.913 117.471 231.955C117.898 232.34 118.112 232.083 118.368 231.571ZM20.2624 294.923C20.6899 293.897 21.6731 292.486 22.6135 291.118C21.8868 291.588 21.1601 292.7 20.2624 294.923ZM309.578 132.866H309.407C307.185 133.892 307.612 133.678 309.578 132.866ZM198.52 108.885C198.606 108.457 198.734 107.987 198.862 107.517C197.238 110.509 197.537 110.466 198.52 108.885ZM130.295 166.466C130.295 166.466 130.338 166.295 130.38 166.252L130.167 166.124L130.295 166.466ZM127.559 169.843C126.789 164.628 128.67 165.141 130.209 166.124C128.841 162.148 127.174 158.216 125.165 154.326C125.165 159.584 125.977 164.756 127.559 169.843ZM178.557 252.688C179.284 255.68 180.096 260.254 180.481 252.902C180.053 248.456 179.241 252.004 178.557 252.688ZM93.6601 182.453C92.9761 183.479 93.8311 184.591 95.2417 185.446C96.4387 184.121 96.6097 183.223 93.6601 182.453ZM212.028 28.1345C210.318 32.8368 208.737 37.1115 212.627 29.3742L212.028 28.1345ZM109.391 189.208C108.664 189.592 107.724 189.892 106.741 190.148C107.981 190.276 109.006 189.977 109.391 189.208ZM190.825 235.974L190.868 235.931C190.526 235.76 190.27 235.589 190.013 235.461L190.825 236.016V235.974ZM228.272 158.087C229.213 157.318 230.965 156.335 232.889 155.266C229.897 156.677 227.845 157.788 228.272 158.087ZM179.882 224.645C179.54 225.543 178.557 225.586 178.215 226.484L179.583 228.193C182.276 226.27 183.216 223.534 179.882 224.645ZM226.605 210.282C222.416 208.273 220.279 211.308 216.773 214.429C216.987 214.258 217.201 214.087 217.5 213.958C220.45 218.618 223.869 214.215 226.605 210.239M215.918 215.113C214.807 216.053 213.61 216.951 212.242 217.635C213.225 219.644 214.123 216.951 215.918 215.113ZM211.986 204.212C213.738 204.981 215.576 205.751 217.457 206.478C216.944 205.238 216.389 204.041 215.747 202.887L211.986 204.212ZM235.454 193.568C233.573 194.679 232.034 206.136 232.034 207.076C232.932 206.435 234.813 194.679 235.454 193.568ZM217.243 199.04L219.766 198.612L223.656 196.517L217.243 199.04ZM314.794 148.982C315.435 147.999 311.588 147.529 308.296 146.973C300.516 146.973 286.153 153.599 286.11 154.411C288.29 154.411 309.151 150.735 314.794 148.982ZM259.393 161.336C251.997 159.455 239.729 163.944 235.497 168.561C241.396 168.219 251.826 169.672 259.393 161.336ZM262.855 138.594L264.565 138.381L288.333 126.497L262.855 138.594ZM180.737 169.073C182.532 171.296 182.49 162.79 184.413 165.611C186.038 163.132 182.703 163.303 183.986 161.165C181.164 163.858 180.609 162.533 180.737 169.073ZM183.986 161.165C184.456 160.738 184.969 160.225 185.61 159.541C184.713 160.225 184.285 160.738 183.986 161.165ZM5.3862 306.422L0.812205 309.2L5.3862 308.559V306.422ZM5.81368 318.391L0 315.655L2.90684 321.383C3.33432 320.315 4.14652 318.263 5.81368 318.391ZM178.6 234.477L178.044 236.102C177.574 237.983 177.702 238.282 177.916 238.88C178.044 237.341 178.258 235.845 178.6 234.477ZM186.978 250.465L186.722 249.952L192.108 264.187L186.978 250.465ZM180.822 232.126C180.566 231.784 181.934 233.964 181.677 233.708C180.566 231.998 188.432 243.241 180.822 232.126ZM228.486 133.636C235.326 129.617 242.037 125.856 247.167 123.034L232.333 127.908C232.675 126.796 232.932 125.727 233.146 124.616C231.607 125.086 229.982 125.727 228.315 126.454C228.358 128.848 228.401 131.285 228.486 133.678M197.152 195.705C196.083 187.327 198.05 193.568 200.657 189.379C200.23 183.437 194.886 181.299 191.68 183.009C192.279 179.632 192.792 177.367 192.621 175.144C192.621 174.588 192.493 174.032 192.364 173.477C192.236 172.835 192.022 172.28 191.809 172.151C191.338 171.681 190.654 171.168 189.628 170.783C191.424 170.612 193.177 170.484 194.972 170.399C194.373 169.458 193.775 168.646 193.177 167.919C195.357 167.962 197.537 168.304 199.76 168.945C201.812 163.559 197.58 165.568 194.886 165.91C192.92 167.235 190.954 168.817 188.816 171.168C188.346 170.57 187.619 169.971 186.636 169.415C187.192 169.202 190.312 167.364 192.022 164.243C189.116 164.756 191.467 163.345 190.996 160.823C191.338 160.481 191.723 160.139 192.108 159.755C192.407 159.284 192.877 158.643 193.604 157.745C192.193 157.916 190.654 160.438 189.329 162.063C188.004 163.73 186.85 164.713 186.294 163.687C187.619 162.02 188.688 160.139 189.543 158.344C189.201 158.857 188.902 159.284 188.645 159.669C188.303 159.498 188.132 159.113 188.004 158.643C187.149 160.139 186.465 161.593 186.38 162.106C185.995 161.507 186.722 159.669 187.961 157.232C188.261 153.257 191.338 145.862 193.262 143.981C192.835 143.981 192.45 144.066 192.022 144.152C191.253 145.605 190.483 146.973 189.799 148.298C188.132 151.504 186.893 154.24 187.021 155.907C185.696 157.275 187.235 153.77 188.432 150.094C189.671 146.545 190.569 142.826 188.261 147.016C188.603 146.289 188.987 145.605 189.329 144.878C185.952 146.417 183.473 149.623 181.763 152.744C179.155 156.976 178.899 160.823 172.316 160.524L176.89 162.704C174.239 164.029 164.023 162.49 165.262 164.542C163.681 162.747 162.056 159.413 161.586 156.591C161.586 157.104 161.629 157.574 161.757 158.087L161.543 157.489C161.116 158.472 160.731 159.199 160.304 159.797C160.09 160.096 159.876 160.353 159.662 160.609C159.32 160.994 158.978 161.336 158.679 161.678C157.354 163.089 156.114 163.901 155.003 164.713C152.737 166.38 150.771 168.09 148.719 174.417L151.241 174.673C147.565 187.241 138.16 198.612 130.38 210.026C132.261 215.497 132.176 222.081 135.895 219.858C141.537 223.192 142.008 217.549 146.197 219.045C145.513 219.43 144.145 220.242 144.872 221.183L151.754 221.097C151.84 223.705 146.24 220.371 148.463 225.714C157.568 229.69 163.168 231.784 166.801 238.923C167.87 239.821 168.725 240.291 169.409 240.505C169.965 240.548 170.264 240.248 170.649 239.949C171.333 239.265 172.145 238.41 172.615 237.341C172.914 236.059 173.128 234.819 173.641 234.349C173.897 234.093 174.197 234.05 174.667 234.306C174.881 234.435 175.137 234.606 175.436 234.905C175.479 234.905 175.522 235.033 175.565 235.119C172.914 238.196 170.007 242.129 171.418 244.48C173.726 242.813 175.223 239.821 176.719 238.795L174.197 245.122C175.565 246.19 176.719 245.677 175.65 251.363C177.488 249.439 177.916 250.593 178.514 252.645C179.711 251.534 179.241 246.447 179.113 241.958C178.942 237.384 179.326 233.494 179.583 232.041C179.241 234.648 179.412 235.717 179.583 236.871C179.839 239.094 180.053 240.932 180.31 243.112C180.438 244.267 180.566 245.506 180.737 246.874L180.481 247.173C180.181 247.473 179.839 247.729 179.497 247.943C179.882 249.909 180.31 251.234 180.694 252.004C181.934 254.569 182.233 251.662 182.361 250.294C182.575 249.054 182.618 249.311 185.14 260.211C183.772 258.074 182.49 261.451 184.029 268.034C184.755 267.265 185.354 266.367 185.824 265.341C186.636 268.59 184.67 265.811 186.422 270.385C186.893 268.889 187.149 264.572 186.679 261.109L186.807 261.836L189.458 263.375C189.329 263.759 190.227 267.094 190.954 268.205C191.082 266.837 191.082 265.256 190.911 263.546C191.467 266.367 193.519 271.411 195.528 275.173C198.05 279.448 195.528 271.711 192.963 264.7C190.483 257.818 188.132 251.534 191.98 261.024C191.68 260.382 192.493 262.392 192.193 261.75L193.946 266.068C194.63 267.692 195.143 268.291 195.656 269.359C188.517 251.491 188.175 249.567 187.748 247.601C187.363 245.677 186.935 243.668 179.797 230.63C185.567 241.146 183.216 236.059 190.056 251.234C191.424 253.5 192.792 255.509 194.117 257.347C194.673 259.314 193.604 257.86 195.015 261.622C198.007 266.239 197.537 263.332 195.912 259.143C194.245 254.868 191.424 249.311 189.543 245.891C191.552 248.071 200.23 263.503 197.751 256.065C196.254 251.32 193.732 248.627 191.338 245.72C188.945 242.941 186.636 239.992 185.781 238.325C188.175 241.189 190.569 243.711 192.963 245.934C190.141 241.189 189.97 240.334 190.569 239.735C191.167 239.222 192.535 239.051 192.92 237.897C192.322 236.957 191.595 236.316 190.825 235.845C192.279 235.247 190.526 232.981 188.688 231.827C187.79 231.186 186.85 230.758 186.294 230.416C186.166 230.245 186.038 230.416 185.952 229.989C185.867 229.519 185.781 229.091 185.738 228.621C185.653 227.723 185.738 226.868 185.952 226.056C187.448 227.51 190.099 222.166 191.723 221.311L186.935 209.897C188.987 214.942 192.92 214.514 196.767 215.284C196.212 211.693 193.946 210.068 193.348 207.632C194.801 209.085 196.297 210.539 197.964 208.53L190.868 196.646C190.227 197.415 190.056 198.826 189.928 199.98C189.757 196.945 186.935 190.49 189.928 185.959C191.467 186.258 192.963 187.711 194.502 188.011C190.355 191.901 194.16 193.782 197.152 195.534M128.2 217.678C128.2 217.678 127.944 217.849 127.773 217.977L128.2 217.678ZM74.9366 188.438C79.1686 191.131 83.2297 193.568 87.0342 195.834C87.2052 194.679 88.2311 192.884 89.6418 191.089C90.454 191.388 91.2662 191.644 92.0784 191.901C92.3776 191.388 92.6769 190.918 93.0189 190.447C92.1639 190.362 91.3517 190.276 90.454 190.148C91.309 189.165 92.2066 188.224 93.1044 187.369C87.1197 186.301 80.622 184.847 80.2373 187.711C81.1778 188.053 82.3319 188.481 83.5289 188.908C78.9976 188.053 75.2358 187.327 74.8939 188.438M55.0162 156.805C63.2238 162.918 73.3977 168.475 82.9304 172.579C89.8128 175.571 96.3959 177.922 102.124 179.718C109.049 172.707 116.188 166.423 118.838 158.13C118.154 156.719 117.556 155.565 117.385 155.223C118.924 159.242 116.487 161.806 113.452 163.217C110.332 164.628 105.971 164.97 101.953 164.713L102.808 164.585C101.44 163.26 98.5333 162.191 95.9257 161.849C93.3608 161.464 91.2662 161.849 92.5486 163.174C90.112 161.721 91.5654 162.106 92.5486 161.935C84.8541 159.413 88.2739 162.319 92.5486 164.97C96.6097 167.663 101.611 170.099 92.1212 167.193C97.1226 167.577 91.5654 164.67 85.2388 161.892C85.8373 162.832 84.8113 163.217 83.8281 163.602C82.9732 164.029 81.6052 164.286 83.3579 165.397C86.564 167.107 90.796 168.774 97.9776 171.125C94.6433 170.698 98.4051 172.664 88.0601 169.287C93.9593 172.451 99.3883 175.101 104.304 177.281C102.21 176.597 96.4814 174.93 96.8234 176.255C96.5242 175.058 91.4799 172.793 87.3762 170.527C83.3151 168.347 80.3656 166.338 86.3502 167.834C73.184 163.217 68.3107 162.875 55.0162 156.805ZM126.618 142.613C123.883 147.486 122.344 152.316 121.959 157.019C124.396 157.874 125.165 160.994 128.328 158.002C116.701 158.985 134.484 142.356 126.618 142.655M129.654 142.484C129.397 140.817 129.269 139.321 129.483 138.081C128.414 139.62 127.473 141.159 126.618 142.655C127.73 142.741 128.713 142.655 129.654 142.484ZM181.506 122.094C181.464 122.735 181.506 123.248 181.506 123.804C181.763 123.675 182.019 123.547 182.319 123.462C182.019 123.034 181.763 122.564 181.506 122.137M161.543 155.822C161.543 155.822 161.543 155.864 161.543 155.907C161.543 155.907 161.543 155.864 161.543 155.822ZM162.313 152.359C162.313 152.359 162.313 152.402 162.313 152.445C162.356 152.402 162.398 152.316 162.441 152.231L162.356 152.359H162.313ZM187.619 104.909C186.679 105.38 184.755 109.355 183.43 113.544C183.003 114.827 182.661 116.109 182.361 117.349C182.789 117.349 183.345 117.434 183.986 117.605C184.413 117.52 184.755 117.477 185.183 117.392C185.738 118.931 186.294 120.427 186.764 121.966C187.149 121.837 187.534 121.752 187.919 121.624C187.961 119.785 188.132 117.477 188.218 115.169C188.56 109.312 188.774 103.584 187.662 104.909M193.69 116.579C193.476 117.135 193.305 117.734 193.048 118.332C192.835 119.016 192.578 119.743 192.364 120.469C193.989 120.127 195.528 119.785 196.896 119.572C197.067 119.144 197.28 118.674 197.451 118.161C196.853 117.862 196.254 117.52 195.613 117.135C196.34 117.349 196.938 117.563 197.622 117.819C197.793 117.434 197.922 117.007 198.135 116.579C200.059 108.928 196.682 116.537 198.563 108.928C199.631 107.26 201.512 104.311 202.923 101.19C204.633 91.8285 203.436 91.1873 201.598 94.0514C200.657 95.5048 199.631 97.5567 198.648 99.7796C197.152 103.712 195.827 107.132 194.886 109.27L196.212 106.662L196.896 105.337C196.896 105.337 197.152 104.824 197.195 104.738L197.323 104.824C197.622 105.08 197.964 105.422 198.264 105.764C194.929 115.981 194.63 116.323 194.459 115.853C194.373 115.639 194.374 115.211 194.032 115.853L193.732 116.537M192.963 164.97C192.963 164.97 192.621 165.397 192.45 165.568C192.621 165.44 192.835 165.312 193.048 165.226C193.048 165.141 193.006 165.055 192.963 164.97ZM197.879 160.225C197.879 160.225 197.751 160.139 197.708 160.096C197.409 160.353 197.152 160.609 196.853 160.866L197.879 160.225ZM414.096 100.164C414.096 100.164 414.353 100.164 414.438 100.207C402.084 106.918 402.042 108.543 400.759 110.68C378.017 120.769 370.665 125.556 365.535 129.959C360.918 133.978 358.268 137.611 351.044 142.313C351.044 142.313 346.769 145.947 327.703 146.374C308.681 146.802 326.25 144.494 326.506 144.152C327.148 141.459 322.445 140.817 313.639 142.185C304.919 143.51 292.095 146.845 278.159 150.991C280.724 150.735 284.229 150.649 284.315 151.461C284.443 152.274 279.185 155.993 269.695 158.643C265.591 158.429 267.857 154.539 255.118 158.258C280.98 149.623 256.657 159.712 279.356 151.761C281.108 150.436 274.44 152.06 271.362 152.701C279.655 150.692 289.701 146.503 296.156 144.194C300.772 141.245 307.783 137.825 315.435 133.978C314.794 133.294 313.554 132.695 309.621 132.738C312.571 131.498 318.897 128.762 325.139 126.582C318.684 128.036 304.748 132.268 291.71 136.671C278.586 141.117 266.19 145.776 260.077 148.426C254.904 149.153 264.223 145.092 254.733 147.785C242.935 154.924 256.315 146.631 237.292 154.839C231.949 156.078 244.901 150.991 247.252 149.281C244.687 150.179 237.549 153 232.932 155.18C238.361 152.231 247.509 148.17 257.683 143.938C267.728 139.706 278.757 135.346 284.357 131.926C287.734 129.788 290.128 127.01 290.983 124.744C291.881 122.479 291.368 120.726 291.368 120.469C278.629 125.941 246.825 143.81 226.178 155.437C226.178 156.164 226.178 156.933 226.135 157.703C225.964 163.388 225.408 168.518 220.792 167.62L221.604 166.38C220.963 162.79 219.21 163.858 217.756 166.081C216.303 168.39 215.149 171.681 215.79 174.118C218.44 168.731 225.408 183.095 226.135 170.185L221.775 190.02C224.639 190.747 250.8 172.237 253.322 182.325C247.552 189.037 247.252 201.818 237.72 209.641C237.378 209.897 237.036 216.267 236.95 216.694C235.582 219.003 229.427 215.925 228.871 215.839C229.64 217.464 228.059 226.355 228.401 228.065C228.743 229.946 233.188 231.058 233.872 234.007C235.454 241.018 236.694 240.334 236.138 244.651C234.984 253.329 233.317 258.886 234.855 261.879C233.231 261.494 231.607 261.066 229.982 260.553C238.147 280.132 239.13 285.646 236.309 300.309C235.497 299.026 234.043 295.307 233.017 296.761C236.779 305.353 240.242 315.441 237.249 323.264L235.967 320.699C235.283 325.915 233.958 329.719 233.231 334.208C228.016 324.162 229.042 332.925 228.614 339.893C228.529 341.646 228.358 343.313 228.059 344.681C227.93 345.365 227.759 346.006 227.546 346.562C227.417 346.818 227.332 347.075 227.161 347.331C227.118 347.588 226.605 347.887 226.605 347.545C226.306 346.775 225.665 345.878 224.767 344.553C223.955 343.185 222.929 341.304 221.775 338.782C222.373 342.116 217.243 341.133 214.679 342.543C214.337 341.517 213.824 340.363 212.926 338.953C213.14 344.595 209.207 341.475 205.317 336.772C200.957 331.814 196.938 325.915 193.946 323.307C190.569 323.05 192.664 329.078 195.271 335.447C193.305 331.771 191.424 329.249 189.5 327.411C189.244 327.154 189.03 327.026 188.774 326.727L188.004 325.53L186.465 323.264C185.439 321.811 184.371 320.443 183.302 319.118C181.635 318.605 179.968 318.305 178.343 318.092C176.676 317.451 175.009 316.596 173.513 315.869C170.478 314.287 167.955 312.577 167.058 310.397C160.389 302.361 165.946 300.907 165.049 295.136C160.475 291.374 159.62 295.307 158.807 298C158.038 300.779 156.841 301.634 151.327 291.631C153.208 292.614 156.2 295.051 155.473 292.999C153.208 289.707 151.882 281.714 151.241 275.259C150.472 268.718 150.386 263.674 147.308 262.99C147.479 264.486 147.736 265.982 148.035 267.564C146.795 267.008 145.727 266.111 144.786 265.085C143.974 264.187 143.504 263.289 142.991 262.221C142.05 260.083 141.495 257.647 140.939 255.466C139.827 251.106 138.759 247.857 134.698 250.935L131.876 254.74C126.661 240.548 126.49 251.833 120.548 238.068L121.232 237.641C116.573 234.093 117.941 228.108 111.7 230.245L113.067 232.554L111.272 232.383L111.443 232.853C111.229 232.682 111.058 232.511 110.845 232.34L109.733 232.212C106.014 237.256 115.119 233.836 111.443 238.88C100.628 235.632 94.515 259.998 83.6999 258.886C87.4617 266.837 91.5227 249.909 94.4723 257.775C92.4204 258.63 90.7532 258.502 87.8464 261.451L92.4204 262.99C79.2114 276.883 71.7733 280.431 62.668 294.752L62.2406 293.64C57.2818 297.487 56.0422 300.608 57.7093 305.096C55.2299 304.84 56.8544 300.693 53.9475 301.463C57.3673 316.98 34.5401 313.603 37.4469 323.649C30.3508 317.493 15.0472 323.563 12.5251 314.629L10.9006 318.818C6.75413 314.073 18.7235 307.661 14.9617 301.89L28.2134 294.538C26.0761 293.555 24.6226 289.707 22.6562 291.032C24.5371 288.211 25.9906 285.604 20.6899 287.271C52.5368 269.872 59.8894 233.665 85.4953 212.377C85.538 212.206 85.5808 212.078 85.5808 211.949C84.9396 211.351 84.2556 210.71 83.6144 210.068C83.1014 209.983 82.6312 209.94 82.1609 209.897C82.5457 209.855 82.8877 209.769 83.1869 209.684C83.0587 209.555 82.8877 209.385 82.7594 209.256C77.8862 204.169 73.5687 198.612 72.1153 196.859C79.2541 202.716 79.1686 198.869 80.5793 196.688C71.5595 194.85 67.8405 191.858 68.1825 187.027C57.0253 186.856 44.6713 186.215 31.4623 173.776C35.2241 175.87 39.0713 178.734 40.311 177.751C41.5935 176.768 36.25 173.947 34.3691 172.878C35.8225 172.066 41.4225 175.87 44.4148 175.058C34.8821 170.826 31.0775 167.235 28.2134 163.73C25.2639 160.139 23.2547 156.677 15.1754 150.521C23.2547 155.223 23.1692 153.043 27.4867 153.513C18.3387 150.649 18.467 148.084 19.0227 146.417C19.5784 144.75 20.1769 143.553 9.66097 141.117C9.31898 140.176 8.80601 139.15 8.20755 138.081C27.1447 138.808 42.7904 137.654 56.8971 136.628C70.9611 135.688 83.3151 135.132 90.8387 137.953C96.0112 140.732 98.6615 135.346 103.407 134.79L105.116 138.509C108.964 134.704 111.443 133.849 113.922 132.994C116.573 132.14 119.052 131.242 126.704 127.095C120.634 132.182 124.567 133.978 130.423 137.141L137.177 128.549L139.101 134.362C140.041 133.55 141.024 133.08 142.05 132.781C144.615 130.643 146.838 129.959 148.933 132.781C149.659 131.028 150.985 129.746 152.609 128.72C152.096 126.497 150.386 125.172 149.146 125.77C155.559 117.691 160.004 111.663 164.279 98.7109C166.417 98.3689 173.47 87.1263 181.122 76.5676C188.688 66.1372 196.554 56.7327 196.981 64.5555C195.998 55.0655 198.52 56.7754 203.607 45.0198C203.393 42.113 203.094 39.3344 202.667 36.7268L211.686 25.3132C213.909 21.3377 214.294 21.1667 213.952 22.4918C215.32 21.0812 211.601 31.2551 214.337 29.9299C217.115 26.4246 219.124 22.4491 221.219 17.7041C222.33 15.0538 223.356 12.6171 224.511 9.92403C225.109 8.55611 225.708 7.14544 226.349 5.64927C226.691 5.22179 227.033 4.83707 227.375 4.53783L227.973 0.476807L228.828 6.54697C228.914 9.58205 227.46 8.38512 225.793 10.1805C225.366 10.608 224.938 11.2065 224.553 12.1042C224.211 12.7454 223.57 14.669 223.271 15.7805C222.672 18.1316 221.903 22.7056 221.518 28.4765C222.202 26.4246 224.211 22.6201 225.708 21.6369C227.204 20.6109 228.144 22.3636 226.52 29.7162C226.306 20.098 223.014 31.7253 221.732 38.9497L221.988 51.0473L227.973 30.0154C228.785 48.5679 228.572 69.6852 228.358 89.3064C228.272 99.3093 228.144 108.885 228.23 118.161C231.82 117.306 235.668 116.237 239.814 115.169C251.399 112.091 265.164 109.184 267.301 113.929C266.019 113.031 262.556 112.86 259.264 114.827C267.344 113.929 272.687 115.083 277.261 115.895C281.963 116.708 286.024 117.135 294.275 114.656L302.44 109.612C318.085 106.363 331.08 103.883 340.228 103.413L353.266 97.3857C358.61 97.8559 374.683 94.9918 387.807 93.4529C400.802 91.914 410.377 91.7003 397.596 97.8132C406.017 95.1628 410.292 95.0773 413.754 95.4193C417.302 95.7613 419.867 96.488 426.493 95.2911L414.054 100.079L414.096 100.164ZM186.508 162.106C186.508 162.106 186.508 161.977 186.422 161.935C186.422 162.063 186.422 162.148 186.508 162.106ZM189.5 263.289L189.714 263.418C189.714 263.418 189.543 263.204 189.5 263.289Z" fill="white"/>
<path d="M278.757 173.947C276.022 173.947 274.226 174.93 274.226 176.896C274.226 184.078 297.011 179.974 297.011 195.577C297.011 204.426 289.231 208.914 279.57 208.914C272.345 208.914 264.822 206.264 259.606 201.989L264.009 193.14C268.455 196.988 275.209 199.681 279.698 199.681C283.032 199.681 285.127 198.441 285.127 196.175C285.127 188.823 262.342 193.269 262.342 177.965C262.342 169.886 269.182 164.756 279.655 164.756C286.024 164.756 292.437 166.722 296.968 169.629L292.693 178.606C288.119 175.998 282.305 173.989 278.715 173.989" fill="white"/>
<path d="M340.785 165.226V172.622L317.915 199.467H341.127V208.53H302.782V201.177L325.652 174.289H303.552V165.226H340.785Z" fill="white"/>
<path d="M376.051 192.201L370.109 176.769L364.039 192.201H376.008H376.051ZM379.385 200.836H360.661L357.626 208.487H345.999L364.594 165.184H376.222L394.389 208.487H382.335L379.385 200.836Z" fill="white"/>
<path d="M428.589 208.53L417.304 191.773L411.746 197.971V208.53H400.461V165.226H411.746V183.394L428.033 165.226H441.114L425.041 183.138L442.097 208.53H428.589Z" fill="white"/>
<path d="M460.862 165.226L472.361 190.49L483.86 165.226H496.214V208.53H486.211L486.126 181.086L476.08 204.212H468.642L458.596 181.086V208.53H448.508V165.226H460.862Z" fill="white"/>
<path d="M532.337 192.201L526.395 176.769L520.325 192.201H532.294H532.337ZM535.671 200.836H516.948L513.913 208.487H502.285L520.88 165.184H532.508L550.675 208.487H538.621L535.671 200.836Z" fill="white"/>
<path d="M590.856 173.947C588.12 173.947 586.325 174.93 586.325 176.896C586.325 184.078 609.109 179.974 609.109 195.577C609.109 204.426 601.329 208.914 591.668 208.914C584.444 208.914 576.92 206.264 571.705 201.989L576.108 193.14C580.554 196.988 587.308 199.681 591.796 199.681C595.131 199.681 597.225 198.441 597.225 196.175C597.225 188.823 574.441 193.269 574.441 177.965C574.441 169.886 581.281 164.756 591.754 164.756C598.123 164.756 604.535 166.722 609.067 169.629L604.792 178.606C600.218 175.998 594.404 173.989 590.813 173.989" fill="white"/>
<path d="M652.842 165.226V172.622L629.972 199.467H653.227V208.53H614.84V201.177L637.71 174.289H615.652V165.226H652.842Z" fill="white"/>
<path d="M695.376 165.226V174.545H682.381V208.53H671.053V174.545H658.229V165.226H695.376Z" fill="white"/>
<path d="M719.827 161.677H711.491L718.117 151.033L727.949 154.496L719.869 161.677H719.827ZM722.776 192.199L716.834 176.767L710.764 192.199H722.733H722.776ZM726.111 200.834H707.387L704.352 208.486H692.725L711.32 165.183H722.947L741.115 208.486H729.06L726.111 200.834Z" fill="white"/>
<path d="M758.514 187.541H766.721C771.295 187.541 773.946 185.189 773.946 180.786C773.946 176.383 771.295 174.246 766.721 174.246H758.514V187.541ZM773.219 208.53L766.935 196.56H758.514V208.53H747.229V165.226H766.679C778.178 165.226 784.718 170.784 784.718 180.444C784.718 186.985 781.982 191.815 776.981 194.423L786.001 208.572H773.219V208.53Z" fill="white"/>
<path d="M271.662 236.314V248.797H291.326V255.294H271.662V272.992H264.395V229.731H293.42L293.377 236.314H271.662Z" fill="white"/>
<path d="M309.323 236.314V247.984H330.483V254.525H309.323V266.451H333.689V272.992H302.056V229.731H332.919V236.314H309.323Z" fill="white"/>
<path d="M374.214 233.879L371.179 240.291C366.476 237.47 361.774 236.273 358.525 236.273C354.251 236.273 351.472 237.897 351.472 240.804C351.472 250.251 374.812 245.207 374.77 260.767C374.77 268.505 367.973 273.25 358.44 273.25C351.643 273.25 345.231 270.471 340.785 266.41L343.948 260.126C348.394 264.187 353.951 266.41 358.611 266.41C363.698 266.41 366.69 264.486 366.69 261.152C366.69 251.534 343.35 256.877 343.35 241.488C343.35 234.093 349.719 229.433 359.124 229.433C364.767 229.433 370.238 231.229 374.257 233.879" fill="white"/>
<path d="M391.226 266.451H417.858V272.992H381.352V267.734L407.727 236.314H382.164V229.731H417.559V234.989L391.226 266.451Z" fill="white"/>
<path d="M444.874 236.314V272.992H437.564V236.314H423.928V229.731H458.596V236.314H444.874Z" fill="white"/>
<path d="M473.687 229.731H466.377V272.992H473.687V229.731Z" fill="white"/>
<path d="M498.436 272.992L481.209 229.731H489.075L502.412 264.913L515.877 229.731H523.486L506.003 272.992H498.436Z" fill="white"/>
<path d="M540.544 225.072L547.085 215.924L554.395 219.002L546.871 225.072H540.587H540.544ZM544.563 237.554L536.398 256.791H552.728L544.563 237.554ZM533.705 263.246L529.558 272.992H521.949L541.057 229.732H548.538L567.433 272.992H559.653L555.506 263.246H533.705Z" fill="white"/>
<path d="M601.031 266.409V272.992H574.998V229.731H582.308V266.409H601.031Z" fill="white"/>
<path d="M264.266 308.217L265.42 305.78C267.044 307.233 269.78 308.302 272.559 308.302C276.32 308.302 277.902 306.849 277.902 304.968C277.902 299.667 264.779 303.001 264.779 294.965C264.779 291.63 267.386 288.766 273.072 288.766C275.594 288.766 278.244 289.45 280.039 290.69L279.014 293.169C277.133 291.972 274.995 291.417 273.072 291.417C269.395 291.417 267.814 292.956 267.814 294.837C267.814 300.137 280.937 296.803 280.937 304.797C280.937 308.131 278.287 310.952 272.559 310.952C269.224 310.952 265.976 309.841 264.266 308.217Z" fill="white"/>
<path d="M301.284 308.003V310.696H283.159V308.559L296.796 291.674H283.373V288.98H300.899V291.075L287.306 308.003H301.284Z" fill="white"/>
<path d="M319.197 302.788L314.538 292.144L309.878 302.788H319.24H319.197ZM320.266 305.268H308.724L306.33 310.697H303.124L312.956 289.024H316.034L325.909 310.697H322.66L320.266 305.268Z" fill="white"/>
<path d="M336.04 301.035L332.065 305.054V310.696H328.944V288.98H332.065V301.121L343.82 288.98H347.369L338.092 298.77L347.967 310.696H344.333L336.04 301.035Z" fill="white"/>
<path d="M371.135 310.696L371.093 294.88L363.27 308.046H361.859L353.994 294.965V310.696H351.044V288.98H353.566L362.629 304.241L371.52 288.98H374.085L374.128 310.696H371.135Z" fill="white"/>
<path d="M389.004 287.228H386.225L390.457 283.209H394.219L389.004 287.228ZM393.193 302.788L388.534 292.144L383.874 302.788H393.236H393.193ZM394.262 305.267H382.72L380.326 310.696H377.12L386.952 289.023H390.03L399.905 310.696H396.656L394.262 305.267Z" fill="white"/>
<path d="M405.077 291.674H397.639V288.98H415.593V291.674H408.155V310.696H405.077V291.674Z" fill="white"/>
<path d="M440.045 302.788L435.385 292.144L430.726 302.788H440.088H440.045ZM441.113 305.268H429.572L427.178 310.697H423.972L433.804 289.024H436.881L446.756 310.697H443.507L441.113 305.268Z" fill="white"/>
<path d="M465.395 301.035L461.462 305.054V310.696H458.342V288.98H461.462V301.121L473.218 288.98H476.766L467.49 298.77L477.322 310.696H473.731L465.395 301.035Z" fill="white"/>
<path d="M488.563 287.228H485.785L490.017 283.209H493.779L488.563 287.228ZM496.173 308.003V310.696H480.441V289.023H495.745V291.716H483.519V298.385H494.377V301.035H483.519V308.046H496.173V308.003Z" fill="white"/>
<path d="M517.246 308.003V310.696H499.121V308.559L512.758 291.674H499.335V288.98H516.819V291.075L503.268 308.003H517.246Z" fill="white"/>
<path d="M536.267 304.584C536.267 302.062 534.386 300.95 530.967 300.95H523.828V308.175H530.967C534.386 308.175 536.267 307.106 536.267 304.584ZM523.828 291.503V298.428H530.197C533.361 298.428 535.156 297.231 535.156 294.966C535.156 292.7 533.361 291.503 530.197 291.503H523.828ZM539.388 304.84C539.388 308.559 536.567 310.697 531.095 310.697H520.75V289.024H530.496C535.498 289.024 538.277 291.118 538.277 294.624C538.277 296.975 537.08 298.599 535.37 299.454C537.806 300.138 539.431 301.976 539.431 304.84" fill="white"/>
<path d="M559.737 308.003V310.696H544.006V288.98H559.31V291.674H547.084V298.342H557.942V300.993H547.084V308.003H559.737Z" fill="white"/>
</svg>
