<svg width="420" height="362" viewBox="0 0 420 362" fill="none" xmlns="http://www.w3.org/2000/svg"><path d="M31.249 350.281c-0.642 -0.855 3.548 1.923 0.983 4.659 -0.129 -0.812 -2.993 -3.804 -0.983 -4.659m25.263 -27.53 0.385 1.753 2.266 -6.327 -2.608 4.574zm28.428 -18.424c-6.498 -4.061 -9.661 7.652 -16.074 8.849l-1.71 -0.77 0.77 6.156c5.643 -4.745 11.627 -13.038 17.014 -14.235m23.34 2.736c-2.394 -1.667 2.009 -4.104 -3.976 1.582 0.513 0 0.684 0.085 1.026 0.17 0.599 -0.427 1.454 -0.983 2.993 -1.752m-2.993 1.752c-2.864 2.095 3.206 0.642 0 0m12.953 -10.302 -2.608 4.574c1.71 0.813 5.386 -1.154 4.745 0.642 3.334 -3.72 1.625 -4.532 -2.095 -5.216m0.984 -6.668 -1.497 2.18c0.727 0.342 1.411 0.171 1.497 -2.18m-4.617 6.797 3.163 -4.617c-1.197 -0.556 -2.479 -2.437 -1.581 1.966 -0.77 -1.966 -0.556 0.257 -1.582 2.693m-3.035 0.727c-3.035 0.171 -6.412 1.24 -3.762 -3.377 -7.011 5.685 -3.249 9.062 3.762 3.377m-29.111 -2.009 -4.061 0.214 -1.283 3.633c0.641 -1.795 6.712 -2.137 5.344 -3.847m62.283 -11.798c-0.556 -1.411 -3.463 -2.437 -4.788 -3.848l-1.966 3.335c2.052 -0.129 5.386 -1.197 6.797 0.513m-4.788 -3.848 2.95 -4.958c-4.061 2.265 -4.104 3.761 -2.95 4.958m-24.238 3.206 -4.232 9.106 5.557 -10.089 -1.325 0.941zm35.01 -12.354 -0.427 0.257s0.299 -0.171 0.427 -0.257c-0.384 -0.256 -0.555 -0.299 -0.427 0.257zm-21.544 8.08c1.282 -3.634 5.258 -9.191 -1.839 -8.806 -0.299 3.59 3.762 3.334 1.839 8.806m16.158 -10.816 -5.13 2.223c0.684 0.855 2.394 1.667 1.753 3.463zm0 0 1.924 -0.812 -0.385 -1.752zm33.514 -16.457 23.811 -15.518 0.513 -0.299 -0.812 -0.385 0.299 0.641zm-13.465 13.807c-1.496 -0.043 -3.078 0.086 -4.702 0.342 1.71 0.428 4.916 0.812 4.702 -0.342m6.711 -41.251c1.753 3.462 -1.539 9.832 -8.293 9.319 -2.864 5.3 6.968 14.064 14.705 17.483 -0.769 -1.496 -1.624 -2.821 1.71 -7.694 -2.736 -0.727 -12.824 2.479 -10.858 -2.95 4.959 -5.6 5.686 -2.094 9.747 -2.308 -2.565 -1.197 -1.582 -3.933 -0.641 -6.968 1.068 -3.121 2.094 -6.54 -0.813 -8.849 -1.111 1.71 -2.479 3.591 -3.804 5.429 -0.684 -0.855 0.256 -3.591 -1.753 -3.462m-2.479 32.146 -1.625 1.624c2.523 -0.812 4.874 -0.556 9.362 0.171 2.095 -3.633 1.967 -5.215 1.496 -6.455l-9.532 5.557 0.342 -0.897zm-10.046 7.139c-0.812 -4.489 2.693 -8.892 -2.522 -10.901 -5.343 3.847 -1.966 5.472 -4.232 9.105 8.336 -6.668 -1.282 3.634 6.455 1.411 -1.368 1.753 -2.821 2.95 -4.189 4.061 1.881 -0.599 3.761 -1.111 5.642 -1.411 -0.128 0 -0.213 -0.042 -0.342 -0.085 -0.684 -0.171 -0.983 -0.385 -0.384 -0.385 0 -0.043 0.085 -0.128 0.128 -0.214 -0.257 -0.513 -0.385 -1.068 -0.47 -1.581 3.035 -0.941 0.983 0.641 0.47 1.581 0.085 0.171 0.128 0.385 0.214 0.599h0.042l7.652 -7.695c-2.223 0.727 -4.488 2.394 -8.421 5.515m-56.213 11.499c0.47 0.128 0.641 0.384 0.812 0.641 0.299 -0.812 0.342 -1.24 -0.812 -0.641m5.044 -0.257c-0.342 0.898 0.043 2.693 -2.308 3.677 -2.522 0.128 -1.069 -1.71 -1.924 -2.779 -0.684 1.753 -2.821 5.429 2.308 4.531l0.3 -0.897c4.36 -1.112 11.841 0.256 11.541 1.154 -3.12 -2.48 -5.514 -4.147 -9.917 -5.686m72.927 -22.143 1.454 4.36 0.855 -8.036zm9.918 -7.096 1.582 3.591 3.035 -4.745 -4.574 1.154zm-24.153 31.804 -0.256 -1.795q0 0.705 0.256 1.795m-4.958 -5.899 0.684 3.463c-0.171 -1.71 -0.47 -3.121 -0.684 -3.463m9.703 -140.469c-5.086 -3.206 -12.738 -8.165 -12.14 -3.89a82 82 0 0 1 1.667 4.104c4.489 -1.111 7.866 -0.94 10.431 -0.214M66.002 206.777l0.813 -0.983c-2.48 -0.428 -4.788 -0.855 -6.926 -1.197 1.839 0.684 3.89 1.41 6.07 2.18m22.272 -2.437a10.5 10.5 0 0 0 -1.111 2.736c0.555 -0.769 0.94 -1.71 1.111 -2.736m78.1 46.552a43 43 0 0 0 -4.403 -2.522c0.043 0.727 2.266 1.497 4.403 2.522M350.06 141.971c9.704 -4.36 15.774 -7.48 19.664 -9.746 -13.85 6.113 -29.538 12.012 -19.664 9.746M190.569 361.523c0.769 -0.769 0.812 -1.881 0.342 -3.377 -0.812 0.556 -1.069 1.582 -0.342 3.377m192.45 -237.976a358 358 0 0 1 -5.985 2.693c-0.812 1.368 -2.265 2.993 -7.31 5.985 10.174 -4.446 19.237 -9.062 13.295 -8.678M118.368 231.571c-0.299 0.128 -0.556 0.342 -0.897 0.384 0.427 0.385 0.641 0.128 0.897 -0.384m-98.106 63.352c0.428 -1.026 1.411 -2.437 2.351 -3.805 -0.726 0.47 -1.453 1.582 -2.35 3.805m289.316 -162.057h-0.171c-2.222 1.026 -1.795 0.812 0.171 0M198.52 108.885c0.086 -0.428 0.214 -0.898 0.342 -1.368 -1.624 2.992 -1.325 2.949 -0.342 1.368m-68.225 57.581s0.043 -0.171 0.085 -0.214l-0.213 -0.128zm-2.736 3.377c-0.77 -5.215 1.111 -4.702 2.65 -3.719a88 88 0 0 0 -5.044 -11.798c0 5.258 0.812 10.43 2.394 15.517m50.998 82.845c0.727 2.992 1.539 7.566 1.924 0.214 -0.428 -4.446 -1.24 -0.898 -1.924 -0.214M93.66 182.453c-0.684 1.026 0.171 2.138 1.582 2.993 1.197 -1.325 1.368 -2.223 -1.582 -2.993M212.028 28.135c-1.71 4.702 -3.291 8.976 0.599 1.24zM109.391 189.208c-0.727 0.384 -1.667 0.684 -2.65 0.94 1.24 0.128 2.265 -0.171 2.65 -0.94m81.434 46.766 0.043 -0.043c-0.342 -0.171 -0.598 -0.342 -0.855 -0.47l0.812 0.555zm37.447 -77.887c0.941 -0.769 2.693 -1.752 4.617 -2.821 -2.992 1.411 -5.044 2.522 -4.617 2.821m-48.39 66.558c-0.342 0.898 -1.325 0.941 -1.667 1.839l1.368 1.709c2.693 -1.923 3.633 -4.659 0.299 -3.548m46.723 -14.363c-4.189 -2.009 -6.326 1.026 -9.832 4.147 0.214 -0.171 0.428 -0.342 0.727 -0.471 2.95 4.66 6.369 0.257 9.105 -3.719m-10.687 4.874c-1.111 0.94 -2.308 1.838 -3.676 2.522 0.983 2.009 1.881 -0.684 3.676 -2.522m-3.932 -10.901c1.752 0.769 3.59 1.539 5.471 2.266a34 34 0 0 0 -1.71 -3.591zm23.468 -10.644c-1.881 1.111 -3.42 12.568 -3.42 13.508 0.898 -0.641 2.779 -12.397 3.42 -13.508m-18.211 5.472 2.523 -0.428 3.89 -2.095zm97.551 -50.058c0.641 -0.983 -3.206 -1.453 -6.498 -2.009 -7.78 0 -22.143 6.626 -22.186 7.438 2.18 0 23.041 -3.676 28.684 -5.429m-55.401 12.354c-7.396 -1.881 -19.664 2.608 -23.896 7.225 5.899 -0.342 16.329 1.111 23.896 -7.225m3.462 -22.742 1.71 -0.213 23.768 -11.884zm-82.118 30.479c1.795 2.223 1.753 -6.283 3.676 -3.462 1.625 -2.479 -1.71 -2.308 -0.427 -4.446 -2.822 2.693 -3.377 1.368 -3.249 7.908m3.249 -7.908c0.47 -0.427 0.983 -0.94 1.624 -1.624 -0.897 0.684 -1.325 1.197 -1.624 1.624M5.386 306.422 0.812 309.2l4.574 -0.641zm0.428 11.969L0 315.655l2.907 5.728c0.427 -1.068 1.24 -3.12 2.907 -2.992M178.6 234.477l-0.556 1.625c-0.47 1.881 -0.342 2.18 -0.128 2.778 0.128 -1.539 0.342 -3.035 0.684 -4.403m8.378 15.988 -0.256 -0.513 5.386 14.235zm-6.156 -18.339c-0.256 -0.342 1.112 1.838 0.855 1.582 -1.111 -1.71 6.755 9.533 -0.855 -1.582m47.664 -98.49a777 777 0 0 1 18.681 -10.602l-14.834 4.874c0.342 -1.112 0.599 -2.181 0.813 -3.292 -1.539 0.47 -3.164 1.111 -4.831 1.838 0.043 2.394 0.086 4.831 0.171 7.224m-31.334 62.027c-1.069 -8.378 0.898 -2.137 3.505 -6.326 -0.427 -5.942 -5.771 -8.08 -8.977 -6.37 0.599 -3.377 1.112 -5.642 0.941 -7.865 0 -0.556 -0.128 -1.112 -0.257 -1.667 -0.128 -0.642 -0.342 -1.197 -0.555 -1.326 -0.471 -0.47 -1.155 -0.983 -2.181 -1.368 1.796 -0.171 3.549 -0.299 5.344 -0.384a25 25 0 0 0 -1.795 -2.48c2.18 0.043 4.36 0.385 6.583 1.026 2.052 -5.386 -2.18 -3.377 -4.874 -3.035 -1.966 1.325 -3.932 2.907 -6.07 5.258 -0.47 -0.598 -1.197 -1.197 -2.18 -1.753 0.556 -0.213 3.676 -2.051 5.386 -5.172 -2.906 0.513 -0.555 -0.898 -1.026 -3.42 0.342 -0.342 0.727 -0.684 1.112 -1.068 0.299 -0.471 0.769 -1.112 1.496 -2.01 -1.411 0.171 -2.95 2.693 -4.275 4.318 -1.325 1.667 -2.479 2.65 -3.035 1.624 1.325 -1.667 2.394 -3.548 3.249 -5.343 -0.342 0.513 -0.641 0.94 -0.898 1.325 -0.342 -0.171 -0.513 -0.556 -0.641 -1.026 -0.855 1.496 -1.539 2.95 -1.624 3.463 -0.385 -0.599 0.342 -2.437 1.581 -4.874 0.3 -3.975 3.377 -11.37 5.301 -13.251 -0.427 0 -0.812 0.085 -1.24 0.171 -0.769 1.453 -1.539 2.821 -2.223 4.146 -1.667 3.206 -2.906 5.942 -2.778 7.609 -1.325 1.368 0.214 -2.137 1.411 -5.813 1.239 -3.549 2.137 -7.268 -0.171 -3.078 0.342 -0.727 0.726 -1.411 1.068 -2.138 -3.377 1.539 -5.856 4.745 -7.566 7.866 -2.608 4.232 -2.864 8.079 -9.447 7.78l4.574 2.18c-2.651 1.325 -12.867 -0.214 -11.628 1.838 -1.581 -1.795 -3.206 -5.129 -3.676 -7.951 0 0.513 0.043 0.983 0.171 1.496l-0.214 -0.598c-0.427 0.983 -0.812 1.71 -1.239 2.308a13 13 0 0 1 -0.642 0.812c-0.342 0.385 -0.684 0.727 -0.983 1.069 -1.325 1.411 -2.565 2.223 -3.676 3.035 -2.266 1.667 -4.232 3.377 -6.284 9.704l2.522 0.256c-3.676 12.568 -13.081 23.939 -20.861 35.353 1.881 5.471 1.796 12.055 5.515 9.832 5.642 3.334 6.113 -2.309 10.302 -0.813 -0.684 0.385 -2.052 1.197 -1.325 2.138l6.882 -0.086c0.086 2.608 -5.514 -0.726 -3.291 4.617 9.105 3.976 14.705 6.07 18.338 13.209 1.069 0.898 1.924 1.368 2.608 1.582 0.556 0.043 0.855 -0.257 1.24 -0.556 0.684 -0.684 1.496 -1.539 1.966 -2.608 0.299 -1.282 0.513 -2.522 1.026 -2.992 0.256 -0.256 0.556 -0.299 1.026 -0.043 0.214 0.129 0.47 0.3 0.769 0.599 0.043 0 0.086 0.128 0.129 0.214 -2.651 3.077 -5.558 7.01 -4.147 9.361 2.308 -1.667 3.805 -4.659 5.301 -5.685l-2.522 6.327c1.368 1.068 2.522 0.555 1.453 6.241 1.838 -1.924 2.266 -0.77 2.864 1.282 1.197 -1.111 0.727 -6.198 0.599 -10.687 -0.171 -4.574 0.213 -8.464 0.47 -9.917 -0.342 2.607 -0.171 3.676 0 4.83 0.256 2.223 0.47 4.061 0.727 6.241 0.128 1.155 0.256 2.394 0.427 3.762l-0.256 0.299c-0.3 0.3 -0.642 0.556 -0.984 0.77 0.385 1.966 0.813 3.291 1.197 4.061 1.24 2.565 1.539 -0.342 1.667 -1.71 0.214 -1.24 0.257 -0.983 2.779 9.917 -1.368 -2.137 -2.65 1.24 -1.111 7.823a9.9 9.9 0 0 0 1.795 -2.693c0.812 3.249 -1.154 0.47 0.598 5.044 0.471 -1.496 0.727 -5.813 0.257 -9.276l0.128 0.727 2.651 1.539c-0.129 0.384 0.769 3.719 1.496 4.83 0.128 -1.368 0.128 -2.949 -0.043 -4.659 0.556 2.821 2.608 7.865 4.617 11.627 2.522 4.275 0 -3.462 -2.565 -10.473 -2.48 -6.882 -4.831 -13.166 -0.983 -3.676 -0.3 -0.642 0.513 1.368 0.213 0.726l1.753 4.318c0.684 1.624 1.197 2.223 1.71 3.291 -7.139 -17.868 -7.481 -19.792 -7.908 -21.758 -0.385 -1.924 -0.813 -3.933 -7.951 -16.971 5.77 10.516 3.419 5.429 10.259 20.604a89 89 0 0 0 4.061 6.113c0.556 1.967 -0.513 0.513 0.898 4.275 2.992 4.617 2.522 1.71 0.897 -2.479 -1.667 -4.275 -4.488 -9.832 -6.369 -13.252 2.009 2.18 10.687 17.612 8.208 10.174 -1.497 -4.745 -4.019 -7.438 -6.413 -10.345 -2.393 -2.779 -4.702 -5.728 -5.557 -7.395 2.394 2.864 4.788 5.386 7.182 7.609 -2.822 -4.745 -2.993 -5.6 -2.394 -6.199 0.598 -0.513 1.966 -0.684 2.351 -1.838a6.36 6.36 0 0 0 -2.095 -2.052c1.454 -0.598 -0.299 -2.864 -2.137 -4.018 -0.898 -0.641 -1.838 -1.069 -2.394 -1.411 -0.128 -0.171 -0.256 0 -0.342 -0.427 -0.085 -0.47 -0.171 -0.898 -0.214 -1.368 -0.085 -0.898 0 -1.753 0.214 -2.565 1.496 1.454 4.147 -3.89 5.771 -4.745l-4.788 -11.414c2.052 5.045 5.985 4.617 9.832 5.387 -0.555 -3.591 -2.821 -5.216 -3.419 -7.652 1.453 1.453 2.949 2.907 4.616 0.898l-7.096 -11.884c-0.641 0.769 -0.812 2.18 -0.94 3.334 -0.171 -3.035 -2.993 -9.49 0 -14.021 1.539 0.299 3.035 1.752 4.574 2.052 -4.147 3.89 -0.342 5.771 2.65 7.523M128.2 217.678s-0.256 0.171 -0.427 0.299zm-53.263 -29.24c4.232 2.693 8.293 5.13 12.097 7.396 0.171 -1.155 1.197 -2.95 2.608 -4.745 0.812 0.299 1.624 0.555 2.436 0.812 0.3 -0.513 0.599 -0.983 0.94 -1.454a59 59 0 0 1 -2.564 -0.299 41 41 0 0 1 2.65 -2.779c-5.984 -1.068 -12.482 -2.522 -12.867 0.342 0.94 0.342 2.095 0.77 3.292 1.197 -4.531 -0.855 -8.293 -1.581 -8.635 -0.47m-19.878 -31.633c8.208 6.113 18.382 11.67 27.914 15.774a194 194 0 0 0 19.194 7.139c6.925 -7.011 14.064 -13.295 16.714 -21.588 -0.684 -1.411 -1.282 -2.565 -1.453 -2.907 1.539 4.019 -0.898 6.583 -3.933 7.994 -3.12 1.411 -7.481 1.753 -11.499 1.496l0.855 -0.128c-1.368 -1.325 -4.275 -2.394 -6.882 -2.736 -2.565 -0.385 -4.66 0 -3.377 1.325 -2.437 -1.453 -0.984 -1.068 0 -1.239 -7.695 -2.522 -4.275 0.384 0 3.035 4.06 2.693 9.062 5.129 -0.428 2.223 5.002 0.384 -0.556 -2.523 -6.882 -5.301 0.598 0.94 -0.428 1.325 -1.41 1.71 -0.856 0.427 -2.224 0.684 -0.471 1.795 3.206 1.71 7.438 3.377 14.62 5.728 -3.335 -0.427 0.427 1.539 -9.918 -1.838 5.9 3.164 11.328 5.814 16.244 7.994 -2.094 -0.684 -7.823 -2.351 -7.48 -1.026 -0.3 -1.197 -5.344 -3.462 -9.448 -5.728 -4.06 -2.18 -7.01 -4.189 -1.026 -2.693 -13.166 -4.617 -18.04 -4.959 -31.334 -11.029m71.602 -14.192c-2.735 4.873 -4.274 9.703 -4.659 14.406 2.437 0.855 3.206 3.975 6.369 0.983 -11.627 0.983 6.156 -15.646 -1.71 -15.347m3.036 -0.171c-0.257 -1.667 -0.385 -3.163 -0.171 -4.403a61 61 0 0 0 -2.865 4.574c1.112 0.086 2.095 0 3.036 -0.171m51.852 -20.39c-0.042 0.641 0 1.154 0 1.71a4.5 4.5 0 0 1 0.813 -0.342c-0.3 -0.428 -0.556 -0.898 -0.813 -1.325m-19.963 33.685v0.085zm0.77 -3.463v0.086c0.043 -0.043 0.085 -0.129 0.128 -0.214l-0.085 0.128zm25.306 -47.45c-0.94 0.471 -2.864 4.446 -4.189 8.635a47 47 0 0 0 -1.069 3.805c0.428 0 0.984 0.085 1.625 0.256 0.427 -0.085 0.769 -0.128 1.197 -0.213 0.555 1.539 1.111 3.035 1.581 4.574 0.385 -0.129 0.77 -0.214 1.155 -0.342 0.042 -1.839 0.213 -4.147 0.299 -6.455 0.342 -5.857 0.556 -11.585 -0.556 -10.26m6.028 11.67c-0.214 0.556 -0.385 1.155 -0.642 1.753 -0.213 0.684 -0.47 1.411 -0.684 2.137 1.625 -0.342 3.164 -0.684 4.532 -0.897 0.171 -0.428 0.384 -0.898 0.555 -1.411a27 27 0 0 1 -1.838 -1.026c0.727 0.214 1.325 0.428 2.009 0.684 0.171 -0.385 0.3 -0.812 0.513 -1.24 1.924 -7.651 -1.453 -0.042 0.428 -7.651 1.068 -1.668 2.949 -4.617 4.36 -7.738 1.71 -9.361 0.513 -10.003 -1.325 -7.139 -0.941 1.454 -1.967 3.506 -2.95 5.729 -1.496 3.932 -2.821 7.352 -3.762 9.49l1.326 -2.608 0.684 -1.325 0.299 -0.599 0.128 0.086c0.299 0.256 0.641 0.598 0.941 0.94 -3.335 10.217 -3.634 10.559 -3.805 10.089 -0.086 -0.214 -0.085 -0.642 -0.427 0l-0.3 0.684m-0.769 48.433s-0.342 0.427 -0.513 0.598a2.8 2.8 0 0 1 0.598 -0.342 0.6 0.6 0 0 0 -0.085 -0.256m4.916 -4.745s-0.128 -0.086 -0.171 -0.129c-0.299 0.257 -0.556 0.513 -0.855 0.77zm216.217 -60.061s0.257 0 0.342 0.043c-12.354 6.711 -12.396 8.336 -13.679 10.473 -22.742 10.089 -30.094 14.876 -35.224 19.279 -4.617 4.019 -7.267 7.652 -14.491 12.354 0 0 -4.275 3.634 -23.341 4.061 -19.022 0.428 -1.453 -1.88 -1.197 -2.222 0.642 -2.693 -4.061 -3.335 -12.867 -1.967 -8.72 1.325 -21.544 4.66 -35.48 8.806 2.565 -0.256 6.07 -0.342 6.156 0.47 0.128 0.813 -5.13 4.532 -14.62 7.182 -4.104 -0.214 -1.838 -4.104 -14.577 -0.385 25.862 -8.635 1.539 1.454 24.238 -6.497 1.752 -1.325 -4.916 0.299 -7.994 0.94 8.293 -2.009 18.339 -6.198 24.794 -8.507 4.616 -2.949 11.627 -6.369 19.279 -10.216 -0.641 -0.684 -1.881 -1.283 -5.814 -1.24 2.95 -1.24 9.276 -3.976 15.518 -6.156 -6.455 1.454 -20.391 5.686 -33.429 10.089 -13.124 4.446 -25.52 9.105 -31.633 11.755 -5.173 0.727 4.146 -3.334 -5.344 -0.641 -11.798 7.139 1.582 -1.154 -17.441 7.054 -5.343 1.239 7.609 -3.848 9.96 -5.558 -2.565 0.898 -9.703 3.719 -14.32 5.899 5.429 -2.949 14.577 -7.01 24.751 -11.242 10.045 -4.232 21.074 -8.592 26.674 -12.012 3.377 -2.138 5.771 -4.916 6.626 -7.182 0.898 -2.265 0.385 -4.018 0.385 -4.275 -12.739 5.472 -44.543 23.341 -65.19 34.968 0 0.727 0 1.496 -0.043 2.266 -0.171 5.685 -0.727 10.815 -5.343 9.917l0.812 -1.24c-0.641 -3.59 -2.394 -2.522 -3.848 -0.299 -1.453 2.309 -2.607 5.6 -1.966 8.037 2.65 -5.387 9.618 8.977 10.345 -3.933l-4.36 19.835c2.864 0.727 29.025 -17.783 31.547 -7.695 -5.77 6.712 -6.07 19.493 -15.602 27.316 -0.342 0.256 -0.684 6.626 -0.77 7.053 -1.368 2.309 -7.523 -0.769 -8.079 -0.855 0.769 1.625 -0.812 10.516 -0.47 12.226 0.342 1.881 4.787 2.993 5.471 5.942 1.582 7.011 2.822 6.327 2.266 10.644 -1.154 8.678 -2.821 14.235 -1.283 17.228a69 69 0 0 1 -4.873 -1.326c8.165 19.579 9.148 25.093 6.327 39.756 -0.812 -1.283 -2.266 -5.002 -3.292 -3.548 3.762 8.592 7.225 18.68 4.232 26.503l-1.282 -2.565c-0.684 5.216 -2.009 9.02 -2.736 13.509 -5.215 -10.046 -4.189 -1.283 -4.617 5.685 -0.085 1.753 -0.256 3.42 -0.555 4.788a11 11 0 0 1 -0.513 1.881c-0.129 0.256 -0.214 0.513 -0.385 0.769 -0.043 0.257 -0.556 0.556 -0.556 0.214 -0.299 -0.77 -0.94 -1.667 -1.838 -2.992 -0.812 -1.368 -1.838 -3.249 -2.992 -5.771 0.598 3.334 -4.532 2.351 -7.096 3.761 -0.342 -1.026 -0.855 -2.18 -1.753 -3.59 0.214 5.642 -3.719 2.522 -7.609 -2.181 -4.36 -4.958 -8.379 -10.857 -11.371 -13.465 -3.377 -0.257 -1.282 5.771 1.325 12.14 -1.966 -3.676 -3.847 -6.198 -5.771 -8.036 -0.256 -0.257 -0.47 -0.385 -0.726 -0.684l-0.77 -1.197 -1.539 -2.266a81 81 0 0 0 -3.163 -4.146c-1.667 -0.513 -3.334 -0.813 -4.959 -1.026 -1.667 -0.641 -3.334 -1.496 -4.83 -2.223 -3.035 -1.582 -5.558 -3.292 -6.455 -5.472 -6.669 -8.036 -1.112 -9.49 -2.009 -15.261 -4.574 -3.762 -5.429 0.171 -6.242 2.864 -0.769 2.779 -1.966 3.634 -7.48 -6.369 1.881 0.983 4.873 3.42 4.146 1.368 -2.265 -3.292 -3.591 -11.285 -4.232 -17.74 -0.769 -6.541 -0.855 -11.585 -3.933 -12.269 0.171 1.496 0.428 2.992 0.727 4.574 -1.24 -0.556 -2.308 -1.453 -3.249 -2.479 -0.812 -0.898 -1.282 -1.796 -1.795 -2.864 -0.941 -2.138 -1.496 -4.574 -2.052 -6.755 -1.112 -4.36 -2.18 -7.609 -6.241 -4.531l-2.822 3.805c-5.215 -14.192 -5.386 -2.907 -11.328 -16.672l0.684 -0.427c-4.659 -3.548 -3.291 -9.533 -9.532 -7.396l1.367 2.309 -1.795 -0.171 0.171 0.47c-0.214 -0.171 -0.385 -0.342 -0.598 -0.513l-1.112 -0.128c-3.719 5.044 5.386 1.624 1.71 6.668 -10.815 -3.248 -16.928 21.118 -27.743 20.006 3.762 7.951 7.823 -8.977 10.772 -1.111 -2.052 0.855 -3.719 0.727 -6.626 3.676l4.574 1.539c-13.209 13.893 -20.647 17.441 -29.752 31.762l-0.427 -1.112c-4.96 3.847 -6.199 6.968 -4.532 11.456 -2.48 -0.256 -0.855 -4.403 -3.762 -3.633 3.42 15.517 -19.407 12.14 -16.5 22.186 -7.096 -6.156 -22.4 -0.086 -24.922 -9.02l-1.624 4.189c-4.147 -4.745 7.823 -11.157 4.06 -16.928l13.252 -7.352c-2.137 -0.983 -3.59 -4.831 -5.557 -3.506 1.881 -2.821 3.335 -5.428 -1.966 -3.761 31.847 -17.399 39.2 -53.606 64.805 -74.894 0.043 -0.171 0.086 -0.299 0.086 -0.428a78 78 0 0 1 -1.967 -1.881 19 19 0 0 0 -1.453 -0.171 6 6 0 0 0 1.026 -0.213l-0.428 -0.428c-4.873 -5.087 -9.19 -10.644 -10.644 -12.397 7.14 5.857 7.054 2.01 8.464 -0.171 -9.02 -1.838 -12.738 -4.83 -12.396 -9.661 -11.158 -0.171 -23.512 -0.812 -36.72 -13.251 3.761 2.094 7.608 4.958 8.848 3.975 1.282 -0.983 -4.061 -3.804 -5.942 -4.873 1.453 -0.812 7.054 2.992 10.046 2.18 -9.533 -4.232 -13.337 -7.823 -16.202 -11.328 -2.95 -3.591 -4.958 -7.053 -13.038 -13.209 8.08 4.702 7.994 2.522 12.312 2.992 -9.148 -2.864 -9.02 -5.429 -8.464 -7.096s1.154 -2.864 -9.362 -5.3c-0.342 -0.941 -0.855 -1.967 -1.453 -3.036 18.937 0.727 34.582 -0.427 48.69 -1.453 14.063 -0.94 26.417 -1.496 33.94 1.325 5.173 2.779 7.824 -2.607 12.569 -3.163l1.709 3.719c3.848 -3.805 6.327 -4.66 8.806 -5.515 2.651 -0.854 5.13 -1.752 12.782 -5.899 -6.07 5.087 -2.137 6.883 3.719 10.046l6.754 -8.592 1.924 5.813c0.94 -0.812 1.923 -1.282 2.949 -1.581 2.565 -2.138 4.788 -2.822 6.883 0 0.726 -1.753 2.052 -3.035 3.676 -4.061 -0.513 -2.223 -2.223 -3.548 -3.463 -2.95 6.413 -8.079 10.858 -14.107 15.133 -27.06 2.138 -0.341 9.191 -11.584 16.843 -22.142 7.566 -10.43 15.432 -19.835 15.859 -12.013 -0.983 -9.49 1.539 -7.78 6.626 -19.535 -0.214 -2.907 -0.513 -5.686 -0.94 -8.293l9.019 -11.414c2.223 -3.975 2.608 -4.146 2.266 -2.821 1.368 -1.41 -2.351 8.763 0.385 7.438 2.778 -3.505 4.787 -7.48 6.882 -12.226a997 997 0 0 1 3.292 -7.78c0.598 -1.368 1.197 -2.779 1.838 -4.275 0.342 -0.427 0.684 -0.812 1.026 -1.111l0.598 -4.061 0.855 6.07c0.086 3.035 -1.368 1.838 -3.035 3.634 -0.427 0.427 -0.855 1.026 -1.24 1.923 -0.342 0.641 -0.983 2.565 -1.282 3.677 -0.599 2.35 -1.368 6.925 -1.753 12.696 0.684 -2.052 2.693 -5.857 4.19 -6.84 1.496 -1.026 2.436 0.727 0.812 8.08 -0.214 -9.619 -3.506 2.008 -4.788 9.233l0.256 12.097 5.985 -21.032c0.812 18.553 0.599 39.67 0.385 59.291 -0.086 10.003 -0.214 19.579 -0.128 28.855 3.59 -0.855 7.438 -1.924 11.584 -2.992 11.585 -3.078 25.35 -5.985 27.487 -1.24 -1.282 -0.898 -4.745 -1.069 -8.037 0.898 8.08 -0.898 13.423 0.256 17.997 1.068 4.702 0.813 8.763 1.24 17.014 -1.239l8.165 -5.044c15.645 -3.249 28.64 -5.729 37.788 -6.199l13.038 -6.027c5.344 0.47 21.417 -2.394 34.541 -3.933 12.995 -1.539 22.57 -1.753 9.789 4.36 8.421 -2.65 12.696 -2.736 16.158 -2.394 3.548 0.342 6.113 1.069 12.739 -0.128l-12.439 4.788zm-227.588 61.942s0 -0.129 -0.086 -0.171c0 0.128 0 0.213 0.086 0.171m2.992 101.183 0.214 0.129s-0.171 -0.214 -0.214 -0.129" fill="white"/></svg>