<svg width="163" height="134" viewBox="0 0 163 134" fill="none" xmlns="http://www.w3.org/2000/svg">
<path d="M12.686 129.854C12.4422 129.539 14.0354 130.564 13.0599 131.572C13.0112 131.273 11.9219 130.169 12.686 129.854ZM22.294 119.703L22.4403 120.349L23.302 118.016L22.3103 119.703H22.294ZM33.105 112.909C30.6339 111.411 29.4309 115.73 26.9923 116.172L26.342 115.888L26.6347 118.158C28.7806 116.408 31.0566 113.35 33.105 112.909ZM41.9815 113.917C41.0711 113.303 42.7456 112.404 40.4695 114.501C40.6646 114.501 40.7297 114.532 40.8597 114.564C41.0873 114.406 41.4125 114.201 41.9977 113.917M40.8597 114.564C39.7705 115.336 42.079 114.8 40.8597 114.564V114.564ZM45.7856 110.765L44.794 112.451C45.4442 112.751 46.8424 112.026 46.5985 112.688C47.8666 111.316 47.2163 111.017 45.8019 110.765M46.1758 108.306L45.6068 109.11C45.8832 109.236 46.1433 109.173 46.1758 108.306ZM44.42 110.812L45.6231 109.11C45.1679 108.905 44.6802 108.211 45.0216 109.835C44.7289 109.11 44.8102 109.929 44.42 110.828M43.2658 111.096C42.1115 111.159 40.8272 111.553 41.8352 109.85C39.169 111.947 40.5996 113.192 43.2658 111.096ZM32.1946 110.355L30.6502 110.434L30.1625 111.774C30.4063 111.111 32.7149 110.985 32.1946 110.355ZM55.8814 106.004C55.67 105.484 54.5645 105.106 54.0606 104.585L53.3127 105.815C54.0931 105.768 55.3611 105.374 55.8976 106.004M54.0768 104.585L55.1986 102.757C53.6541 103.592 53.6379 104.144 54.0768 104.585ZM44.859 105.768L43.2495 109.125L45.363 105.405L44.859 105.752V105.768ZM58.1736 101.212L58.0111 101.307C58.0111 101.307 58.1249 101.244 58.1736 101.212C58.0273 101.117 57.9623 101.102 58.0111 101.307L58.1736 101.212ZM49.98 104.191C50.4677 102.851 51.9796 100.802 49.2809 100.944C49.1671 102.268 50.7116 102.174 49.98 104.191ZM56.1252 100.203L54.1744 101.023C54.4345 101.338 55.0848 101.638 54.8409 102.3L56.1252 100.203ZM56.1252 100.203L56.8568 99.9037L56.7105 99.2574L56.1252 100.203ZM68.8709 94.1343L77.9261 88.4122L78.1212 88.3018L77.8123 88.16L77.9261 88.3964L68.8709 94.1343ZM63.7498 99.2259C63.1808 99.2101 62.5793 99.2574 61.9616 99.352C62.6118 99.5096 63.8311 99.6515 63.7498 99.2259ZM66.3022 84.0142C66.9688 85.291 65.717 87.6398 63.1483 87.4506C62.0591 89.4053 65.7982 92.6368 68.7408 93.8978C68.4482 93.3461 68.123 92.8575 69.3911 91.0604C68.3506 90.7924 64.5139 91.9747 65.2618 89.9727C67.1476 87.9077 67.424 89.2003 68.9684 89.1215C67.993 88.6801 68.3669 87.6713 68.7245 86.5521C69.131 85.4013 69.5211 84.1403 68.4157 83.289C67.993 83.9196 67.4727 84.6132 66.9688 85.291C66.7086 84.9757 67.0663 83.9669 66.3022 84.0142ZM65.3593 95.8683L64.7415 96.4673C65.7007 96.1678 66.5948 96.2623 68.3018 96.5303C69.0985 95.1904 69.0497 94.6072 68.8709 94.15L65.2455 96.1993L65.3756 95.8683H65.3593ZM61.5389 98.5008C61.23 96.8456 62.5631 95.222 60.5797 94.4811C58.5475 95.8998 59.8319 96.4988 58.9702 97.8387C62.1404 95.3796 58.4825 99.1786 61.4251 98.3589C60.9048 99.0052 60.3521 99.4466 59.8319 99.8564C60.5472 99.6357 61.2625 99.4466 61.9778 99.3362C61.929 99.3362 61.8965 99.3205 61.8478 99.3047C61.5876 99.2416 61.4738 99.1628 61.7014 99.1628C61.7014 99.1471 61.7339 99.1155 61.7502 99.084C61.6527 98.8948 61.6039 98.6899 61.5714 98.5008C62.7256 98.154 61.9453 98.7372 61.7502 99.084C61.7827 99.1471 61.799 99.2259 61.8315 99.3047H61.8478L64.7578 96.4673C63.9124 96.7353 63.0508 97.35 61.5551 98.5008M40.1769 102.741C40.3557 102.788 40.4208 102.883 40.4858 102.978C40.5996 102.678 40.6159 102.52 40.1769 102.741ZM42.0953 102.647C41.9652 102.978 42.1115 103.64 41.2174 104.002C40.2582 104.049 40.8109 103.372 40.4858 102.978C40.2257 103.624 39.4128 104.98 41.3637 104.648L41.4775 104.317C43.1357 103.908 45.9807 104.412 45.8669 104.743C44.6802 103.829 43.7698 103.214 42.0953 102.647ZM69.83 94.4811L70.3828 96.089L70.7079 93.1254L69.83 94.4811ZM73.6017 91.8643L74.2032 93.1885L75.3575 91.4387L73.618 91.8643H73.6017ZM64.4164 103.592L64.3188 102.93C64.3188 103.104 64.3514 103.324 64.4164 103.592ZM62.5306 101.417L62.7907 102.694C62.7256 102.063 62.6118 101.543 62.5306 101.417ZM66.2209 49.6184C64.2863 48.4361 61.3763 46.6075 61.6039 48.1839C61.8315 48.6883 62.0428 49.1927 62.2379 49.6972C63.9449 49.2873 65.2292 49.3504 66.2047 49.6184M25.9031 76.9364L26.212 76.5738C25.2691 76.4162 24.3912 76.2586 23.5783 76.1324C24.2774 76.3847 25.0577 76.6526 25.8868 76.9364M34.3568 76.0379C34.178 76.3374 34.0317 76.6684 33.9342 77.0467C34.1455 76.763 34.2918 76.4162 34.3568 76.0379ZM64.0587 93.2042C63.4897 92.8417 62.937 92.5422 62.3842 92.2742C62.4005 92.5422 63.2459 92.8259 64.0587 93.2042ZM133.932 53.039C137.623 51.4312 139.931 50.2804 141.41 49.445C136.143 51.6991 130.177 53.8745 133.932 53.039ZM73.2766 134C73.5692 133.716 73.5854 133.306 73.4066 132.755C73.0977 132.96 73.0002 133.338 73.2766 134ZM146.466 46.245C145.686 46.5918 144.971 46.907 144.19 47.2381C143.882 47.7425 143.329 48.3415 141.41 49.445C145.28 47.8056 148.726 46.1031 146.466 46.245ZM45.8182 86.0792C45.7044 86.1265 45.6068 86.2053 45.4768 86.221C45.6393 86.3629 45.7206 86.2683 45.8182 86.0792ZM8.50791 109.441C8.67048 109.062 9.0444 108.542 9.40206 108.038C9.12568 108.211 8.84931 108.621 8.50791 109.441ZM118.537 49.6814H118.472C117.626 50.0597 117.789 49.9809 118.537 49.6814ZM76.3004 40.8381C76.3329 40.6805 76.3817 40.5071 76.4305 40.3337C75.8127 41.4371 75.9265 41.4214 76.3004 40.8381ZM50.3539 62.0715C50.3539 62.0715 50.3702 62.0084 50.3864 61.9926L50.3051 61.9454L50.3539 62.0715ZM49.3135 63.3168C49.0208 61.3936 49.7361 61.5828 50.3214 61.9454C49.8012 60.4794 49.1671 59.0291 48.4031 57.5947C48.4031 59.5336 48.7119 61.4409 49.3135 63.3168ZM68.7083 93.8663C68.9847 94.9697 69.2935 96.6564 69.4399 93.9451C69.2773 92.3057 68.9684 93.6141 68.7083 93.8663ZM36.4215 67.967C36.1614 68.3453 36.4865 68.7552 37.023 69.0704C37.4782 68.5818 37.5433 68.2507 36.4215 67.967ZM81.4377 11.061C80.7874 12.795 80.1859 14.3713 81.6653 11.5181L81.4377 11.061ZM42.4042 70.4576C42.1278 70.5995 41.7701 70.7098 41.3962 70.8044C41.8677 70.8517 42.2578 70.7414 42.4042 70.4576ZM73.3741 87.7028L73.3904 87.687C73.2603 87.624 73.1628 87.5609 73.0652 87.5136L73.3741 87.7186V87.7028ZM87.6154 58.9818C87.9731 58.6981 88.6396 58.3355 89.3712 57.9414C88.2332 58.4616 87.4528 58.8715 87.6154 58.9818ZM69.2123 83.5255C69.0822 83.8565 68.7083 83.8723 68.5782 84.2033L69.0985 84.8339C70.1227 84.1245 70.4803 83.1156 69.2123 83.5255ZM86.9814 78.229C85.3882 77.4881 84.5753 78.6073 83.2422 79.758C83.3235 79.695 83.4048 79.6319 83.5186 79.5846C84.6403 81.3028 85.9409 79.6792 86.9814 78.2132M82.9171 80.0103C82.4944 80.357 82.0392 80.6881 81.519 80.9403C81.8929 81.6812 82.2343 80.6881 82.9171 80.0103ZM81.4214 75.9906C82.088 76.2743 82.787 76.5581 83.5023 76.826C83.3072 76.3689 83.0959 75.9275 82.852 75.5019L81.4214 75.9906ZM90.3466 72.0655C89.6313 72.4753 89.046 76.6999 89.046 77.0467C89.3874 76.8103 90.1027 72.4753 90.3466 72.0655ZM83.421 74.0832L84.3802 73.9256L85.8596 73.1532L83.421 74.0832ZM120.52 55.6242C120.764 55.2617 119.301 55.0883 118.049 54.8833C115.09 54.8833 109.628 57.3267 109.611 57.6262C110.44 57.6262 118.374 56.2705 120.52 55.6242ZM99.4506 60.1799C96.6381 59.4863 91.9723 61.1414 90.3629 62.8439C92.6064 62.7178 96.5731 63.2537 99.4506 60.1799ZM100.767 51.7937L101.418 51.7149L110.457 47.3327L100.767 51.7937ZM69.5374 63.033C70.2202 63.8527 70.2039 60.7158 70.9355 61.7562C71.5533 60.8419 70.2852 60.905 70.7729 60.1168C69.7 61.1099 69.4886 60.6212 69.5374 63.033ZM70.7729 60.1168C70.9518 59.9592 71.1469 59.77 71.3907 59.5178C71.0493 59.77 70.8867 59.9592 70.7729 60.1168ZM2.85041 113.681L1.11089 114.706L2.85041 114.469V113.681ZM3.01298 118.095L0.802002 117.086L1.90749 119.198C2.07006 118.804 2.37895 118.047 3.01298 118.095ZM68.7245 87.1511L68.5132 87.7501C68.3344 88.4437 68.3831 88.554 68.4644 88.7747C68.5132 88.2072 68.5945 87.6555 68.7245 87.1511ZM71.9109 93.0466L71.8134 92.8575L73.8618 98.1067L71.9109 93.0466ZM69.5699 86.2841C69.4724 86.158 69.9926 86.9619 69.8951 86.8673C69.4724 86.2368 72.4637 90.3826 69.5699 86.2841ZM87.6967 49.9651C90.2978 48.4834 92.8502 47.0962 94.8011 46.0558L89.1598 47.8529C89.2899 47.443 89.3874 47.0489 89.4687 46.6391C88.8835 46.8125 88.2657 47.0489 87.6317 47.3169C87.6479 48.1996 87.6642 49.0982 87.6967 49.9809M75.7802 72.8537C75.3737 69.764 76.1216 72.0655 77.1133 70.5207C76.9507 68.3295 74.9185 67.5414 73.6992 68.1719C73.9268 66.9266 74.1219 66.0911 74.0569 65.2714C74.0569 65.0665 74.0081 64.8616 73.9594 64.6567C73.9106 64.4202 73.8293 64.2153 73.748 64.168C73.5692 63.9946 73.3091 63.8054 72.9189 63.6636C73.6017 63.6005 74.2682 63.5532 74.951 63.5217C74.7234 63.1749 74.4958 62.8754 74.2682 62.6074C75.0974 62.6232 75.9265 62.7493 76.7719 62.9857C77.5522 60.9996 75.9427 61.7404 74.9185 61.8665C74.1707 62.3552 73.4229 62.9385 72.61 63.8054C72.4312 63.5848 72.1548 63.3641 71.7809 63.1591C71.9922 63.0803 73.179 62.4025 73.8293 61.2518C72.7238 61.4409 73.618 60.9207 73.4391 59.9907C73.5692 59.8646 73.7155 59.7385 73.8618 59.5966C73.9756 59.4232 74.1544 59.1868 74.4308 58.8557C73.8943 58.9188 73.3091 59.8488 72.8051 60.4478C72.3011 61.0626 71.8622 61.4252 71.6508 61.0468C72.1548 60.4321 72.5612 59.7385 72.8864 59.0764C72.7563 59.2656 72.6425 59.4232 72.545 59.5651C72.4149 59.502 72.3499 59.3602 72.3011 59.1868C71.976 59.7385 71.7159 60.2744 71.6833 60.4636C71.537 60.2429 71.8134 59.5651 72.2849 58.6666C72.3987 57.2006 73.5692 54.4735 74.3008 53.7799C74.1382 53.7799 73.9919 53.8114 73.8293 53.843C73.5367 54.3789 73.244 54.8833 72.9839 55.372C72.3499 56.5543 71.8784 57.5631 71.9272 58.1779C71.4232 58.6823 72.0085 57.3897 72.4637 56.0341C72.9352 54.7257 73.2766 53.3543 72.3987 54.8991C72.5287 54.6311 72.675 54.3789 72.8051 54.1109C71.5208 54.6784 70.5779 55.8607 69.9276 57.0114C68.9359 58.572 68.8383 59.9907 66.3347 59.8803L68.0742 60.6843C67.0663 61.173 63.1808 60.6055 63.6523 61.3621C63.0508 60.7001 62.433 59.4705 62.2542 58.4301C62.2542 58.6193 62.2704 58.7927 62.3192 58.9818L62.2379 58.7611C62.0753 59.1237 61.929 59.3917 61.7665 59.6124C61.6852 59.7227 61.6039 59.8173 61.5226 59.9119C61.3925 60.0537 61.2625 60.1799 61.1487 60.306C60.6447 60.8262 60.1733 61.1257 59.7506 61.4252C58.8889 62.0399 58.1411 62.6705 57.3608 65.0035L58.3199 65.098C56.9218 69.7325 53.3452 73.9256 50.3864 78.1344C51.1017 80.1521 51.0692 82.5797 52.4836 81.76C54.6296 82.9895 54.8084 80.9088 56.4016 81.4605C56.1415 81.6024 55.6212 81.9019 55.8976 82.2487L58.515 82.2171C58.5475 83.1787 56.4179 81.9492 57.2632 83.9196C60.726 85.3856 62.8557 86.158 64.2376 88.7905C64.644 89.1215 64.9691 89.2949 65.2292 89.3737C65.4406 89.3895 65.5544 89.2792 65.7007 89.1688C65.9608 88.9166 66.2697 88.6013 66.4485 88.2072C66.5623 87.7343 66.6436 87.2772 66.8387 87.1038C66.9362 87.0092 67.05 86.9935 67.2289 87.088C67.3102 87.1353 67.4077 87.1984 67.5215 87.3087C67.5378 87.3087 67.554 87.356 67.5703 87.3875C66.5623 88.5225 65.4568 89.9727 65.9933 90.8397C66.8712 90.225 67.4402 89.1215 68.0092 88.7432L67.0501 91.0762C67.5703 91.4703 68.0092 91.2811 67.6028 93.3776C68.3019 92.6683 68.4644 93.0939 68.692 93.8505C69.1472 93.4407 68.9684 91.5648 68.9196 89.9097C68.8546 88.223 69.0009 86.7885 69.0985 86.2526C68.9684 87.2141 69.0334 87.6082 69.0985 88.0338C69.196 88.8535 69.2773 89.5314 69.3748 90.3353C69.4236 90.7609 69.4724 91.218 69.5374 91.7225L69.4399 91.8328C69.3261 91.9432 69.196 92.0378 69.0659 92.1166C69.2123 92.8417 69.3748 93.3304 69.5211 93.6141C69.9926 94.5599 70.1064 93.488 70.1552 92.9836C70.2365 92.5264 70.2527 92.621 71.2119 96.6407C70.6917 95.8525 70.2039 97.0978 70.7892 99.5254C71.0656 99.2416 71.2932 98.9106 71.472 98.5323C71.7809 99.7303 71.0331 98.7057 71.6996 100.392C71.8784 99.8406 71.976 98.2485 71.7971 96.9717L71.8459 97.2397L72.8539 97.8072C72.8051 97.949 73.1465 99.1786 73.4229 99.5884C73.4716 99.084 73.4716 98.5008 73.4066 97.8702C73.618 98.9106 74.3983 100.771 75.1624 102.158C76.1216 103.734 75.1624 100.881 74.187 98.2958C73.244 95.7579 72.3499 93.4407 73.813 96.9402C73.6992 96.7037 74.0081 97.4446 73.8943 97.2082L74.5609 98.8003C74.821 99.3993 75.0161 99.62 75.2112 100.014C72.4962 93.4249 72.3661 92.7156 72.2036 91.9905C72.0573 91.2811 71.8947 90.5402 69.1797 85.7324C71.3745 89.6102 70.4803 87.7343 73.0815 93.3304C73.6017 94.1658 74.1219 94.9067 74.6259 95.5845C74.8372 96.3096 74.4308 95.7737 74.9673 97.1609C76.1053 98.8633 75.9265 97.7914 75.3087 96.2466C74.6747 94.6702 73.6017 92.621 72.8864 91.3599C73.6505 92.1639 76.9507 97.8545 76.0078 95.1116C75.4388 93.3619 74.4796 92.3688 73.5692 91.2969C72.6588 90.2722 71.7809 89.1846 71.4557 88.5698C72.3662 89.6259 73.2766 90.556 74.187 91.3757C73.114 89.6259 73.049 89.3107 73.2766 89.09C73.5042 88.9008 74.0244 88.8378 74.1707 88.4122C73.9431 88.0654 73.6667 87.8289 73.3741 87.6555C73.9268 87.4348 73.2603 86.5994 72.5612 86.1738C72.2198 85.9373 71.8622 85.7797 71.6508 85.6536C71.6021 85.5905 71.5533 85.6536 71.5208 85.4959C71.4883 85.3225 71.4557 85.1649 71.4395 84.9915C71.407 84.6605 71.4395 84.3452 71.5208 84.0457C72.0898 84.5816 73.0977 82.6112 73.7155 82.296L71.8947 78.0871C72.675 79.9472 74.1707 79.7896 75.6339 80.0733C75.4225 78.7492 74.5609 78.1502 74.3333 77.2516C74.886 77.7876 75.455 78.3236 76.0891 77.5827L73.3904 73.2004C73.1465 73.4842 73.0815 74.0044 73.0327 74.43C72.9677 73.3108 71.8947 70.9305 73.0327 69.2596C73.618 69.3699 74.187 69.9059 74.7722 70.0162C73.1953 71.4507 74.6422 72.1443 75.7802 72.7906M49.5573 80.9561C49.5573 80.9561 49.4598 81.0191 49.3947 81.0664L49.5573 80.9561ZM29.3009 70.1739C30.9103 71.167 32.4548 72.0655 33.9016 72.9009C33.9667 72.4753 34.3568 71.8133 34.8933 71.1512C35.2022 71.2616 35.5111 71.3561 35.82 71.4507C35.9338 71.2615 36.0476 71.0882 36.1777 70.9147C35.8525 70.8832 35.5436 70.8517 35.2022 70.8044C35.5274 70.4418 35.8688 70.0951 36.2102 69.7798C33.9342 69.3857 31.4631 68.8497 31.3167 69.9059C31.6744 70.032 32.1134 70.1896 32.5686 70.3473C30.8453 70.032 29.4147 69.764 29.2846 70.1739M21.725 58.5089C24.8464 60.7631 28.7156 62.8124 32.341 64.3256C34.9584 65.4291 37.462 66.2961 39.6404 66.9581C42.2741 64.3729 44.989 62.0557 45.997 58.9976C45.7369 58.4774 45.5093 58.0518 45.4442 57.9257C46.0295 59.4074 45.1028 60.3533 43.9486 60.8734C42.7618 61.3936 41.1036 61.5197 39.5754 61.4252L39.9005 61.3779C39.3803 60.8892 38.2748 60.4951 37.2831 60.369C36.3077 60.2271 35.5111 60.369 35.9988 60.8577C35.0722 60.3217 35.6249 60.4636 35.9988 60.4005C33.0725 59.4705 34.3731 60.5424 35.9988 61.5197C37.5433 62.5128 39.4453 63.4114 35.8363 62.3394C37.7383 62.4813 35.6249 61.4094 33.2188 60.3848C33.4464 60.7316 33.0563 60.8734 32.6824 61.0153C32.3572 61.173 31.837 61.2675 32.5035 61.6774C33.7228 62.3079 35.3323 62.9227 38.0635 63.7897C36.7954 63.632 38.2261 64.3572 34.2918 63.1119C36.5353 64.2784 38.6 65.2557 40.4695 66.0596C39.6729 65.8074 37.4945 65.1926 37.6245 65.6813C37.5107 65.2399 35.5924 64.4045 34.0317 63.569C32.4873 62.7651 31.3655 62.0242 33.6415 62.5759C28.6343 60.8734 26.781 60.7473 21.725 58.5089ZM48.9558 53.2755C47.9153 55.0725 47.3301 56.8538 47.1838 58.5877C48.1104 58.903 48.4031 60.0537 49.6061 58.9503C45.1841 59.3129 51.9471 53.1809 48.9558 53.2912M50.1101 53.2282C50.0125 52.6134 49.9637 52.0617 50.045 51.6045C49.6386 52.172 49.2809 52.7395 48.9558 53.2912C49.3785 53.3228 49.7524 53.2912 50.1101 53.2282ZM69.83 45.709C69.8138 45.9455 69.83 46.1346 69.83 46.3396C69.9276 46.2923 70.0251 46.245 70.1389 46.2135C70.0251 46.0558 69.9276 45.8824 69.83 45.7248M62.2379 58.1464C62.2379 58.1464 62.2379 58.1621 62.2379 58.1779C62.2379 58.1779 62.2379 58.1621 62.2379 58.1464ZM62.5306 56.8695C62.5306 56.8695 62.5306 56.8853 62.5306 56.9011C62.5468 56.8853 62.5631 56.8538 62.5793 56.8222L62.5468 56.8695H62.5306ZM72.1548 39.3721C71.7971 39.5455 71.0656 41.0115 70.5616 42.5563C70.399 43.0292 70.269 43.5021 70.1552 43.9593C70.3177 43.9593 70.5291 43.9908 70.7729 44.0539C70.9355 44.0223 71.0656 44.0066 71.2281 43.975C71.4395 44.5425 71.6508 45.0942 71.8297 45.6617C71.976 45.6144 72.1223 45.5829 72.2686 45.5356C72.2849 44.8578 72.3499 44.0066 72.3824 43.1553C72.5125 40.9958 72.5938 38.8835 72.1711 39.3721M74.4633 43.6755C74.382 43.8805 74.317 44.1012 74.2195 44.3218C74.1382 44.5741 74.0406 44.842 73.9594 45.11C74.5771 44.9839 75.1624 44.8578 75.6826 44.779C75.7477 44.6213 75.8289 44.448 75.894 44.2588C75.6664 44.1484 75.4388 44.0223 75.1949 43.8805C75.4713 43.9593 75.6989 44.0381 75.959 44.1327C76.024 43.9908 76.0728 43.8332 76.1541 43.6755C76.8857 40.8539 75.6013 43.6598 76.3167 40.8539C76.7231 40.2391 77.4384 39.1514 77.9749 38.0007C78.6252 34.5485 78.17 34.3121 77.4709 35.3682C77.1133 35.9042 76.7231 36.6608 76.3492 37.4805C75.7802 38.9307 75.2762 40.1918 74.9185 40.98L75.4225 40.0184L75.6826 39.5298C75.6826 39.5298 75.7802 39.3406 75.7964 39.3091L75.8452 39.3406C75.959 39.4352 76.0891 39.5613 76.2029 39.6874C74.9348 43.4549 74.821 43.581 74.756 43.4076C74.7234 43.3287 74.7234 43.1711 74.5934 43.4076L74.4796 43.6598M74.187 61.5197C74.187 61.5197 74.0569 61.6774 73.9919 61.7404C74.0569 61.6931 74.1382 61.6459 74.2195 61.6143C74.2195 61.5828 74.2032 61.5513 74.187 61.5197ZM76.0565 59.77C76.0565 59.77 76.0078 59.7385 75.9915 59.7227C75.8777 59.8173 75.7802 59.9119 75.6664 60.0065L76.0565 59.77ZM158.285 37.6224C158.285 37.6224 158.383 37.6224 158.415 37.6381C153.717 40.113 153.701 40.712 153.213 41.5002C144.564 45.2204 141.768 46.9859 139.817 48.6095C138.061 50.0913 137.054 51.4311 134.306 53.1651C134.306 53.1651 132.68 54.505 125.43 54.6627C118.195 54.8203 124.877 53.9691 124.974 53.843C125.218 52.8499 123.43 52.6134 120.081 53.1178C116.765 53.6065 111.887 54.836 106.588 56.3651C107.563 56.2705 108.896 56.239 108.929 56.5385C108.977 56.838 106.978 58.2094 103.369 59.1868C101.808 59.1079 102.67 57.6735 97.8249 59.0449C107.661 55.8607 98.4102 59.5808 107.043 56.6488C107.709 56.1602 105.173 56.7592 104.003 56.9956C107.157 56.2548 110.977 54.7099 113.432 53.8587C115.188 52.771 117.854 51.51 120.764 50.0913C120.52 49.839 120.049 49.6184 118.553 49.6341C119.675 49.177 122.081 48.1681 124.454 47.3642C121.999 47.9001 116.7 49.4607 111.741 51.0844C106.75 52.7238 102.036 54.442 99.7107 55.4193C97.7436 55.6873 101.288 54.1898 97.6786 55.1828C93.1916 57.8153 98.2801 54.7572 91.0457 57.7838C89.0135 58.241 93.9394 56.3651 94.8336 55.7346C93.8582 56.0656 91.1432 57.106 89.3874 57.9099C91.4521 56.8222 94.9311 55.3247 98.8003 53.7641C102.621 52.2036 106.815 50.5957 108.945 49.3346C110.229 48.5464 111.14 47.5218 111.465 46.6864C111.806 45.8509 111.611 45.2046 111.611 45.11C106.766 47.1277 94.671 53.7168 86.8188 58.0045C86.8188 58.2725 86.8188 58.5562 86.8025 58.84C86.7375 60.9365 86.5262 62.8281 84.7704 62.4971L85.0793 62.0399C84.8354 60.7158 84.1689 61.1099 83.6161 61.9296C83.0634 62.7808 82.6244 63.9946 82.8683 64.8931C83.8762 62.9069 86.5262 68.2034 86.8025 63.4429L85.1443 70.7571C86.2335 71.0251 96.1829 64.1995 97.1421 67.9197C94.9474 70.3946 94.8336 75.1078 91.2082 77.9925C91.0782 78.0871 90.9481 80.4359 90.9156 80.5935C90.3954 81.4447 88.0543 80.3098 87.843 80.2782C88.1356 80.8772 87.5341 84.156 87.6642 84.7866C87.7942 85.4802 89.485 85.89 89.7451 86.9777C90.3466 89.5629 90.8181 89.3107 90.6067 90.9028C90.1678 94.1028 89.5337 96.152 90.119 97.2554C89.5012 97.1136 88.8835 96.9559 88.2657 96.7668C91.3708 103.986 91.7447 106.02 90.6718 111.427C90.3629 110.954 89.8101 109.582 89.4199 110.118C90.8506 113.287 92.1674 117.007 91.0294 119.892L90.5417 118.946C90.2816 120.869 89.7776 122.272 89.5012 123.927C87.5179 120.223 87.908 123.454 87.7455 126.024C87.7129 126.67 87.6479 127.285 87.5341 127.789C87.4853 128.041 87.4203 128.278 87.339 128.483C87.2903 128.577 87.2577 128.672 87.1927 128.767C87.1765 128.861 86.9814 128.971 86.9814 128.845C86.8676 128.562 86.6237 128.231 86.2823 127.742C85.9734 127.237 85.5832 126.544 85.1443 125.614C85.3719 126.843 83.421 126.481 82.4456 127.001C82.3156 126.623 82.1205 126.197 81.7791 125.677C81.8604 127.758 80.3647 126.607 78.8853 124.873C77.2271 123.044 75.6989 120.869 74.5609 119.907C73.2766 119.813 74.0732 122.036 75.0648 124.384C74.317 123.029 73.6017 122.099 72.8701 121.421C72.7726 121.326 72.6913 121.279 72.5938 121.169L72.3011 120.727L71.7159 119.892C71.3257 119.356 70.9193 118.851 70.5128 118.363C69.8788 118.174 69.2448 118.063 68.627 117.984C67.993 117.748 67.3589 117.433 66.7899 117.165C65.6357 116.581 64.6765 115.951 64.3351 115.147C61.799 112.183 63.9124 111.647 63.571 109.519C61.8315 108.132 61.5063 109.582 61.1975 110.576C60.9048 111.6 60.4496 111.915 58.3525 108.227C59.0678 108.589 60.2058 109.488 59.9294 108.731C59.0678 107.517 58.5638 104.57 58.3199 102.189C58.0273 99.7776 57.9948 97.9175 56.8243 97.6653C56.8893 98.217 56.9868 98.7687 57.1007 99.352C56.6292 99.1471 56.2228 98.816 55.8651 98.4377C55.5562 98.1067 55.3774 97.7756 55.1823 97.3816C54.8246 96.5934 54.6133 95.6949 54.402 94.8909C53.9793 93.2831 53.5728 92.085 52.0284 93.22L50.9554 94.623C48.9721 89.3895 48.907 93.551 46.6473 88.4752L46.9074 88.3176C45.1354 87.0092 45.6556 84.8023 43.282 85.5905L43.8023 86.4417L43.1195 86.3787L43.1845 86.5521C43.1032 86.489 43.0382 86.426 42.9569 86.3629L42.5342 86.3156C41.1198 88.1757 44.5826 86.9146 43.1845 88.7747C39.0714 87.5767 36.7467 96.5619 32.6336 96.152C34.0642 99.084 35.6086 92.8417 36.7304 95.7422C35.9501 96.0574 35.316 96.0101 34.2105 97.0978L35.9501 97.6653C30.9266 102.788 28.0978 104.097 24.635 109.378L24.4725 108.968C22.5866 110.386 22.1152 111.537 22.7492 113.192C21.8063 113.098 22.4241 111.569 21.3186 111.852C22.6192 117.575 13.9378 116.329 15.0433 120.034C12.3446 117.764 6.52453 120.002 5.56536 116.708L4.94759 118.252C3.37064 116.503 7.92265 114.138 6.49202 112.01L11.5317 109.299C10.7189 108.936 10.1661 107.517 9.41831 108.006C10.1336 106.966 10.6864 106.004 8.67048 106.619C20.7821 100.203 23.5783 86.8516 33.3164 79.0014C33.3326 78.9383 33.3489 78.8911 33.3489 78.8438C33.105 78.6231 32.8449 78.3866 32.6011 78.1502C32.406 78.1186 32.2271 78.1029 32.0483 78.0871C32.1946 78.0714 32.3247 78.0398 32.4385 78.0083C32.3897 77.961 32.3247 77.8979 32.2759 77.8507C30.4226 75.9748 28.7806 73.9256 28.2279 73.2793C30.9428 75.4389 30.9103 74.0201 31.4468 73.2162C28.0165 72.5384 26.6022 71.4349 26.7322 69.6537C22.4891 69.5906 17.7908 69.3542 12.7673 64.767C14.1979 65.5394 15.6611 66.5956 16.1325 66.233C16.6202 65.8705 14.5881 64.8301 13.8728 64.436C14.4255 64.1365 16.5552 65.5394 17.6932 65.2399C14.0679 63.6793 12.621 62.3552 11.5317 61.0626C10.41 59.7385 9.64591 58.4616 6.5733 56.1917C9.64591 57.9257 9.6134 57.1217 11.2554 57.2951C7.77634 56.239 7.82511 55.2932 8.03645 54.6784C8.2478 54.0636 8.4754 53.6223 4.47613 52.7238C4.34607 52.377 4.15098 51.9986 3.92338 51.6045C11.1253 51.8725 17.0755 51.4469 22.4403 51.0686C27.7889 50.7218 32.4873 50.5169 35.3485 51.5573C37.3157 52.5819 38.3236 50.5957 40.1281 50.3908L40.7784 51.7622C42.2416 50.3592 43.1845 50.044 44.1274 49.7287C45.1354 49.4134 46.0783 49.0824 48.9883 47.5533C46.6798 49.4292 48.1755 50.0913 50.4027 51.2578L52.9713 48.0893L53.7029 50.2331C54.0606 49.9336 54.4345 49.7602 54.8246 49.6499C55.8001 48.8617 56.6455 48.6095 57.4421 49.6499C57.7184 49.0036 58.2224 48.5307 58.8402 48.1524C58.6451 47.3327 57.9948 46.844 57.5233 47.0647C59.9619 44.0854 61.6527 41.8627 63.2784 37.0864C64.0912 36.9603 66.7737 32.8145 69.6837 28.921C72.5612 25.0747 75.5526 21.6067 75.7151 24.4914C75.3412 20.992 76.3004 21.6225 78.235 17.2876C78.1537 16.2156 78.0399 15.191 77.8773 14.2295L81.3076 10.0206C82.153 8.55462 82.2993 8.49156 82.1692 8.98023C82.6895 8.46003 81.2751 12.2117 82.3156 11.7231C83.3723 10.4305 84.1364 8.96447 84.933 7.21472C85.3557 6.23739 85.7458 5.33888 86.1848 4.34578C86.4124 3.84135 86.64 3.32116 86.8838 2.76944C87.0139 2.6118 87.1439 2.46993 87.274 2.35959L87.5016 0.862061L87.8267 3.10047C87.8593 4.21967 87.3065 3.7783 86.6725 4.44036C86.5099 4.59799 86.3473 4.81868 86.201 5.14971C86.071 5.38617 85.8271 6.09552 85.7133 6.50537C85.4857 7.37236 85.1931 9.05905 85.0468 11.1871C85.3069 10.4305 86.071 9.02752 86.64 8.66496C87.209 8.28664 87.5666 8.93294 86.9489 11.6442C86.8676 8.09748 85.6158 12.3851 85.1281 15.0491L85.2256 19.5102L87.5016 11.7546C87.8105 18.5959 87.7292 26.3831 87.6479 33.6185C87.6154 37.3071 87.5666 40.8381 87.5991 44.2588C88.9647 43.9435 90.4279 43.5494 92.0048 43.1553C96.4105 42.0204 101.645 40.9485 102.458 42.6982C101.97 42.3672 100.654 42.3041 99.4019 43.0292C102.474 42.6982 104.507 43.1238 106.246 43.4233C108.034 43.7228 109.579 43.8805 112.717 42.9662L115.822 41.1061C121.772 39.9081 126.714 38.9938 130.193 38.8204L135.151 36.5978C137.184 36.7712 143.296 35.715 148.287 35.1475C153.229 34.58 156.871 34.5012 152.01 36.7554C155.213 35.7781 156.839 35.7465 158.155 35.8726C159.505 35.9988 160.48 36.2667 163 35.8254L158.269 37.5909L158.285 37.6224ZM71.7321 60.4636C71.7321 60.4636 71.7321 60.4163 71.6996 60.4005C71.6996 60.4478 71.6996 60.4794 71.7321 60.4636ZM72.8701 97.7756L72.9514 97.8229C72.9514 97.8229 72.8864 97.7441 72.8701 97.7756Z" fill="white"/>
</svg>
