<svg width="200" height="200" viewBox="0 0 200 200" fill="none" xmlns="http://www.w3.org/2000/svg">
<path d="M14.6537 176.893C14.353 176.505 16.3175 177.767 15.1148 179.01C15.0546 178.641 13.7115 177.282 14.6537 176.893ZM26.501 164.388L26.6814 165.184L27.7438 162.311L26.521 164.388H26.501ZM39.8316 156.019C36.7846 154.175 35.3012 159.495 32.2943 160.039L31.4924 159.689L31.8533 162.485C34.4993 160.33 37.3058 156.563 39.8316 156.019ZM50.7768 157.262C49.6542 156.505 51.7189 155.398 48.9125 157.981C49.153 157.981 49.2332 158.019 49.3936 158.058C49.6742 157.864 50.0752 157.612 50.7968 157.262M49.3936 158.058C50.8971 158.35 48.0505 159.01 49.3936 158.058ZM55.4676 153.379L54.2448 155.456C55.0466 155.825 56.7706 154.932 56.4699 155.748C58.0335 154.058 57.2316 153.689 55.4876 153.379M55.9487 150.35L55.2471 151.34C55.5879 151.495 55.9086 151.417 55.9487 150.35ZM53.7837 153.437L55.2671 151.34C54.7058 151.087 54.1044 150.233 54.5254 152.233C54.1646 151.34 54.2648 152.35 53.7837 153.456M52.3604 153.786C50.9372 153.864 49.3535 154.35 50.5964 152.252C47.3088 154.835 49.0729 156.369 52.3604 153.786ZM38.709 152.874L36.8046 152.971L36.2033 154.621C36.504 153.806 39.3505 153.65 38.709 152.874ZM67.9162 147.515C67.6556 146.874 66.2925 146.408 65.671 145.767L64.7489 147.282C65.7111 147.223 67.2747 146.738 67.9362 147.515M65.6911 145.767L67.0743 143.515C65.1699 144.544 65.1498 145.223 65.6911 145.767ZM54.3249 147.223L52.3404 151.359L54.9464 146.777L54.3249 147.204V147.223ZM70.7427 141.612L70.5422 141.728C70.5422 141.728 70.6826 141.65 70.7427 141.612C70.5623 141.495 70.4821 141.476 70.5422 141.728ZM60.6395 145.282C61.2409 143.631 63.1051 141.107 59.7775 141.282C59.6372 142.913 61.5415 142.796 60.6395 145.282ZM68.2169 140.369L65.8114 141.379C66.1321 141.767 66.9339 142.136 66.6332 142.951L68.2169 140.369ZM68.2169 140.369L69.119 140L68.9386 139.204L68.2169 140.369ZM83.933 132.893L95.0987 125.845L95.3393 125.709L94.9584 125.534L95.0987 125.825L83.933 132.893ZM77.6185 139.165C76.9169 139.146 76.1752 139.204 75.4134 139.32C76.2153 139.515 77.7187 139.689 77.6185 139.165ZM80.7658 120.427C81.5876 122 80.0441 124.893 76.8768 124.66C75.5337 127.068 80.1443 131.049 83.7727 132.602C83.4118 131.922 83.0109 131.32 84.5745 129.107C83.2916 128.777 78.5607 130.233 79.4828 127.767C81.8082 125.223 82.1489 126.816 84.0533 126.718C82.8505 126.175 83.3116 124.932 83.7526 123.553C84.2538 122.136 84.7349 120.583 83.3717 119.534C82.8506 120.311 82.2091 121.165 81.5876 122C81.2669 121.612 81.7079 120.369 80.7658 120.427ZM79.6031 135.029L78.8413 135.767C80.0241 135.398 81.1266 135.515 83.2314 135.845C84.2137 134.194 84.1536 133.476 83.933 132.913L79.4628 135.437L79.6231 135.029H79.6031ZM74.8922 138.272C74.5114 136.233 76.1552 134.233 73.7095 133.32C71.2038 135.068 72.7874 135.806 71.725 137.456C75.634 134.427 71.1236 139.107 74.7519 138.097C74.1104 138.893 73.4289 139.437 72.7874 139.942C73.6694 139.67 74.5515 139.437 75.4335 139.301C75.3733 139.301 75.3333 139.282 75.2731 139.262C74.9524 139.184 74.8121 139.087 75.0927 139.087C75.0927 139.068 75.1328 139.029 75.1528 138.99C75.0326 138.757 74.9724 138.505 74.9323 138.272C76.3556 137.845 75.3934 138.563 75.1528 138.99C75.1929 139.068 75.213 139.165 75.2531 139.262H75.2731L78.8614 135.767C77.819 136.097 76.7565 136.854 74.9123 138.272M48.5517 143.495C48.7722 143.553 48.8524 143.67 48.9325 143.786C49.0729 143.417 49.0929 143.223 48.5517 143.495ZM50.9171 143.379C50.7567 143.786 50.9372 144.602 49.8346 145.049C48.6519 145.107 49.3335 144.272 48.9325 143.786C48.6118 144.583 47.6095 146.252 50.015 145.845L50.1554 145.437C52.2001 144.932 55.7081 145.553 55.5678 145.961C54.1044 144.835 52.9819 144.078 50.9171 143.379ZM85.1158 133.32L85.7973 135.301L86.1982 131.65L85.1158 133.32ZM89.7665 130.097L90.5082 131.728L91.9314 129.573L89.7865 130.097H89.7665ZM78.4404 144.544L78.3201 143.728C78.3201 143.942 78.3602 144.214 78.4404 144.544ZM76.1151 141.864L76.4358 143.437C76.3556 142.66 76.2153 142.019 76.1151 141.864ZM80.6655 78.0583C78.28 76.6019 74.6918 74.3495 74.9724 76.2913C75.2531 76.9126 75.5137 77.534 75.7542 78.1553C77.8591 77.6505 79.4427 77.7282 80.6455 78.0583M30.9512 111.709L31.3321 111.262C30.1694 111.068 29.0869 110.874 28.0846 110.718C28.9466 111.029 29.9088 111.359 30.9311 111.709M41.3752 110.602C41.1547 110.971 40.9742 111.379 40.854 111.845C41.1146 111.495 41.295 111.068 41.3752 110.602ZM77.9994 131.748C77.2978 131.301 76.6162 130.932 75.9346 130.602C75.9547 130.932 76.9971 131.282 77.9994 131.748ZM164.158 82.2719C168.708 80.2913 171.555 78.8738 173.379 77.8447C166.884 80.6214 159.527 83.301 164.158 82.2719ZM89.3655 182C89.7264 181.65 89.7464 181.146 89.5259 180.466C89.145 180.718 89.0247 181.184 89.3655 182ZM179.613 73.9029C178.651 74.3301 177.769 74.7184 176.807 75.1262C176.426 75.7476 175.744 76.4854 173.379 77.8447C178.15 75.8252 182.4 73.7282 179.613 73.9029ZM55.5077 122.971C55.3673 123.029 55.2471 123.126 55.0867 123.146C55.2872 123.32 55.3874 123.204 55.5077 122.971ZM9.50185 151.748C9.70232 151.282 10.1634 150.641 10.6044 150.019C10.2636 150.233 9.92282 150.738 9.50185 151.748ZM145.174 78.1359H145.094C144.051 78.6019 144.252 78.5049 145.174 78.1359ZM93.0941 67.2427C93.1342 67.0485 93.1943 66.835 93.2545 66.6214C92.4927 67.9806 92.633 67.9612 93.0941 67.2427ZM61.1005 93.3981C61.1005 93.3981 61.1206 93.3204 61.1406 93.301L61.0404 93.2427L61.1005 93.3981ZM59.8176 94.932C59.4567 92.5631 60.3388 92.7961 61.0604 93.2427C60.419 91.4369 59.6372 89.6505 58.695 87.8835C58.695 90.2718 59.0759 92.6214 59.8176 94.932ZM83.7326 132.563C84.0734 133.922 84.4542 136 84.6347 132.66C84.4342 130.641 84.0533 132.252 83.7326 132.563ZM43.921 100.66C43.6003 101.126 44.0012 101.631 44.6627 102.019C45.224 101.417 45.3042 101.01 43.921 100.66ZM99.4287 30.5631C98.6268 32.699 97.8851 34.6408 99.7093 31.1262L99.4287 30.5631ZM51.298 103.728C50.9572 103.903 50.5162 104.039 50.0551 104.155C50.6365 104.214 51.1176 104.078 51.298 103.728ZM89.4858 124.971L89.5059 124.951C89.3455 124.874 89.2252 124.796 89.1049 124.738L89.4858 124.99V124.971ZM107.046 89.5922C107.487 89.2427 108.309 88.7961 109.211 88.3107C107.808 88.9515 106.846 89.4563 107.046 89.5922ZM84.354 119.825C84.1936 120.233 83.7326 120.252 83.5722 120.66L84.2137 121.437C85.4766 120.563 85.9176 119.32 84.354 119.825ZM106.264 113.301C104.3 112.388 103.298 113.767 101.654 115.184C101.754 115.107 101.854 115.029 101.995 114.971C103.378 117.087 104.981 115.087 106.264 113.282M101.253 115.495C100.732 115.922 100.17 116.33 99.5289 116.641C99.99 117.553 100.411 116.33 101.253 115.495ZM99.4086 110.544C100.231 110.893 101.093 111.243 101.975 111.573C101.734 111.01 101.473 110.466 101.173 109.942L99.4086 110.544ZM110.414 105.709C109.532 106.214 108.81 111.417 108.81 111.845C109.231 111.553 110.113 106.214 110.414 105.709ZM101.874 108.194L103.057 108L104.881 107.049L101.874 108.194ZM147.62 85.4563C147.92 85.0097 146.116 84.7961 144.573 84.5437C140.924 84.5437 134.189 87.5534 134.169 87.9223C135.191 87.9223 144.973 86.2524 147.62 85.4563ZM121.64 91.068C118.172 90.2136 112.419 92.2524 110.434 94.3495C113.2 94.1942 118.092 94.8544 121.64 91.068ZM123.263 80.7379L124.065 80.6408L135.211 75.2427L123.263 80.7379ZM84.7549 94.5825C85.5969 95.5922 85.5768 91.7282 86.4789 93.0097C87.2406 91.8835 85.6771 91.9612 86.2784 90.9903C84.9554 92.2136 84.6948 91.6116 84.7549 94.5825ZM86.2784 90.9903C86.4989 90.7961 86.7395 90.5631 87.0402 90.2524C86.6192 90.5631 86.4188 90.7961 86.2784 90.9903ZM2.52581 156.971L0.380876 158.233L2.52581 157.942V156.971ZM2.72627 162.408L0 161.165L1.36314 163.767C1.5636 163.282 1.94447 162.35 2.72627 162.408ZM83.7526 124.291L83.492 125.029C83.2715 125.883 83.3317 126.019 83.4319 126.291C83.492 125.592 83.5923 124.913 83.7526 124.291ZM87.6817 131.553L87.5614 131.32L90.0872 137.786L87.6817 131.553ZM84.795 123.223C84.6747 123.068 85.3162 124.058 85.1959 123.942C84.6747 123.165 88.3632 128.272 84.795 123.223ZM107.146 78.4854C110.354 76.6602 113.501 74.9515 115.907 73.6699L108.951 75.8835C109.111 75.3786 109.231 74.8932 109.331 74.3884C108.61 74.6019 107.848 74.8932 107.066 75.2233C107.086 76.3107 107.106 77.4175 107.146 78.5049M92.4526 106.68C91.9515 102.874 92.8736 105.709 94.0964 103.806C93.896 101.107 91.3902 100.136 89.8867 100.913C90.1674 99.3786 90.4079 98.3495 90.3277 97.3398C90.3277 97.0874 90.2676 96.835 90.2075 96.5825C90.1473 96.2913 90.0471 96.0388 89.9469 95.9806C89.7264 95.767 89.4056 95.534 88.9245 95.3592C89.7665 95.2816 90.5883 95.2233 91.4303 95.1845C91.1496 94.7573 90.869 94.3884 90.5883 94.0583C91.6107 94.0777 92.6331 94.233 93.6755 94.5243C94.6377 92.0777 92.6531 92.9903 91.3902 93.1456C90.4681 93.7476 89.5459 94.466 88.5436 95.534C88.3231 95.2621 87.9824 94.9903 87.5213 94.7379C87.7819 94.6408 89.2453 93.8058 90.0471 92.3884C88.684 92.6214 89.7865 91.9806 89.566 90.835C89.7264 90.6796 89.9068 90.5243 90.0872 90.3495C90.2275 90.1359 90.448 89.8447 90.7888 89.4369C90.1273 89.5146 89.4056 90.6602 88.7842 91.3981C88.1628 92.1553 87.6215 92.6019 87.3609 92.1359C87.9824 91.3786 88.4835 90.5243 88.8844 89.7087C88.7241 89.9417 88.5837 90.1359 88.4635 90.3107C88.3031 90.233 88.2229 90.0583 88.1628 89.8447C87.7619 90.5243 87.4411 91.1845 87.401 91.4175C87.2206 91.1456 87.5614 90.3107 88.1427 89.2039C88.283 87.3981 89.7264 84.0388 90.6284 83.1845C90.428 83.1845 90.2476 83.2233 90.0471 83.2621C89.6863 83.9223 89.3254 84.5437 89.0047 85.1456C88.2229 86.6019 87.6416 87.8447 87.7017 88.6019C87.0803 89.2233 87.8019 87.6311 88.3632 85.9612C88.9446 84.3495 89.3655 82.6602 88.283 84.5631C88.4434 84.233 88.6238 83.9223 88.7842 83.5922C87.2006 84.2913 86.0379 85.7476 85.236 87.165C84.0132 89.0874 83.8929 90.835 80.8058 90.699L82.9508 91.6893C81.7079 92.2913 76.9169 91.5922 77.4982 92.5243C76.7565 91.7087 75.9948 90.1942 75.7743 88.9126C75.7743 89.1456 75.7943 89.3592 75.8545 89.5922L75.7542 89.3204C75.5538 89.767 75.3734 90.0971 75.1729 90.3689C75.0727 90.5049 74.9724 90.6214 74.8722 90.7379C74.7118 90.9126 74.5515 91.068 74.4111 91.2233C73.7897 91.8641 73.2084 92.233 72.6872 92.6019C71.6247 93.3592 70.7026 94.1359 69.7404 97.0097L70.9231 97.1262C69.1992 102.835 64.789 108 61.1406 113.184C62.0226 115.67 61.9826 118.66 63.7266 117.65C66.3727 119.165 66.5932 116.602 68.5577 117.282C68.2369 117.456 67.5955 117.825 67.9362 118.252L71.1637 118.214C71.2038 119.398 68.5777 117.883 69.6201 120.311C73.8899 122.117 76.516 123.068 78.2199 126.311C78.721 126.718 79.122 126.932 79.4427 127.029C79.7033 127.049 79.8436 126.913 80.024 126.777C80.3448 126.466 80.7257 126.078 80.9462 125.592C81.0865 125.01 81.1867 124.447 81.4273 124.233C81.5476 124.117 81.6879 124.097 81.9084 124.214C82.0086 124.272 82.1289 124.35 82.2692 124.485C82.2893 124.485 82.3093 124.544 82.3294 124.583C81.0865 125.981 79.7234 127.767 80.3849 128.835C81.4674 128.078 82.169 126.718 82.8706 126.252L81.6879 129.126C82.3294 129.612 82.8706 129.379 82.3694 131.961C83.2314 131.087 83.4319 131.612 83.7125 132.544C84.2738 132.039 84.0533 129.728 83.9932 127.689C83.913 125.612 84.0934 123.845 84.2137 123.184C84.0533 124.369 84.1335 124.854 84.2137 125.379C84.334 126.388 84.4342 127.223 84.5545 128.214C84.6146 128.738 84.6747 129.301 84.7549 129.922L84.6347 130.058C84.4943 130.194 84.334 130.311 84.1736 130.408C84.354 131.301 84.5545 131.903 84.7349 132.252C85.3162 133.417 85.4565 132.097 85.5167 131.476C85.6169 130.913 85.637 131.029 86.8197 135.981C86.1782 135.01 85.5768 136.544 86.2985 139.534C86.6393 139.184 86.9199 138.777 87.1404 138.311C87.5213 139.786 86.5992 138.524 87.4211 140.602C87.6416 139.922 87.7618 137.961 87.5413 136.388L87.6015 136.718L88.8443 137.417C88.7842 137.592 89.2052 139.107 89.546 139.612C89.6061 138.99 89.6061 138.272 89.5259 137.495C89.7865 138.777 90.7487 141.068 91.6909 142.777C92.8736 144.718 91.6909 141.204 90.4881 138.019C89.3254 134.893 88.2229 132.039 90.0271 136.35C89.8867 136.058 90.2676 136.971 90.1273 136.68L90.9492 138.641C91.2699 139.379 91.5105 139.65 91.751 140.136C88.4033 132.019 88.2429 131.146 88.0425 130.252C87.8621 129.379 87.6616 128.466 84.3139 122.544C87.0201 127.32 85.9176 125.01 89.125 131.903C89.7665 132.932 90.4079 133.845 91.0294 134.68C91.29 135.573 90.7888 134.913 91.4503 136.621C92.8536 138.718 92.6331 137.398 91.8713 135.495C91.0895 133.553 89.7665 131.029 88.8844 129.476C89.8266 130.466 93.896 137.476 92.7333 134.097C92.0317 131.942 90.8489 130.718 89.7264 129.398C88.6038 128.136 87.5213 126.796 87.1204 126.039C88.243 127.34 89.3655 128.485 90.4881 129.495C89.1651 127.34 89.0849 126.951 89.3655 126.68C89.6462 126.447 90.2877 126.369 90.4681 125.845C90.1874 125.417 89.8466 125.126 89.4858 124.913C90.1674 124.641 89.3455 123.612 88.4835 123.087C88.0625 122.796 87.6215 122.602 87.3609 122.447C87.3008 122.369 87.2407 122.447 87.2006 122.252C87.1605 122.039 87.1204 121.845 87.1003 121.631C87.0602 121.223 87.1003 120.835 87.2006 120.466C87.9022 121.126 89.145 118.699 89.9068 118.311L87.6616 113.126C88.6238 115.417 90.4681 115.223 92.2722 115.573C92.0116 113.942 90.9492 113.204 90.6685 112.097C91.3501 112.757 92.0517 113.417 92.8335 112.505L89.5059 107.107C89.2052 107.456 89.125 108.097 89.0648 108.621C88.9847 107.243 87.6616 104.311 89.0648 102.252C89.7865 102.388 90.4881 103.049 91.2098 103.184C89.2653 104.951 91.0494 105.806 92.4526 106.602M60.1183 116.66C60.1183 116.66 59.998 116.738 59.9178 116.796L60.1183 116.66ZM35.1408 103.379C37.1254 104.602 39.0298 105.709 40.8139 106.738C40.8941 106.214 41.3752 105.398 42.0367 104.583C42.4176 104.718 42.7984 104.835 43.1793 104.951C43.3196 104.718 43.46 104.505 43.6203 104.291C43.2194 104.252 42.8385 104.214 42.4176 104.155C42.8185 103.709 43.2395 103.282 43.6604 102.893C40.854 102.408 37.807 101.748 37.6265 103.049C38.0676 103.204 38.6088 103.398 39.1701 103.592C37.0452 103.204 35.2811 102.874 35.1208 103.379M25.7993 89.0097C29.6482 91.7864 34.4192 94.3107 38.8894 96.1748C42.1169 97.534 45.204 98.6019 47.8901 99.4175C51.1376 96.233 54.4853 93.3786 55.7282 89.6116C55.4074 88.9709 55.1268 88.4466 55.0466 88.2913C55.7683 90.1165 54.6256 91.2815 53.2024 91.9223C51.739 92.5631 49.6943 92.7184 47.81 92.6019L48.2109 92.5437C47.5694 91.9417 46.2063 91.4563 44.9835 91.301C43.7807 91.1262 42.7984 91.301 43.3998 91.9029C42.2572 91.2427 42.9388 91.4175 43.3998 91.3398C39.7915 90.1942 41.3952 91.5146 43.3998 92.7184C45.3042 93.9417 47.6496 95.0485 43.1994 93.7282C45.5448 93.9029 42.9388 92.5825 39.9719 91.3204C40.2526 91.7476 39.7715 91.9223 39.3104 92.0971C38.9095 92.2913 38.268 92.4078 39.0899 92.9126C40.5934 93.6893 42.5779 94.4466 45.9457 95.5146C44.3821 95.3204 46.1461 96.2136 41.295 94.6796C44.0613 96.1165 46.6072 97.3204 48.9125 98.3107C47.9302 98 45.2441 97.2427 45.4044 97.8447C45.2641 97.301 42.8987 96.2718 40.9742 95.2427C39.0699 94.2524 37.6867 93.3398 40.4931 94.0194C34.3189 91.9223 32.0337 91.767 25.7993 89.0097ZM59.3766 82.5631C58.0936 84.7767 57.372 86.9709 57.1915 89.1068C58.3342 89.4951 58.695 90.9126 60.1784 89.5534C54.7259 90 63.065 82.4466 59.3766 82.5825M60.7998 82.5049C60.6796 81.7476 60.6194 81.068 60.7197 80.5049C60.2185 81.2039 59.7775 81.9029 59.3766 82.5825C59.8978 82.6214 60.3588 82.5825 60.7998 82.5049ZM85.1158 73.2427C85.0957 73.534 85.1158 73.767 85.1158 74.0194C85.236 73.9612 85.3563 73.9029 85.4966 73.8641C85.3563 73.6699 85.236 73.4563 85.1158 73.2621M75.7542 88.5631C75.7542 88.5631 75.7542 88.5825 75.7542 88.6019C75.7542 88.6019 75.7542 88.5825 75.7542 88.5631ZM76.1151 86.9903C76.1151 86.9903 76.1151 87.0097 76.1151 87.0291C76.1351 87.0097 76.1552 86.9709 76.1752 86.932L76.1351 86.9903H76.1151ZM87.9824 65.4369C87.5413 65.6505 86.6393 67.4563 86.0178 69.3592C85.8174 69.9417 85.657 70.5243 85.5167 71.0874C85.7171 71.0874 85.9777 71.1262 86.2784 71.2039C86.4789 71.165 86.6393 71.1456 86.8397 71.1068C87.1003 71.8058 87.3609 72.4854 87.5814 73.1845C87.7618 73.1262 87.9423 73.0874 88.1227 73.0291C88.1427 72.1942 88.2229 71.1456 88.263 70.0971C88.4234 67.4369 88.5236 64.835 88.0024 65.4369M90.8289 70.7379C90.7287 70.9903 90.6485 71.2621 90.5282 71.534C90.428 71.8447 90.3077 72.1748 90.2075 72.5049C90.9692 72.3495 91.6909 72.1942 92.3324 72.0971C92.4125 71.9029 92.5128 71.6893 92.593 71.4563C92.3123 71.3204 92.0317 71.165 91.731 70.9903C92.0718 71.0874 92.3524 71.1845 92.6731 71.301C92.7533 71.1262 92.8135 70.932 92.9137 70.7379C93.8158 67.2621 92.2321 70.7184 93.1142 67.2621C93.6153 66.5049 94.4973 65.165 95.1589 63.7476C95.9607 59.4951 95.3994 59.2039 94.5374 60.5049C94.0964 61.1651 93.6153 62.0971 93.1542 63.1068C92.4526 64.8932 91.8312 66.4466 91.3902 67.4175L92.0116 66.233L92.3324 65.6311C92.3324 65.6311 92.4526 65.3981 92.4727 65.3592L92.5328 65.3981C92.6731 65.5146 92.8335 65.6699 92.9738 65.8252C91.4102 70.466 91.2699 70.6214 91.1897 70.4078C91.1496 70.3107 91.1496 70.1165 90.9893 70.4078L90.8489 70.7184M90.4881 92.7184C90.4881 92.7184 90.3277 92.9126 90.2476 92.9903C90.3277 92.932 90.428 92.8738 90.5282 92.835C90.5282 92.7961 90.5082 92.7573 90.4881 92.7184ZM92.7934 90.5631C92.7934 90.5631 92.7333 90.5243 92.7132 90.5049C92.5729 90.6214 92.4526 90.7379 92.3123 90.8544L92.7934 90.5631ZM194.187 63.2816C194.187 63.2816 194.307 63.2816 194.347 63.301C188.554 66.3495 188.534 67.0874 187.932 68.0583C177.268 72.6408 173.82 74.8155 171.414 76.8155C169.249 78.6408 168.006 80.2913 164.619 82.4272C164.619 82.4272 162.614 84.0777 153.673 84.2718C144.753 84.466 152.992 83.4175 153.112 83.2621C153.413 82.0388 151.208 81.7476 147.078 82.3689C142.989 82.9709 136.975 84.4854 130.44 86.3689C131.643 86.2524 133.287 86.2136 133.327 86.5825C133.387 86.9515 130.921 88.6408 126.471 89.8447C124.546 89.7476 125.609 87.9806 119.635 89.6699C131.763 85.7476 120.357 90.3301 131.001 86.7184C131.823 86.1165 128.696 86.8544 127.253 87.1456C131.142 86.233 135.852 84.3301 138.879 83.2815C141.044 81.9417 144.332 80.3883 147.92 78.6408C147.62 78.3301 147.038 78.0583 145.194 78.0777C146.577 77.5146 149.544 76.2718 152.471 75.2816C149.444 75.9417 142.909 77.8641 136.795 79.8641C130.64 81.8835 124.827 84 121.961 85.2039C119.535 85.534 123.905 83.6893 119.455 84.9126C113.922 88.1553 120.196 84.3884 111.276 88.1165C108.77 88.6796 114.844 86.3689 115.947 85.5922C114.744 86 111.396 87.2816 109.231 88.2718C111.777 86.932 116.067 85.0874 120.838 83.165C125.549 81.2427 130.721 79.2621 133.347 77.7087C134.93 76.7379 136.053 75.4757 136.454 74.4466C136.875 73.4175 136.634 72.6214 136.634 72.5049C130.661 74.9903 115.746 83.1068 106.064 88.3884C106.064 88.7184 106.064 89.068 106.044 89.4175C105.964 92 105.703 94.3301 103.538 93.9223L103.919 93.3592C103.618 91.7282 102.796 92.2136 102.115 93.2233C101.433 94.2718 100.892 95.767 101.193 96.8738C102.436 94.4272 105.703 100.951 106.044 95.0874L103.999 104.097C105.342 104.427 117.611 96.0194 118.793 100.602C116.087 103.65 115.947 109.456 111.476 113.01C111.316 113.126 111.156 116.019 111.116 116.214C110.474 117.262 107.587 115.864 107.327 115.825C107.688 116.563 106.946 120.602 107.106 121.379C107.267 122.233 109.352 122.738 109.672 124.078C110.414 127.262 110.995 126.951 110.735 128.913C110.193 132.854 109.412 135.379 110.133 136.738C109.372 136.563 108.61 136.369 107.848 136.136C111.677 145.029 112.138 147.534 110.815 154.194C110.434 153.612 109.752 151.922 109.271 152.583C111.035 156.485 112.659 161.068 111.256 164.621L110.654 163.456C110.334 165.825 109.712 167.553 109.372 169.592C106.926 165.029 107.407 169.01 107.207 172.175C107.166 172.971 107.086 173.728 106.946 174.35C106.886 174.66 106.806 174.951 106.705 175.204C106.645 175.32 106.605 175.437 106.525 175.553C106.505 175.67 106.264 175.806 106.264 175.65C106.124 175.301 105.823 174.893 105.402 174.291C105.022 173.67 104.54 172.816 103.999 171.67C104.28 173.184 101.874 172.738 100.672 173.379C100.511 172.913 100.271 172.388 99.8496 171.748C99.9499 174.311 98.1056 172.893 96.2814 170.757C94.2367 168.505 92.3524 165.825 90.9492 164.641C89.3655 164.524 90.3478 167.262 91.5706 170.155C90.6485 168.485 89.7665 167.34 88.8644 166.505C88.7441 166.388 88.6439 166.33 88.5236 166.194L88.1628 165.65L87.4411 164.621C86.96 163.961 86.4588 163.34 85.9577 162.738C85.1759 162.505 84.3941 162.369 83.6323 162.272C82.8505 161.981 82.0688 161.592 81.3671 161.262C79.9439 160.544 78.7611 159.767 78.3402 158.777C75.213 155.126 77.819 154.466 77.398 151.845C75.2531 150.136 74.8522 151.922 74.4713 153.146C74.1104 154.408 73.5492 154.796 70.9632 150.252C71.8452 150.699 73.2485 151.806 72.9077 150.874C71.8452 149.379 71.2238 145.748 70.9231 142.816C70.5623 139.845 70.5222 137.553 69.0789 137.243C69.1591 137.922 69.2793 138.602 69.4197 139.32C68.8383 139.068 68.3372 138.66 67.8962 138.194C67.5153 137.786 67.2948 137.379 67.0542 136.893C66.6132 135.922 66.3526 134.816 66.092 133.825C65.5708 131.845 65.0697 130.369 63.1653 131.767L61.8422 133.495C59.3966 127.049 59.3164 132.175 56.53 125.922L56.8508 125.728C54.6657 124.116 55.3072 121.398 52.3805 122.369L53.0219 123.417L52.18 123.34L52.2602 123.553C52.16 123.476 52.0798 123.398 51.9796 123.32L51.4584 123.262C49.7143 125.553 53.9842 124 52.2602 126.291C47.1885 124.816 44.3219 135.883 39.2503 135.379C41.0143 138.99 42.9187 131.301 44.3019 134.874C43.3397 135.262 42.5579 135.204 41.1947 136.544L43.3397 137.243C37.1454 143.553 33.6574 145.165 29.3876 151.67L29.1871 151.165C26.8618 152.913 26.2804 154.33 27.0622 156.369C25.8996 156.252 26.6613 154.369 25.2982 154.718C26.9019 161.767 16.1973 160.233 17.5604 164.796C14.2327 162 7.05623 164.757 5.87351 160.699L5.11176 162.602C3.16728 160.447 8.78019 157.534 7.01614 154.913L13.2304 151.573C12.2281 151.126 11.5466 149.379 10.6244 149.981C11.5065 148.699 12.188 147.515 9.70232 148.272C24.6367 140.369 28.0846 123.922 40.0922 114.252C40.1123 114.175 40.1323 114.117 40.1323 114.058C39.8316 113.786 39.5109 113.495 39.2102 113.204C38.9696 113.165 38.7491 113.146 38.5286 113.126C38.709 113.107 38.8694 113.068 39.0097 113.029C38.9496 112.971 38.8694 112.893 38.8093 112.835C36.524 110.524 34.4994 108 33.8178 107.204C37.1655 109.864 37.1254 108.117 37.7869 107.126C33.5572 106.291 31.8132 104.932 31.9735 102.738C26.7415 102.66 20.9482 102.369 14.7539 96.7184C16.518 97.6699 18.3221 98.9709 18.9035 98.5243C19.5049 98.0777 16.9991 96.7961 16.1171 96.3107C16.7986 95.9418 19.4247 97.6699 20.8279 97.301C16.3576 95.3786 14.5735 93.7476 13.2304 92.1553C11.8472 90.5243 10.9051 88.9515 7.11637 86.1553C10.9051 88.2913 10.865 87.301 12.8896 87.5146C8.59978 86.2136 8.65992 85.0485 8.92052 84.2913C9.18112 83.534 9.46176 82.9903 4.53042 81.8835C4.37005 81.4563 4.1295 80.9903 3.84885 80.5049C12.7293 80.8349 20.0662 80.3107 26.6814 79.8447C33.2765 79.4175 39.0699 79.165 42.598 80.4466C45.0236 81.7087 46.2664 79.2621 48.4915 79.0097L49.2934 80.699C51.0975 78.9709 52.2602 78.5825 53.4229 78.1942C54.6657 77.8058 55.8284 77.3981 59.4167 75.5146C56.5701 77.8252 58.4144 78.6408 61.1607 80.0777L64.3279 76.1748L65.23 78.8155C65.671 78.4466 66.1321 78.233 66.6132 78.0971C67.816 77.1262 68.8584 76.8155 69.8406 78.0971C70.1814 77.301 70.8028 76.7184 71.5646 76.2524C71.324 75.2427 70.5222 74.6408 69.9409 74.9126C72.9478 71.2427 75.0326 68.5049 77.0372 62.6214C78.0395 62.466 81.3471 57.3592 84.9353 52.5631C88.4835 47.8252 92.172 43.5534 92.3725 47.1068C91.9114 42.7961 93.0941 43.5728 95.4796 38.233C95.3794 36.9126 95.239 35.6505 95.0386 34.466L99.2683 29.2816C100.311 27.4757 100.491 27.3981 100.331 28C100.972 27.3592 99.2282 31.9806 100.511 31.3786C101.814 29.7864 102.756 27.9806 103.739 25.8252C104.26 24.6214 104.741 23.5146 105.282 22.2913C105.563 21.6699 105.843 21.0291 106.144 20.3495C106.304 20.1553 106.465 19.9806 106.625 19.8447L106.906 18L107.307 20.7573C107.347 22.1359 106.665 21.5922 105.884 22.4078C105.683 22.6019 105.483 22.8738 105.302 23.2816C105.142 23.5728 104.841 24.4466 104.701 24.9515C104.42 26.0194 104.059 28.0971 103.879 30.7184C104.2 29.7864 105.142 28.0583 105.843 27.6116C106.545 27.1456 106.986 27.9417 106.224 31.2816C106.124 26.9126 104.581 32.1942 103.979 35.4757L104.099 40.9709L106.906 31.4175C107.287 39.8447 107.187 49.4369 107.086 58.3495C107.046 62.8932 106.986 67.2427 107.026 71.4563C108.71 71.068 110.514 70.5825 112.459 70.0971C117.891 68.699 124.346 67.3786 125.348 69.534C124.747 69.1262 123.123 69.0485 121.58 69.9417C125.368 69.534 127.874 70.0583 130.019 70.4272C132.224 70.7961 134.128 70.9903 137.997 69.8641L141.826 67.5728C149.163 66.0971 155.257 64.9709 159.547 64.7573L165.661 62.0194C168.167 62.233 175.704 60.932 181.858 60.233C187.952 59.534 192.443 59.4369 186.449 62.2136C190.398 61.0097 192.403 60.9709 194.026 61.1262C195.69 61.2816 196.893 61.6117 200 61.068L194.167 63.2427L194.187 63.2816ZM87.4612 91.4175C87.4612 91.4175 87.4612 91.3592 87.4211 91.3398C87.4211 91.3981 87.4211 91.4369 87.4612 91.4175ZM88.8644 137.379L88.9646 137.437C88.9646 137.437 88.8844 137.34 88.8644 137.379Z" fill="white"/>
</svg>
