<svg width="433" height="321" viewBox="0 0 433 321" fill="none" xmlns="http://www.w3.org/2000/svg">
<path d="M-233.32 571.628C-234.401 570.231 -227.338 574.771 -231.662 579.242C-231.879 577.915 -236.707 573.025 -233.32 571.628ZM-190.729 526.641L-190.08 529.505L-186.261 519.166L-190.657 526.641H-190.729ZM-142.805 496.533C-153.759 489.897 -159.092 509.037 -169.902 510.993L-172.785 509.736L-171.488 519.795C-161.975 512.041 -151.886 498.489 -142.805 496.533ZM-103.457 501.004C-107.493 498.28 -100.07 494.298 -110.16 503.589C-109.295 503.589 -109.007 503.728 -108.43 503.868C-107.421 503.17 -105.98 502.261 -103.385 501.004M-108.43 503.868C-103.025 504.916 -113.258 507.291 -108.43 503.868ZM-86.5941 487.033L-90.9901 494.507C-88.1075 495.835 -81.9098 492.621 -82.9908 495.555C-77.3697 489.478 -80.2523 488.151 -86.522 487.033M-84.8645 476.135L-87.3868 479.698C-86.1617 480.257 -85.0086 479.977 -84.8645 476.135ZM-92.6476 487.242L-87.3147 479.698C-89.3326 478.79 -91.4945 475.716 -89.9812 482.911C-91.2783 479.698 -90.918 483.331 -92.6476 487.312M-97.7643 488.5C-102.881 488.779 -108.574 490.526 -104.106 482.981C-115.925 492.272 -109.583 497.791 -97.7643 488.5ZM-146.841 485.217L-153.687 485.566L-155.849 491.504C-154.768 488.57 -144.535 488.011 -146.841 485.217ZM-41.8413 465.937C-42.7781 463.631 -47.6786 461.955 -49.9126 459.649L-53.2276 465.098C-49.7685 464.889 -44.1474 463.142 -41.7692 465.937M-49.8406 459.649L-44.868 451.546C-51.7143 455.249 -51.7863 457.694 -49.8406 459.649ZM-90.7018 464.889L-97.8363 479.768L-88.4678 463.282L-90.7018 464.819V464.889ZM-31.68 444.7L-32.4006 445.12C-32.4006 445.12 -31.8962 444.84 -31.68 444.7C-32.3286 444.281 -32.6168 444.211 -32.4006 445.12ZM-68.0011 457.903C-65.8391 451.965 -59.137 442.884 -71.0999 443.513C-71.6044 449.381 -64.7582 448.962 -68.0011 457.903ZM-40.7603 440.23L-49.4082 443.862C-48.2551 445.259 -45.3725 446.587 -46.4535 449.52L-40.7603 440.23ZM-40.7603 440.23L-37.5173 438.902L-38.1659 436.038L-40.7603 440.23ZM15.7393 413.335L55.8799 387.978L56.7447 387.489L55.3754 386.86L55.8799 387.908L15.7393 413.335ZM-6.96144 435.899C-9.48374 435.829 -12.1502 436.038 -14.8887 436.457C-12.006 437.156 -6.60111 437.785 -6.96144 435.899ZM4.35288 368.488C7.30758 374.146 1.75853 384.555 -9.62786 383.717C-14.4563 392.379 2.11884 406.699 15.1627 412.287C13.8656 409.843 12.4243 407.677 18.0454 399.713C13.4332 398.526 -3.57435 403.765 -0.259321 394.893C8.10031 385.742 9.32541 391.471 16.1717 391.121C11.8477 389.165 13.5052 384.695 15.0907 379.735C16.8923 374.635 18.6219 369.047 13.7215 365.275C11.8477 368.069 9.54162 371.143 7.30758 374.146C6.15453 372.749 7.73997 368.278 4.35288 368.488ZM0.173083 421.019L-2.56542 423.674C1.68646 422.347 5.65006 422.766 13.217 423.953C16.7482 418.016 16.532 415.431 15.7393 413.405L-0.331375 422.486L0.245137 421.019H0.173083ZM-16.7624 432.685C-18.1316 425.35 -12.2222 418.155 -21.0143 414.872C-30.0225 421.159 -24.3293 423.814 -28.1488 429.751C-14.0959 418.854 -30.3107 435.689 -17.2668 432.057C-19.5729 434.921 -22.0232 436.877 -24.3293 438.693C-21.1584 437.715 -17.9875 436.877 -14.8166 436.388C-15.0328 436.388 -15.1769 436.318 -15.3931 436.248C-16.5462 435.969 -17.0506 435.619 -16.0417 435.619C-16.0417 435.549 -15.8976 435.41 -15.8255 435.27C-16.2579 434.432 -16.4741 433.524 -16.6182 432.685C-11.5016 431.148 -14.9607 433.733 -15.8255 435.27C-15.6814 435.549 -15.6093 435.899 -15.4652 436.248H-15.3931L-2.49334 423.674C-6.24076 424.861 -10.0603 427.586 -16.6903 432.685M-111.457 451.476C-110.664 451.686 -110.376 452.105 -110.088 452.524C-109.583 451.197 -109.511 450.498 -111.457 451.476ZM-102.953 451.057C-103.53 452.524 -102.881 455.458 -106.845 457.065C-111.096 457.274 -108.646 454.271 -110.088 452.524C-111.241 455.388 -114.844 461.396 -106.196 459.929L-105.691 458.462C-98.3408 456.646 -85.7293 458.881 -86.2337 460.348C-91.4945 456.296 -95.5302 453.572 -102.953 451.057ZM19.9912 414.872L22.4414 421.997L23.8827 408.865L19.9912 414.872ZM36.7104 403.276L39.3768 409.144L44.4935 401.39L36.7825 403.276H36.7104ZM-4.00674 455.249L-4.43912 452.315C-4.43912 453.083 -4.29501 454.061 -4.00674 455.249ZM-12.3664 445.609L-11.2133 451.267C-11.5016 448.473 -12.006 446.167 -12.3664 445.609ZM3.99256 216.063C-4.58327 210.824 -17.483 202.721 -16.4741 209.706C-15.4652 211.942 -14.5283 214.177 -13.6636 216.412C-6.09665 214.596 -0.40344 214.876 3.92051 216.063M-174.73 337.123L-173.361 335.516C-177.541 334.818 -181.433 334.119 -185.036 333.56C-181.937 334.678 -178.478 335.866 -174.803 337.123M-137.256 333.141C-138.049 334.468 -138.698 335.935 -139.13 337.612C-138.193 336.354 -137.545 334.818 -137.256 333.141ZM-5.59217 409.214C-8.11447 407.607 -10.5647 406.28 -13.015 405.092C-12.9429 406.28 -9.19546 407.537 -5.59217 409.214ZM304.146 231.222C320.505 224.097 330.739 218.997 337.297 215.295C313.947 225.284 287.499 234.924 304.146 231.222ZM35.2691 590C36.5663 588.743 36.6384 586.926 35.8456 584.481C34.4764 585.39 34.044 587.066 35.2691 590ZM359.709 201.114C356.25 202.651 353.079 204.048 349.62 205.515C348.251 207.75 345.8 210.405 337.297 215.295C354.448 208.03 369.726 200.485 359.709 201.114ZM-86.4499 377.639C-86.9544 377.849 -87.3868 378.198 -87.9633 378.268C-87.2427 378.897 -86.8823 378.477 -86.4499 377.639ZM-251.841 481.165C-251.12 479.488 -249.463 477.183 -247.877 474.948C-249.102 475.716 -250.327 477.533 -251.841 481.165ZM235.9 216.343H235.612C231.865 218.019 232.585 217.67 235.9 216.343ZM48.6733 177.154C48.8175 176.455 49.0336 175.687 49.2498 174.918C46.5113 179.808 47.0158 179.738 48.6733 177.154ZM-66.3436 271.249C-66.3436 271.249 -66.2715 270.97 -66.1995 270.9L-66.5598 270.69L-66.3436 271.249ZM-70.9558 276.768C-72.253 268.245 -69.0821 269.084 -66.4877 270.69C-68.7938 264.194 -71.6044 257.767 -74.9915 251.41C-74.9915 260.002 -73.6222 268.455 -70.9558 276.768ZM15.0186 412.148C16.2437 417.038 17.613 424.512 18.2616 412.497C17.5409 405.232 16.1717 411.03 15.0186 412.148ZM-128.104 297.375C-129.257 299.052 -127.816 300.868 -125.438 302.265C-123.42 300.099 -123.131 298.632 -128.104 297.375ZM71.4461 45.1965C68.5635 52.8807 65.897 59.8662 72.455 47.2224L71.4461 45.1965ZM-101.584 308.412C-102.809 309.041 -104.394 309.53 -106.052 309.949C-103.962 310.159 -102.232 309.67 -101.584 308.412ZM35.7015 384.834L35.7736 384.764C35.197 384.485 34.7646 384.206 34.3322 383.996L35.7015 384.904V384.834ZM98.8311 257.557C100.417 256.3 103.371 254.693 106.614 252.947C101.57 255.252 98.1104 257.068 98.8311 257.557ZM17.2527 366.323C16.6761 367.789 15.0186 367.859 14.4421 369.326L16.7482 372.121C21.2883 368.977 22.8738 364.506 17.2527 366.323ZM96.0205 342.851C88.9581 339.568 85.3548 344.528 79.4454 349.627C79.8057 349.348 80.1661 349.068 80.6705 348.859C85.643 356.473 91.4083 349.278 96.0205 342.781M78.0041 350.745C76.1304 352.282 74.1125 353.749 71.8064 354.866C73.4639 358.149 74.9773 353.749 78.0041 350.745ZM71.3741 332.932C74.3287 334.189 77.4276 335.446 80.5985 336.634C79.7337 334.608 78.7968 332.652 77.7158 330.766L71.3741 332.932ZM110.938 315.538C107.767 317.354 105.173 336.075 105.173 337.612C106.686 336.564 109.857 317.354 110.938 315.538ZM80.2381 324.479L84.49 323.78L91.048 320.358L80.2381 324.479ZM244.692 242.678C245.773 241.072 239.287 240.303 233.738 239.395C220.622 239.395 196.408 250.223 196.336 251.55C200.011 251.55 235.179 245.542 244.692 242.678ZM151.295 262.866C138.828 259.793 118.145 267.128 111.01 274.672C120.955 274.113 138.539 276.488 151.295 262.866ZM157.132 225.703L160.015 225.354L200.084 205.934L157.132 225.703ZM18.694 275.51C21.7207 279.143 21.6487 265.242 24.8916 269.852C27.6301 265.8 22.009 266.08 24.171 262.587C19.4146 266.988 18.4778 264.822 18.694 275.51ZM24.171 262.587C24.9637 261.888 25.8285 261.05 26.9095 259.933C25.3961 261.05 24.6754 261.888 24.171 262.587ZM-276.92 499.956L-284.631 504.497L-276.92 503.449V499.956ZM-276.199 519.516L-286 515.045L-281.1 524.406C-280.379 522.659 -279.01 519.306 -276.199 519.516ZM15.0907 382.389L14.1538 385.044C13.3611 388.117 13.5773 388.606 13.9376 389.584C14.1538 387.07 14.5142 384.625 15.0907 382.389ZM29.2156 408.515L28.7832 407.677L37.8635 430.939L29.2156 408.515ZM18.8381 378.547C18.4057 377.988 20.7118 381.551 20.2794 381.132C18.4057 378.338 31.6658 396.71 18.8381 378.547ZM99.1914 217.6C110.722 211.034 122.036 204.886 130.684 200.276L105.677 208.239C106.254 206.423 106.686 204.677 107.047 202.861C104.452 203.629 101.714 204.677 98.9032 205.864C98.9752 209.776 99.0473 213.758 99.1914 217.67M46.3672 319.03C44.5656 305.339 47.8806 315.538 52.2766 308.692C51.556 298.982 42.5478 295.489 37.1428 298.283C38.1517 292.765 39.0165 289.062 38.7282 285.43C38.7282 284.522 38.5121 283.614 38.2959 282.705C38.0797 281.658 37.7193 280.749 37.359 280.54C36.5663 279.771 35.4132 278.933 33.6836 278.305C36.7104 278.025 39.6651 277.816 42.6919 277.676C41.6829 276.139 40.674 274.812 39.6651 273.624C43.3405 273.694 47.0158 274.253 50.7632 275.301C54.2224 266.499 47.0879 269.782 42.5478 270.341C39.2327 272.507 35.9177 275.091 32.3144 278.933C31.5217 277.955 30.2966 276.977 28.6391 276.069C29.5759 275.72 34.8367 272.716 37.7193 267.617C32.8189 268.455 36.7825 266.15 35.9897 262.028C36.5663 261.469 37.2149 260.911 37.8635 260.282C38.3679 259.513 39.1606 258.466 40.3858 256.999C38.0076 257.278 35.4132 261.399 33.1792 264.054C30.9451 266.778 28.9994 268.385 28.0625 266.708C30.2966 263.984 32.0982 260.91 33.5395 257.977C32.963 258.815 32.4585 259.513 32.0261 260.142C31.4496 259.863 31.1614 259.234 30.9452 258.466C29.5038 260.91 28.3508 263.286 28.2067 264.124C27.5581 263.146 28.7832 260.142 30.8731 256.16C31.3775 249.664 36.5663 237.579 39.8092 234.505C39.0886 234.505 38.44 234.645 37.7193 234.785C36.4221 237.16 35.125 239.395 33.9719 241.561C31.1613 246.8 29.0715 251.27 29.2877 253.995C27.0536 256.23 29.648 250.502 31.6658 244.494C33.7557 238.696 35.2691 232.619 31.3775 239.465C31.9541 238.277 32.6027 237.16 33.1792 235.972C27.486 238.487 23.3062 243.726 20.4235 248.825C16.0275 255.741 15.5951 262.028 4.49702 261.539L12.2081 265.102C7.73997 267.267 -9.48372 264.753 -7.39381 268.106C-10.0602 265.172 -12.7988 259.723 -13.5915 255.112C-13.5915 255.951 -13.5194 256.719 -13.3032 257.557L-13.6636 256.579C-14.3842 258.186 -15.0328 259.374 -15.7534 260.352C-16.1138 260.841 -16.4741 261.26 -16.8344 261.679C-17.411 262.308 -17.9875 262.866 -18.4919 263.425C-20.726 265.731 -22.8159 267.058 -24.6896 268.385C-28.5091 271.109 -31.8241 273.904 -35.2833 284.242L-31.0314 284.661C-37.2291 305.199 -53.0835 323.78 -66.1995 342.432C-63.0286 351.373 -63.1727 362.131 -56.903 358.499C-47.3903 363.947 -46.5976 354.726 -39.5352 357.171C-40.6882 357.8 -42.9943 359.127 -41.7692 360.664L-30.1666 360.525C-30.0225 364.786 -39.4631 359.337 -35.7157 368.069C-20.3657 374.565 -10.9251 377.988 -4.79947 389.654C-2.99783 391.121 -1.55651 391.89 -0.403456 392.239C0.533399 392.309 1.03787 391.82 1.68646 391.331C2.83951 390.213 4.20875 388.816 5.00148 387.07C5.50594 384.974 5.86628 382.948 6.73107 382.18C7.16346 381.761 7.6679 381.691 8.46063 382.11C8.82096 382.319 9.25335 382.599 9.75781 383.088C9.82988 383.088 9.90196 383.297 9.97403 383.437C5.50595 388.467 0.605473 394.893 2.98364 398.736C6.87519 396.011 9.39751 391.121 11.9198 389.445L7.66793 399.783C9.97403 401.53 11.9198 400.691 10.1182 409.982C13.217 406.839 13.9376 408.725 14.9466 412.078C16.9644 410.262 16.1717 401.949 15.9555 394.614C15.6672 387.139 16.3158 380.783 16.7482 378.408C16.1717 382.669 16.4599 384.415 16.7482 386.301C17.1806 389.934 17.5409 392.937 17.9733 396.5C18.1895 398.386 18.4057 400.412 18.694 402.647L18.2616 403.136C17.7571 403.625 17.1806 404.045 16.6041 404.394C17.2527 407.607 17.9733 409.773 18.6219 411.03C20.7118 415.221 21.2163 410.471 21.4325 408.236C21.7928 406.21 21.8649 406.629 26.1167 424.442C23.8106 420.95 21.6487 426.468 24.243 437.226C25.4682 435.968 26.4771 434.502 27.2698 432.825C28.639 438.134 25.324 433.593 28.2787 441.068C29.0714 438.623 29.5038 431.568 28.7111 425.909L28.9273 427.097L33.3954 429.612C33.1792 430.24 34.6926 435.689 35.9177 437.505C36.1339 435.27 36.1339 432.685 35.8456 429.891C36.7825 434.502 40.2416 442.744 43.6287 448.892C47.8806 455.877 43.6287 443.233 39.3048 431.777C35.125 420.53 31.1614 410.262 37.6473 425.77C37.1428 424.722 38.5121 428.005 38.0076 426.957L40.9623 434.013C42.1153 436.667 42.9801 437.645 43.8449 439.391C31.8099 410.192 31.2334 407.048 30.5128 403.835C29.8642 400.691 29.1435 397.408 17.1085 376.102C26.8374 393.287 22.8738 384.974 34.4043 409.773C36.7104 413.475 39.0165 416.758 41.2506 419.762C42.1874 422.975 40.3858 420.6 42.7639 426.748C47.8085 434.292 47.0158 429.542 44.2773 422.696C41.4668 415.71 36.7104 406.629 33.5395 401.041C36.9266 404.603 51.556 429.821 47.3761 417.666C44.8538 409.912 40.602 405.511 36.5663 400.761C32.5306 396.221 28.6391 391.401 27.1977 388.676C31.2334 393.357 35.2691 397.478 39.3048 401.111C34.5484 393.357 34.2602 391.96 35.2691 390.982C36.278 390.143 38.5841 389.864 39.2327 387.978C38.2238 386.441 36.9987 385.393 35.7015 384.625C38.1517 383.647 35.197 379.944 32.0982 378.058C30.5848 377.01 28.9994 376.312 28.0625 375.753C27.8463 375.474 27.6301 375.753 27.486 375.054C27.3419 374.286 27.1977 373.587 27.1257 372.819C26.9815 371.352 27.1257 369.955 27.486 368.628C30.0083 371.003 34.4764 362.271 37.2149 360.874L29.1435 342.222C32.6027 350.465 39.2327 349.767 45.7186 351.024C44.7818 345.156 40.9623 342.502 39.9534 338.52C42.4036 340.895 44.9259 343.27 47.7365 339.987L35.7736 320.567C34.6926 321.825 34.4043 324.13 34.1881 326.016C33.8998 321.056 29.1435 310.508 34.1881 303.103C36.7825 303.592 39.3048 305.967 41.8992 306.456C34.9088 312.813 41.3226 315.887 46.3672 318.751M-69.8748 354.936C-69.8748 354.936 -70.3072 355.215 -70.5955 355.425L-69.8748 354.936ZM-159.669 307.155C-152.534 311.556 -145.688 315.538 -139.274 319.24C-138.986 317.354 -137.256 314.42 -134.878 311.486C-133.509 311.975 -132.14 312.394 -130.77 312.813C-130.266 311.975 -129.761 311.206 -129.185 310.438C-130.626 310.298 -131.995 310.159 -133.509 309.949C-132.068 308.342 -130.554 306.806 -129.041 305.408C-139.13 303.662 -150.084 301.287 -150.733 305.967C-149.147 306.526 -147.201 307.225 -145.184 307.923C-152.822 306.526 -159.164 305.339 -159.741 307.155M-193.251 255.462C-179.415 265.451 -162.263 274.532 -146.192 281.238C-134.59 286.128 -123.492 289.97 -113.835 292.904C-102.16 281.448 -90.1253 271.179 -85.6572 257.627C-86.8103 255.322 -87.8192 253.436 -88.1074 252.877C-85.5131 259.444 -89.6208 263.635 -94.7375 265.94C-99.9983 268.245 -107.349 268.804 -114.123 268.385L-112.682 268.175C-114.988 266.01 -119.888 264.264 -124.284 263.705C-128.608 263.076 -132.14 263.705 -129.978 265.87C-134.085 263.495 -131.635 264.124 -129.978 263.844C-142.949 259.723 -137.184 264.473 -129.978 268.804C-123.131 273.205 -114.7 277.187 -130.698 272.437C-122.267 273.065 -131.635 268.315 -142.301 263.775C-141.292 265.311 -143.022 265.94 -144.679 266.569C-146.12 267.267 -148.426 267.686 -145.472 269.503C-140.067 272.297 -132.932 275.021 -120.825 278.863C-126.446 278.165 -120.105 281.378 -137.545 275.86C-127.599 281.029 -118.447 285.36 -110.16 288.923C-113.691 287.805 -123.348 285.08 -122.771 287.246C-123.276 285.29 -131.779 281.588 -138.698 277.885C-145.544 274.323 -150.516 271.04 -140.427 273.484C-162.623 265.94 -170.839 265.381 -193.251 255.462ZM-72.5412 232.27C-77.1535 240.233 -79.7478 248.127 -80.3964 255.811C-76.2887 257.208 -74.9915 262.308 -69.6586 257.418C-89.2605 259.024 -59.2811 231.851 -72.5412 232.34M-67.4246 232.06C-67.857 229.336 -68.0732 226.891 -67.7128 224.865C-69.5145 227.38 -71.0999 229.895 -72.5412 232.34C-70.6675 232.479 -69.01 232.34 -67.4246 232.06ZM19.9912 198.739C19.9191 199.787 19.9912 200.625 19.9912 201.533C20.4236 201.324 20.8559 201.114 21.3604 200.974C20.8559 200.276 20.4236 199.507 19.9912 198.809M-13.6636 253.855C-13.6636 253.855 -13.6636 253.925 -13.6636 253.995C-13.6636 253.995 -13.6636 253.925 -13.6636 253.855ZM-12.3664 248.197C-12.3664 248.197 -12.3664 248.267 -12.3664 248.336C-12.2943 248.267 -12.2222 248.127 -12.1502 247.987L-12.2943 248.197H-12.3664ZM30.2966 170.657C28.7111 171.426 25.4682 177.922 23.2341 184.768C22.5135 186.864 21.9369 188.959 21.4325 190.985C22.1531 190.985 23.09 191.125 24.171 191.404C24.8916 191.264 25.4682 191.195 26.1888 191.055C27.1257 193.57 28.0625 196.015 28.8552 198.529C29.5038 198.32 30.1524 198.18 30.801 197.971C30.8731 194.967 31.1614 191.195 31.3055 187.422C31.882 177.852 32.2423 168.492 30.3686 170.657M40.5299 189.728C40.1696 190.636 39.8813 191.614 39.4489 192.592C39.0886 193.709 38.6562 194.897 38.2959 196.085C41.0344 195.526 43.6287 194.967 45.9348 194.618C46.2231 193.919 46.5834 193.151 46.8717 192.312C45.8628 191.823 44.8538 191.265 43.7729 190.636C44.998 190.985 46.0069 191.334 47.16 191.753C47.4482 191.125 47.6644 190.426 48.0247 189.728C51.2677 177.224 45.5745 189.658 48.7454 177.224C50.547 174.499 53.7179 169.679 56.0961 164.58C58.9787 149.281 56.9609 148.233 53.8621 152.914C52.2766 155.289 50.547 158.642 48.8895 162.274C46.3672 168.701 44.1332 174.29 42.5478 177.782L44.7818 173.521L45.9348 171.356C45.9348 171.356 46.3672 170.517 46.4393 170.378L46.6555 170.517C47.16 170.937 47.7365 171.495 48.2409 172.054C42.6198 188.75 42.1153 189.309 41.8271 188.54C41.6829 188.191 41.683 187.492 41.1064 188.54L40.602 189.658M39.3048 268.804C39.3048 268.804 38.7282 269.503 38.44 269.782C38.7282 269.573 39.0886 269.363 39.4489 269.223C39.4489 269.084 39.3769 268.944 39.3048 268.804ZM47.5923 261.05C47.5923 261.05 47.3762 260.91 47.3041 260.841C46.7996 261.26 46.3672 261.679 45.8628 262.098L47.5923 261.05ZM412.101 162.903C412.101 162.903 412.533 162.903 412.677 162.973C391.85 173.94 391.778 176.595 389.616 180.088C351.277 196.574 338.882 204.397 330.234 211.592C322.451 218.159 317.983 224.097 305.804 231.781C305.804 231.781 298.597 237.718 266.456 238.417C234.387 239.116 264.006 235.343 264.438 234.785C265.519 230.384 257.592 229.336 242.746 231.571C228.045 233.737 206.425 239.185 182.932 245.961C187.256 245.542 193.165 245.403 193.309 246.73C193.526 248.057 184.661 254.134 168.663 258.466C161.745 258.116 165.564 251.759 144.088 257.837C187.688 243.726 146.683 260.212 184.95 247.219C187.904 245.053 176.662 247.708 171.473 248.756C185.454 245.472 202.39 238.627 213.272 234.854C221.055 230.034 232.873 224.446 245.773 218.159C244.692 217.041 242.602 216.063 235.972 216.133C240.945 214.107 251.611 209.637 262.132 206.074C251.25 208.449 227.757 215.365 205.777 222.56C183.653 229.825 162.753 237.439 152.448 241.77C143.728 242.958 159.438 236.321 143.44 240.722C123.55 252.388 146.106 238.836 114.037 252.248C105.029 254.274 126.865 245.961 130.828 243.167C126.504 244.634 114.469 249.245 106.686 252.807C115.839 247.987 131.261 241.351 148.412 234.435C165.348 227.52 183.941 220.394 193.381 214.806C199.075 211.313 203.11 206.772 204.552 203.07C206.065 199.368 205.2 196.504 205.2 196.085C183.725 205.026 130.108 234.226 95.2999 253.226C95.2999 254.414 95.2999 255.671 95.2278 256.929C94.9395 266.219 94.0027 274.602 86.2196 273.135L87.5888 271.109C86.5079 265.242 83.5532 266.988 81.1029 270.62C78.6527 274.393 76.7069 279.771 77.7879 283.753C82.256 274.951 94.0027 298.423 95.2278 277.327L87.8771 309.74C92.7055 310.927 136.81 280.68 141.062 297.166C131.333 308.133 130.828 329.02 114.758 341.803C114.181 342.222 113.605 352.631 113.46 353.329C111.154 357.102 100.777 352.072 99.84 351.932C101.137 354.587 98.4707 369.117 99.0473 371.911C99.6238 374.985 107.119 376.801 108.272 381.621C110.938 393.077 113.028 391.959 112.091 399.015C110.145 413.196 107.335 422.277 109.929 427.167C107.191 426.538 104.452 425.839 101.714 425.001C115.478 456.995 117.136 466.006 112.379 489.967C111.01 487.871 108.56 481.794 106.83 484.169C113.172 498.21 119.01 514.696 113.965 527.479L111.803 523.288C110.65 531.81 108.416 538.027 107.191 545.362C98.3987 528.946 100.128 543.267 99.4076 554.653C99.2635 557.517 98.9752 560.242 98.4708 562.477C98.2546 563.595 97.9663 564.642 97.606 565.551C97.3898 565.97 97.2456 566.389 96.9574 566.808C96.8853 567.227 96.0205 567.716 96.0205 567.157C95.5161 565.9 94.4351 564.433 92.9217 562.267C91.5524 560.032 89.8229 556.958 87.8771 552.837C88.886 558.286 80.2381 556.679 75.9142 558.984C75.3376 557.308 74.4729 555.421 72.9595 553.116C73.3198 562.337 66.6898 557.238 60.1318 549.554C52.7811 541.45 46.0069 531.81 40.9623 527.549C35.2691 527.13 38.8003 536.98 43.1963 547.388C39.8813 541.38 36.7104 537.259 33.4675 534.255C33.0351 533.836 32.6747 533.627 32.2423 533.138L30.9452 531.182L28.3508 527.479C26.6212 525.104 24.8196 522.869 23.0179 520.703C20.2073 519.865 17.3968 519.376 14.6583 519.027C11.8477 517.979 9.03718 516.582 6.51488 515.394C1.39821 512.81 -2.85369 510.015 -4.36707 506.453C-15.6093 493.32 -6.24078 490.945 -7.75417 481.514C-15.4652 475.367 -16.9065 481.794 -18.2758 486.195C-19.5729 490.735 -21.5908 492.132 -30.8873 475.786C-27.7164 477.393 -22.6718 481.375 -23.8969 478.022C-27.7164 472.643 -29.9504 459.58 -31.0314 449.031C-32.3286 438.344 -32.4727 430.101 -37.6614 428.983C-37.3732 431.428 -36.9408 433.873 -36.4363 436.457C-38.5262 435.549 -40.3279 434.082 -41.9133 432.406C-43.2826 430.939 -44.0753 429.472 -44.9401 427.726C-46.5255 424.233 -47.4624 420.251 -48.3992 416.688C-50.273 409.563 -52.0746 404.254 -58.9208 409.284L-63.6772 415.501C-72.4692 392.309 -72.7574 410.751 -82.7746 388.257L-81.6215 387.559C-89.4767 381.761 -87.1706 371.981 -97.6922 375.474L-95.3861 379.246L-98.4128 378.966L-98.1246 379.735C-98.4849 379.455 -98.7732 379.176 -99.1335 378.897L-101.007 378.687C-107.277 386.93 -91.9269 381.341 -98.1246 389.584C-116.357 384.275 -126.663 424.093 -144.895 422.277C-138.553 435.27 -131.707 407.607 -126.735 420.461C-130.194 421.858 -133.004 421.648 -137.905 426.468L-130.194 428.983C-152.462 451.686 -165.002 457.484 -180.352 480.886L-181.072 479.069C-189.432 485.356 -191.522 490.456 -188.711 497.791C-192.891 497.371 -190.153 490.596 -195.053 491.853C-189.288 517.21 -227.771 511.692 -222.87 528.108C-234.833 518.049 -260.633 527.968 -264.885 513.368L-267.623 520.214C-274.614 512.46 -254.435 501.982 -260.777 492.551L-238.437 480.536C-242.04 478.93 -244.49 472.643 -247.805 474.808C-244.634 470.198 -242.184 465.937 -251.12 468.661C-197.431 440.23 -185.036 381.062 -141.869 346.274C-141.796 345.995 -141.724 345.785 -141.724 345.575C-142.805 344.597 -143.958 343.55 -145.039 342.502C-145.904 342.362 -146.697 342.292 -147.49 342.222C-146.841 342.153 -146.265 342.013 -145.76 341.873C-145.976 341.663 -146.265 341.384 -146.481 341.175C-154.696 332.862 -161.975 323.78 -164.425 320.916C-152.39 330.487 -152.534 324.2 -150.156 320.637C-165.362 317.633 -171.632 312.743 -171.055 304.85C-189.864 304.57 -210.691 303.522 -232.96 283.194C-226.618 286.617 -220.132 291.298 -218.042 289.691C-215.88 288.084 -224.888 283.474 -228.059 281.727C-225.609 280.4 -216.168 286.617 -211.124 285.29C-227.194 278.374 -233.608 272.506 -238.437 266.778C-243.409 260.91 -246.796 255.252 -260.417 245.193C-246.796 252.877 -246.94 249.314 -239.662 250.083C-255.084 245.403 -254.868 241.211 -253.931 238.487C-252.994 235.762 -251.985 233.807 -269.713 229.825C-270.29 228.288 -271.154 226.611 -272.163 224.865C-240.238 226.053 -213.862 224.166 -190.08 222.49C-166.371 220.953 -145.544 220.045 -132.86 224.655C-124.14 229.196 -119.672 220.394 -111.673 219.486L-108.79 225.564C-102.304 219.346 -98.1246 217.949 -93.9448 216.552C-89.4767 215.155 -85.2969 213.688 -72.3971 206.912C-82.6305 215.225 -76.0004 218.159 -66.1274 223.328L-54.741 209.287L-51.4981 218.788C-49.9126 217.46 -48.2551 216.692 -46.5255 216.203C-42.2016 212.71 -38.4542 211.592 -34.9229 216.203C-33.6978 213.339 -31.4638 211.243 -28.7253 209.567C-29.5901 205.934 -32.4727 203.769 -34.5626 204.747C-23.7527 191.544 -16.2579 181.694 -9.05135 160.528C-5.44806 159.969 6.4428 141.597 19.3426 124.343C32.0982 107.298 45.3583 91.9299 46.079 104.713C44.4214 89.2055 48.6733 91.9998 57.2491 72.7895C56.8888 68.0393 56.3844 63.4987 55.6637 59.2375L70.8696 40.5861C74.617 34.0895 75.2656 33.8101 74.6891 35.9756C76.9952 33.6704 70.7255 50.296 75.3377 48.1305C80.0219 42.4023 83.409 35.9058 86.9403 28.1518C88.814 23.8207 90.5435 19.839 92.4893 15.4381C93.4982 13.2027 94.5071 10.8975 95.5881 8.45252C96.1646 7.75397 96.7412 7.12527 97.3177 6.63628L98.3266 0L99.7679 9.91949C99.9121 14.8792 97.4618 12.9233 94.6513 15.8572C93.9306 16.5558 93.21 17.5337 92.5614 19.0007C91.9848 20.0485 90.9039 23.192 90.3994 25.0083C89.3905 28.8503 88.0933 36.3249 87.4447 45.7554C88.5978 42.4023 91.9848 36.1852 94.5072 34.5785C97.0295 32.902 98.6149 35.766 95.8764 47.7812C95.5161 32.0637 89.967 51.0644 87.805 62.87L88.2374 82.6391L98.3266 48.2702C99.6959 78.5875 99.3355 113.096 98.9752 145.16C98.8311 161.506 98.6149 177.154 98.759 192.312C104.813 190.915 111.298 189.169 118.289 187.422C137.819 182.393 161.024 177.643 164.627 185.397C162.465 183.93 156.628 183.65 151.079 186.864C164.699 185.397 173.707 187.283 181.418 188.61C189.346 189.937 196.192 190.636 210.101 186.584L223.865 178.341C250.241 173.032 272.149 168.981 287.571 168.212L309.551 158.363C318.56 159.131 345.656 154.451 367.78 151.936C389.688 149.421 405.831 149.072 384.284 159.061C398.481 154.73 405.687 154.59 411.524 155.149C417.506 155.708 421.83 156.896 433 154.94L412.029 162.763L412.101 162.903ZM28.4228 264.124C28.4228 264.124 28.4228 263.914 28.2787 263.844C28.2787 264.054 28.2787 264.194 28.4228 264.124ZM33.4675 429.472L33.8278 429.682C33.8278 429.682 33.5395 429.332 33.4675 429.472Z" fill="white"/>
</svg>
