<svg width="145" height="121" viewBox="0 0 145 121" fill="none" xmlns="http://www.w3.org/2000/svg">
  <g clip-path="url(#clip0)">
    <path
      d="M89.3254 80.2122C89.3254 84.2451 85.633 85.8425 81.862 85.8425C80.1075 85.8425 78.3005 85.5544 76.6245 85.1093L76.9126 81.4168C78.3529 82.1239 79.8718 82.5429 81.4692 82.5429C82.6476 82.5429 84.507 82.0977 84.507 80.4217C84.507 77.0435 76.4674 79.348 76.4674 73.1154C76.4674 69.3968 79.8194 67.747 83.4333 67.747C85.6068 67.747 87.0209 68.0874 88.4613 68.3755L88.147 71.7537C86.7329 71.2823 85.6854 71.0204 84.0094 71.0204C82.7786 71.0204 81.2859 71.4656 81.2859 72.9321C81.2859 75.7341 89.3254 73.9796 89.3254 80.2122ZM109.673 85.4759H114.308V68.2183H109.673V85.4759ZM136.358 72.9845C136.358 71.518 137.851 71.0728 139.082 71.0728C140.784 71.0728 141.805 71.3347 143.219 71.806L143.533 68.4278C142.093 68.1398 140.679 67.7993 138.506 67.7993C134.892 67.7993 131.54 69.4492 131.54 73.1678C131.54 79.4004 139.579 77.0959 139.579 80.4741C139.579 82.1501 137.72 82.5953 136.541 82.5953C134.944 82.5953 133.425 82.1501 131.985 81.4692L131.697 85.1616C133.399 85.6068 135.18 85.8949 136.934 85.8949C140.705 85.8949 144.398 84.2974 144.398 80.2646C144.398 73.9796 136.358 75.7342 136.358 72.9845ZM96.1604 77.0959H96.2389L102.183 85.4759H108.049L100.638 75.9436L107.185 68.2183H101.738L96.2127 75.1318H96.1342V58.9218L91.499 60.3359V85.4497H96.1342V77.0959H96.1604ZM117.294 85.4759H121.903V58.9218L117.294 60.3359V85.4759ZM124.574 60.3359V85.4497H129.209V58.9218L124.574 60.3359ZM112.082 59.2099C110.668 59.2099 109.516 60.3621 109.516 61.7762C109.516 63.1903 110.668 64.3426 112.082 64.3426C113.496 64.3426 114.649 63.1903 114.649 61.7762C114.649 60.3621 113.496 59.2099 112.082 59.2099ZM26.2137 77.0435C26.2137 72.9321 28.3348 68.166 34.358 68.166C40.3811 68.166 42.5023 72.9583 42.5023 77.0435C42.5023 81.1288 40.3811 85.9211 34.358 85.9211C28.361 85.9473 26.2137 81.155 26.2137 77.0435ZM28.492 77.0435C28.492 81.3383 30.8488 84.2451 34.3841 84.2451C37.9194 84.2451 40.2763 81.3645 40.2763 77.0435C40.2763 72.7488 37.9194 69.842 34.3841 69.842C30.8488 69.8682 28.492 72.7488 28.492 77.0435ZM46.5613 85.4759V77.0959V76.9911C46.5613 73.8748 47.4517 70.13 51.6679 70.13L52.2964 70.1562V70.0777L52.4011 68.0874H52.1654C49.311 68.0874 47.3731 69.1611 46.4042 71.2823V68.5064H44.5187V85.4759H46.5613ZM71.7013 85.4759V82.8571C70.5228 84.9259 68.7159 85.8949 66.0972 85.8949C61.6715 85.8949 58.9218 82.4905 58.9218 77.0173C58.9218 73.0107 60.1788 68.2183 66.0972 68.1398C69.6848 68.0874 71.2823 70.2872 71.7013 70.9942V60.5192L73.6653 59.9169L73.7439 59.8907V85.5021H71.7013V85.4759ZM71.7013 76.9911C71.7013 73.4035 70.0777 69.7896 66.4376 69.7896C61.6715 69.7896 61.1739 74.8176 61.1739 76.9911C61.1739 79.1647 61.6977 84.1927 66.4376 84.1927C70.0777 84.1927 71.7013 80.5788 71.7013 76.9911ZM56.6173 59.8645L56.5387 59.8907L54.5747 60.493V85.4759H56.6173V59.8645ZM24.1448 68.5064C24.1448 68.5064 19.3002 83.1976 19.274 83.2761H19.1168C19.0907 83.1976 14.4555 68.5064 14.4555 68.5064H11.9153C11.9153 68.5064 7.04443 83.1976 7.01824 83.2761H6.86112C6.83493 83.1976 2.22593 68.5064 2.22593 68.5064H2.19975H0L0.0261875 68.585C0.130937 68.8992 5.55174 85.2664 5.60412 85.4235L5.6303 85.4759H8.17049C8.17049 85.4759 12.9366 70.7847 12.9628 70.7062H13.0937C13.1199 70.7847 17.886 85.4759 17.886 85.4759H20.4262L26.1875 68.5064H24.1448ZM140.679 39.3598C146.571 47.2946 136.018 57.2196 136.018 57.2196C164.405 31.5821 116.325 21.7356 116.325 21.7356C113.627 28.3086 105.352 29.7751 105.352 29.7751C158.958 36.0601 131.094 55.884 131.094 55.884C143.979 49.2062 140.679 39.3598 140.679 39.3598ZM131.723 26.1613C135.075 27.8373 137.432 29.4609 138.82 30.5346C139.422 13.3294 127.088 3.69243 127.088 3.69243C126.721 4.79231 125.647 6.02312 124.102 6.59924C122.557 7.17537 121.641 9.00849 121.641 9.00849C127.664 14.0103 130.571 20.1382 131.723 26.1613ZM115.068 22.9402C115.801 21.8403 116.01 21.1071 116.01 21.1071C119.179 21.6832 122.034 22.4165 124.574 23.2545C119.31 8.22286 109.516 0 109.516 0C109.254 0.785624 106.373 2.22593 104.409 3.09012C102.472 3.95431 102.969 7.56818 102.969 7.56818C108.338 11.9939 112.239 17.4147 115.068 22.9402ZM135.232 39.5693C134.577 46.9803 130.178 54.8365 130.178 54.8365C133.294 50.1228 135.415 45.6709 136.777 41.5333C136.384 40.8524 135.861 40.1978 135.232 39.5693ZM134.656 39.0455C133.923 38.417 133.085 37.8409 132.168 37.2909C131.409 45.2519 128.738 51.2489 128.738 51.2489C130.283 49.4943 131.461 46.6922 131.461 46.6922C131.513 48.6825 129.864 52.6368 129.864 52.6368C132.666 48.1064 134.027 42.607 134.656 39.0455ZM101.66 39.7264C100.298 39.674 99.46 40.5382 98.9362 40.8524C98.3863 41.1405 96.9198 41.1143 96.9198 41.1143C102.341 49.8609 117.975 54.5747 117.975 54.5747C116.272 53.6581 113.785 52.663 108.704 48.7349C112.554 51.6417 118.996 53.501 118.996 53.501C104.75 46.2733 101.66 39.7264 101.66 39.7264ZM120.41 54.1033C120.41 54.1033 120.41 54.1295 120.41 54.1033C120.41 54.1295 120.41 54.1295 120.41 54.1033ZM120.41 54.1033C118.708 44.8853 115.12 38.9931 115.12 38.9931C118.917 42.8951 121.536 52.7939 121.536 52.7939C120.698 42.5546 116.456 35.6673 111.585 31.0583C106.871 30.2727 103.388 29.9846 103.388 29.9846C105.274 29.5133 106.871 28.9371 108.259 28.3086C101.607 23.464 94.9819 22.2855 94.9819 22.2855C94.9819 22.2855 93.7511 22.7045 93.5678 24.7472C93.4107 26.7898 91.8133 27.0778 91.8133 27.0778C116.194 33.5461 120.253 53.3439 120.41 54.1033ZM124.626 35.9816C127.088 40.8001 126.774 53.9462 126.774 53.9462C128.031 47.0589 128.083 40.7477 127.35 35.065C124.731 34.0699 121.85 33.2319 119.022 32.5772C122.584 43.6021 122.662 52.9511 122.662 52.9511C125.307 47.7659 124.626 35.9816 124.626 35.9816ZM16.0791 100.246H3.98049V89.6397H1.62362V113.575H3.98049V102.288H16.0791V113.575H18.436V89.6397H16.0791V100.246ZM35.9816 109.464V96.0818H33.808V105.745C33.808 106.478 33.7295 107.211 33.5723 107.945C33.4152 108.678 33.1271 109.359 32.7081 110.014C32.3415 110.642 31.8178 111.14 31.1369 111.532C30.456 111.951 29.618 112.161 28.6229 112.161C27.1564 112.161 26.1089 111.663 25.4542 110.642C24.7995 109.699 24.4591 108.39 24.4591 106.74V96.108H22.2855V107.29C22.2593 109.254 22.7307 110.852 23.6473 112.082C24.59 113.339 26.1089 113.968 28.2563 113.994C29.1728 113.994 29.9585 113.863 30.587 113.627C31.2155 113.418 31.7654 113.156 32.2106 112.816C32.6558 112.449 32.9962 112.056 33.2843 111.637C33.5461 111.244 33.7818 110.852 33.939 110.459H34.0175V113.575H36.1125C36.0078 112.161 35.9554 110.799 35.9816 109.464ZM47.0851 95.689C46.1947 95.689 45.4352 95.7937 44.7806 96.0033C44.1521 96.2127 43.6021 96.5008 43.1569 96.8674C42.7379 97.2079 42.3975 97.6007 42.1356 97.9935C41.8738 98.4125 41.6119 98.8053 41.4024 99.2243H41.3762V96.108H39.2812C39.3598 97.4959 39.4121 98.8839 39.4121 100.219V113.601H41.5857V103.938C41.5857 103.152 41.6643 102.393 41.8476 101.634C42.0047 100.9 42.2928 100.219 42.7118 99.6171C43.4974 98.2816 44.8329 97.6007 46.7708 97.5483C48.2635 97.5745 49.3372 98.0459 49.9919 98.9886C50.6204 99.9837 50.9084 101.293 50.9084 102.969V113.601H53.082V102.393C53.082 100.429 52.6368 98.8315 51.7464 97.6007C50.7775 96.3437 49.2586 95.689 47.0851 95.689ZM68.2707 96.0818H70.4705V112.135C70.4705 114.623 69.8682 116.718 68.6373 118.367C67.3803 120.07 65.233 120.934 62.2476 120.986C61.0954 120.96 60.0479 120.829 59.0789 120.619C58.1362 120.384 57.4291 120.2 56.9577 120.07L57.141 117.896C58.5814 118.682 60.3097 119.074 62.3 119.127C63.6879 119.101 64.7878 118.865 65.5996 118.367C66.4114 117.922 67.0399 117.267 67.4065 116.456C67.8255 115.644 68.0874 114.675 68.1922 113.601C68.2707 112.528 68.3231 111.375 68.3231 110.144H68.2445C67.0137 112.475 65.233 113.627 62.9285 113.575C60.1788 113.496 58.2671 112.528 57.1672 110.616C56.5911 109.752 56.1983 108.809 55.9626 107.814C55.7007 106.819 55.5436 105.824 55.5436 104.828C55.5174 102.105 56.0935 99.9052 57.2196 98.2292C58.3719 96.527 60.205 95.689 62.7452 95.6628C63.8974 95.6628 64.8925 95.7937 65.7567 96.0294C66.5947 96.3437 67.4065 97.0246 68.1922 98.0459H68.2707V96.0818ZM68.2707 104.828C68.2707 102.655 67.9041 100.9 67.1708 99.5909C66.4114 98.2292 65.0497 97.5483 63.0856 97.5221C62.0643 97.5221 61.2263 97.7316 60.5716 98.1768C59.9169 98.5958 59.367 99.1719 58.948 99.9052C58.5814 100.586 58.3195 101.372 58.1362 102.236C57.979 103.1 57.9005 103.964 57.9005 104.855C57.8743 106.635 58.2671 108.207 59.0789 109.542C59.8645 110.956 61.1477 111.69 62.9547 111.742C64.8925 111.69 66.2805 110.93 67.1185 109.49C67.8779 108.049 68.2707 106.504 68.2707 104.828ZM85.8687 113.575H83.7475V110.773H83.669C83.1714 111.794 82.412 112.58 81.3645 113.13C80.3431 113.68 79.2433 113.968 78.1172 113.994C76.9126 113.968 75.9175 113.785 75.158 113.418C74.3724 113.077 73.7963 112.632 73.3773 112.109C72.644 110.956 72.3036 109.935 72.356 109.045C72.356 107.578 72.7226 106.426 73.4296 105.588C74.1105 104.75 75.0009 104.148 76.0746 103.781C77.1483 103.388 78.3267 103.152 79.5837 103.021C80.8145 102.943 82.0191 102.917 83.1452 102.917H83.5642V102.026C83.6428 99.041 82.3072 97.5221 79.5837 97.5221C77.7768 97.4959 76.0484 97.9673 74.451 98.9624V96.8936C76.0746 96.108 77.7768 95.7152 79.5837 95.6628C83.7213 95.6104 85.7639 97.784 85.7116 102.183V109.909C85.6854 111.244 85.7378 112.475 85.8687 113.575ZM83.538 104.776H82.9095C81.9668 104.776 81.024 104.802 80.1075 104.855C79.1123 104.959 78.222 105.143 77.4363 105.431C76.6245 105.693 75.996 106.138 75.5246 106.688C75.0009 107.264 74.739 108.023 74.739 108.992C74.739 110.118 75.1057 110.904 75.8389 111.401C76.5198 111.899 77.384 112.161 78.3791 112.161C79.6361 112.161 80.6312 111.899 81.3645 111.401C82.0715 110.93 82.5953 110.354 82.9095 109.699C83.25 108.992 83.4594 108.285 83.4856 107.604C83.538 106.897 83.5642 106.321 83.5642 105.85V104.776H83.538ZM92.7298 96.8151C91.9704 97.5483 91.3942 98.4387 90.9753 99.46H90.8967V96.108H88.7231C88.8017 97.1031 88.8541 98.3863 88.8541 100.01V113.601H91.0276V104.959C91.0276 104.148 91.1062 103.336 91.2633 102.498C91.3942 101.686 91.6299 100.953 91.9442 100.272C92.2846 99.5647 92.7298 99.0148 93.2798 98.5958C93.8297 98.203 94.5368 97.9935 95.3747 97.9673C95.9509 97.9673 96.4746 98.0459 96.946 98.1768V95.9247C96.5008 95.8199 96.0032 95.7414 95.4271 95.7152C94.3796 95.689 93.4631 96.0818 92.7298 96.8151ZM104.776 110.668H104.75L99.8528 96.0818H97.4959L103.702 113.785L103.257 115.33C102.969 116.482 102.576 117.372 102.131 118.027C101.686 118.734 101.005 119.101 100.115 119.127C99.748 119.127 99.4338 119.101 99.1981 119.022C98.9362 118.97 98.7267 118.917 98.5172 118.839L98.3077 120.698C99.0672 120.881 99.8266 120.96 100.638 120.96C101.267 120.934 101.817 120.777 102.288 120.515C102.76 120.253 103.179 119.912 103.519 119.441C104.2 118.498 104.75 117.398 105.143 116.141L112.135 96.0294H109.883L104.776 110.668Z"
      fill="#fff" />
  </g>
  <defs>
    <clipPath id="clip0">
      <rect width="145" height="120.986" fill="#fff" />
    </clipPath>
  </defs>
</svg>