<svg width="157" height="191" viewBox="0 0 157 191" fill="none" xmlns="http://www.w3.org/2000/svg">
<g clip-path="url(#clip0_846_1971)">
<path fill-rule="evenodd" clip-rule="evenodd" d="M108.821 66.1253C98.5795 54.4631 43.8085 39.8333 43.8085 39.8333C43.8085 39.8333 53.1185 98.1717 61.312 107.502C67.1075 114.101 84.935 110.515 94.8725 107.851C99.235 114.73 102.923 122.347 104.851 130.293C105.516 133.033 108.465 134.394 111.437 133.332C114.41 132.27 116.281 129.188 115.616 126.448C113.389 117.269 109.188 108.679 104.361 101.109C108.764 92.6279 116.462 74.8254 108.821 66.1253ZM170.555 139.417H195V194.187H170.555V184.695C166.6 184.56 162.482 184.454 160.729 184.522C152.348 184.853 146.088 186.796 139.76 188.762C133.856 190.596 127.891 192.449 120.086 193.027C118.124 193.172 116.216 193.359 114.365 193.541C107.682 194.197 101.758 194.779 96.8615 193.027C90.6085 190.789 54.878 173.781 50.4115 169.305C45.9455 164.829 48.1785 152.744 62.024 154.983C68.856 156.086 76.775 159.262 83.9575 162.141C91.331 165.097 97.928 167.741 101.774 167.515C109.367 167.067 129.465 163.486 129.465 163.486L106.389 163.759C106.389 163.759 103.129 163.929 98.648 160.801C94.167 157.674 90.162 148.716 96.8615 148.716C103.561 148.716 110.707 146.479 110.707 146.479L139.291 140.212C139.291 140.212 149.117 138.422 153.137 140.212C155.687 141.348 164.473 144.466 170.555 146.594V139.417ZM176.548 62.1759C176.548 62.1759 135.897 73.1479 128.296 81.8948C123.012 87.9759 127.614 99.9852 130.91 106.741C126.943 113.244 123.467 120.338 121.215 127.732C120.41 130.373 121.886 133.174 124.513 133.987C127.14 134.801 129.921 133.319 130.726 130.677C132.562 124.652 135.373 118.75 138.664 113.193C146.043 115.191 159.258 117.873 163.557 112.927C169.638 105.93 176.548 62.1759 176.548 62.1759ZM97.283 99.4484C99.549 97.8765 100.106 94.7735 98.528 92.5169C89.5565 79.6896 82.427 71.3833 77.4705 66.2339C74.9915 63.6587 73.0545 61.8716 71.7015 60.7035C71.0245 60.119 70.4935 59.6893 70.114 59.393C69.924 59.2446 69.7715 59.1301 69.658 59.046L69.516 58.9424L69.467 58.907L69.4475 58.8936L69.4395 58.8881C69.4375 58.8871 69.4325 58.8826 66.5785 62.9287L69.4325 58.8826C67.1725 57.3022 64.054 57.845 62.467 60.0951C60.885 62.3382 61.421 65.4302 63.6615 67.0156L63.696 67.041C63.74 67.0734 63.824 67.1366 63.947 67.2327C64.1935 67.4244 64.596 67.749 65.1505 68.2275C66.2595 69.1845 67.974 70.7589 70.2515 73.125C74.807 77.8577 81.6115 85.7542 90.3225 98.2086C91.901 100.465 95.017 101.02 97.283 99.4484ZM136.426 99.9797C134.857 102.246 135.413 105.366 137.669 106.948C139.924 108.529 143.024 107.974 144.593 105.707C149.241 98.9913 152.845 94.773 155.216 92.2834C156.401 91.0391 157.278 90.228 157.822 89.7535C158.093 89.516 158.282 89.3631 158.385 89.2819C158.431 89.2456 158.46 89.2237 158.471 89.2152C160.685 87.6189 161.209 84.5209 159.637 82.2718C158.055 80.0092 154.952 79.4625 152.706 81.0504L155.557 85.1288C152.706 81.0504 152.708 81.0489 152.706 81.0504L152.699 81.0554L152.691 81.0608L152.675 81.0723L152.636 81.1002L152.536 81.1744C152.458 81.2321 152.361 81.3068 152.243 81.3999C152.007 81.5851 151.691 81.8441 151.298 82.1871C150.511 82.8738 149.414 83.898 148.029 85.3524C145.26 88.2597 141.334 92.8893 136.426 99.9797Z" fill="white" fill-opacity="0.68"/>
</g>
<defs>
<clipPath id="clip0_846_1971">
<rect width="157" height="191" fill="white" transform="matrix(-1 0 0 1 157 0)"/>
</clipPath>
</defs>
</svg>
