<svg width="127" height="160" viewBox="0 0 127 160" fill="none" xmlns="http://www.w3.org/2000/svg">
<g opacity="0.37" clip-path="url(#clip0_846_1892)">
<path d="M124.282 13.3895C89.09 19.8074 57.4097 38.5941 15.0386 19.6402C15.5922 21.5604 16.1285 23.4863 16.6705 25.4065H6.5794L5.76634 22.5233H0L51.8279 205.605H57.5942L34.4712 123.913H44.5623C45.1908 126.162 45.8367 128.399 46.4652 130.648C88.8305 149.591 120.517 130.804 155.691 124.386C145.231 87.3889 134.754 50.3863 124.282 13.3895ZM56.4871 33.6236C68.4234 33.3583 79.737 30.8961 90.918 27.9552C93.9222 38.5249 96.9092 49.1004 99.9077 59.6701C88.7325 62.611 77.4132 65.0732 65.4653 65.3385C62.4726 54.763 59.4741 44.1933 56.4871 33.6236ZM33.2487 119.588L7.80763 29.7313H17.8987C26.3868 59.6817 34.8576 89.6378 43.3398 119.588H33.2487ZM41.362 92.2096C38.4327 81.8763 35.4976 71.5488 32.5856 61.2155C44.3836 65.546 55.3684 67.0107 65.8747 66.7743C68.7983 77.1076 71.7276 87.4351 74.6453 97.7684C64.1506 98.0048 53.1599 96.5401 41.362 92.2096ZM119.081 127.425C107.906 130.371 96.592 132.828 84.6442 133.087C81.6514 122.512 78.6587 111.942 75.6602 101.372C87.5908 101.107 98.9101 98.6449 110.103 95.704C113.095 106.285 116.094 116.849 119.081 127.425ZM138.617 84.3904C128.647 86.5528 118.931 89.5167 109.088 92.1001C106.158 81.7668 103.229 71.4392 100.317 61.1059C110.154 58.5169 119.894 55.5587 129.841 53.3963C132.759 63.7296 135.688 74.0572 138.617 84.3904ZM133.935 31.4035C134.488 33.3237 135.025 35.2497 135.567 37.1699C140.105 36.4894 144.701 36.0454 149.394 35.9416C152.393 46.5113 155.374 57.0868 158.373 67.6565C153.685 67.7603 149.083 68.2043 144.556 68.8848C147.964 80.896 151.367 92.9131 154.769 104.924C159.295 104.244 163.903 103.8 168.585 103.696C171.589 114.266 174.576 124.841 177.58 135.411C165.644 135.671 154.325 138.139 143.132 141.068C142.434 138.577 141.731 136.109 141.033 133.623C129.397 136.674 117.922 140.255 106.043 142.417C107.294 146.834 108.546 151.234 109.785 155.639C144.966 149.221 176.658 130.435 219 149.377C208.54 112.38 198.051 75.3777 187.579 38.375C167.858 29.5698 150.467 28.9182 133.935 31.4035ZM200.859 105.651C189.061 101.32 178.082 99.8558 167.576 100.092C164.646 89.7589 161.717 79.4314 158.805 69.0981C169.3 68.8617 180.296 70.3263 192.083 74.6569C195 84.9902 197.936 95.3177 200.859 105.651Z" fill="white"/>
</g>
<defs>
<clipPath id="clip0_846_1892">
<rect width="127" height="160" fill="white"/>
</clipPath>
</defs>
</svg>
