<svg width="170" height="183" viewBox="0 0 170 183" fill="none" xmlns="http://www.w3.org/2000/svg">
<path d="M43.3 95.3C43.3 95.3 69.8 90.6 78.4 69.6C78.4 69.6 232.5 101.2 141.5 183.3C141.5 183.3 175.2 151.5 156.4 126.1C156.4 126.1 166.896 157.689 125.721 178.889C125.708 178.897 125.701 178.901 125.7 178.9C125.707 178.896 125.714 178.893 125.721 178.889C127.293 177.928 213.646 115.329 43.3 95.3Z" fill="white" fill-opacity="0.43"/>
<path d="M150.4 97.8C146 94.4 138.5 89.1 127.7 83.8C124 64.5 114.8 44.9 95.4 28.8C95.4 28.8 98.4 22.9 103.3 21.1C108.2 19.3 111.7 15.3 112.8 11.8C112.8 11.8 152.3 42.6 150.4 97.8Z" fill="white" fill-opacity="0.43"/>
<path d="M77.4 67.6C77.4 67.6 76.7 70 74.4 73.5C65.3 55.8 52.8 38.4 35.7 24.3C35.7 24.3 34.1 12.6 40.3 9.89999C46.5 7.09999 55.7 2.5 56.6 0C56.6 0 88 26.4 104.9 74.5C96.7 71.8 87.6 69.4 77.4 67.6Z" fill="white" fill-opacity="0.43"/>
<path d="M122.7 175.8C122.7 175.8 136.8 150.5 138.9 126.8C141 128.8 142.6 130.9 143.9 133.2C139.5 146.4 132.7 160.7 122.7 175.8Z" fill="white" fill-opacity="0.43"/>
<path d="M129.1 119.5C132.1 121.2 134.8 123.1 137.1 125.1C135.1 136.5 130.8 154.2 121.7 168.8C121.7 168.8 127 156.1 126.8 149.7C126.8 149.7 123 158.7 118.1 164.3C118.1 164.3 126.6 145 129.1 119.5Z" fill="white" fill-opacity="0.43"/>
<path d="M53.9 156.2C70.2 168.8 78.1 171.9 83.6 174.9C83.6 174.9 33.5 159.8 16.1 131.8C16.1 131.8 20.9 131.9 22.6 130.9C24.4 129.9 27 127.2 31.4 127.3C31.4 127.3 41.4 148.3 86.9 171.4C86.9 171.4 66.3 165.5 53.9 156.2Z" fill="white" fill-opacity="0.43"/>
<path d="M37 96C37 96 48.1 97 63.2 99.5C78.8 114.3 92.4 136.4 95.1 169.2C95.1 169.2 86.8 137.5 74.6 125C74.6 125 86.1 143.9 91.5 173.5C91.5 173.5 79.5 108 0 86.7C0 86.7 5.10001 85.8 5.60001 79.2C6.20001 72.6 10.1 71.3 10.1 71.3C10.1 71.3 31.3 75.1 52.6 90.6C48.2 92.6 43 94.5 37 96Z" fill="white" fill-opacity="0.43"/>
<path d="M98.7 169.5C98.7 169.5 98.5 139.6 87 104.3C96.1 106.4 105.3 109.1 113.7 112.3C116 130.5 115.8 150.7 111.8 172.8C111.8 172.8 112.8 130.7 104.9 115.3C104.9 115.3 107.2 153.1 98.7 169.5Z" fill="white" fill-opacity="0.43"/>
</svg>
