<svg width="78" height="77" viewBox="0 0 78 77" fill="none" xmlns="http://www.w3.org/2000/svg">
<path d="M38.9888 3.78904e-05C48.0122 -0.00250833 56.7573 3.08382 63.7339 8.73311C70.7104 14.3824 75.4868 22.245 77.249 30.9812C79.0112 39.7174 77.6502 48.7865 73.398 56.6431C69.1457 64.4997 62.2653 70.6576 53.9293 74.0675C45.5932 77.4773 36.3173 77.9282 27.6823 75.3432C19.0472 72.7582 11.5873 67.2973 6.57383 59.8911C1.56034 52.4848 -0.69653 43.5916 0.187813 34.7268C1.07216 25.862 5.04299 17.5742 11.4236 11.2757C15.0386 7.6952 19.335 4.85572 24.0657 2.92061C28.7964 0.985491 33.8681 -0.00706846 38.9888 3.78904e-05ZM48.8626 35.9693L44.2747 38.5439C44.257 38.8763 44.2038 39.2059 44.1161 39.5273C43.7636 40.8014 42.916 41.8866 41.7574 42.547C40.5989 43.2074 39.2231 43.3897 37.9291 43.0541C37.5825 42.9613 37.2465 42.8332 36.9265 42.672L32.0658 45.4032L51.6737 59.6543L48.8626 35.9693ZM29.5403 41.2688L34.217 38.6441C34.1689 38.0779 34.2204 37.5078 34.3693 36.959C34.7217 35.685 35.5693 34.5998 36.7279 33.9394C37.8865 33.2789 39.2623 33.0967 40.5562 33.4322C41.1351 33.5897 41.6824 33.8439 42.1743 34.184L46.3243 31.8349L26.7419 17.5837L29.5403 41.2688ZM60.5131 17.2392C55.538 12.3108 48.9856 9.23823 41.9726 8.54506C34.9596 7.85189 27.9202 9.58107 22.0541 13.4379C16.188 17.2947 11.8583 23.0404 9.80309 29.6957C7.74784 36.351 8.09421 43.5039 10.7832 49.9354C13.4721 56.3668 18.3372 61.6786 24.5492 64.9654C30.7612 68.2523 37.9357 69.3107 44.8497 67.9604C51.7637 66.61 57.9894 62.9344 62.4655 57.56C66.9417 52.1856 69.3913 45.4452 69.3969 38.4875C69.4062 34.5427 68.6263 30.635 67.1017 26.9887C65.5772 23.3423 63.3381 20.0291 60.5131 17.2392Z" fill="white"/>
</svg>
