<svg width="96" height="95" viewBox="0 0 96 95" fill="none" xmlns="http://www.w3.org/2000/svg">
<path fill-rule="evenodd" clip-rule="evenodd" d="M43.5752 26.2841C39.5211 21.6485 17.8409 15.8333 17.8409 15.8333C17.8409 15.8333 21.5261 39.0222 24.7693 42.7308C27.0634 45.354 34.1201 43.9284 38.0537 42.8696C39.7805 45.604 41.2406 48.6317 42.0037 51.7902C42.2668 52.8794 43.4341 53.4203 44.6107 52.9981C45.7873 52.576 46.5279 51.3509 46.2649 50.2619C45.3833 46.6131 43.7202 43.1987 41.8096 40.19C43.5524 36.8186 46.5995 29.7423 43.5752 26.2841ZM68.0116 55.4167H77.6875V77.1875H68.0116V73.4144C66.446 73.3606 64.8158 73.3184 64.1221 73.3457C60.8044 73.477 58.3267 74.2496 55.8217 75.031C53.4847 75.7599 51.1235 76.4964 48.034 76.7262C47.2576 76.7838 46.5022 76.8584 45.7697 76.9306C43.1241 77.1915 40.7792 77.4226 38.841 76.7262C36.3659 75.8365 22.2225 69.0761 20.4546 67.297C18.6868 65.5179 19.5707 60.7143 25.0512 61.6039C27.7555 62.0427 30.8901 63.3048 33.7332 64.4492C36.6519 65.6242 39.2632 66.6754 40.7857 66.5853C43.7911 66.4074 51.7468 64.9842 51.7468 64.9842L42.6123 65.0926C42.6123 65.0926 41.3219 65.1599 39.5482 63.9168C37.7744 62.6737 36.1891 59.1132 38.841 59.1132C41.4929 59.1132 44.3215 58.2237 44.3215 58.2237L55.6362 55.7329C55.6362 55.7329 59.5257 55.0212 61.1167 55.7329C62.1263 56.1844 65.6039 57.4237 68.0116 58.2694V55.4167ZM70.3836 24.7143C70.3836 24.7143 54.2928 29.0756 51.284 32.5524C49.1922 34.9695 51.0139 39.7431 52.3185 42.4284C50.7485 45.0134 49.3724 47.8331 48.4807 50.772C48.1621 51.8219 48.7467 52.9352 49.7864 53.2586C50.8263 53.582 51.9273 52.9928 52.2459 51.9428C52.9725 49.548 54.0851 47.2019 55.388 44.993C58.3087 45.787 63.5398 46.8534 65.2413 44.8873C67.6484 42.106 70.3836 24.7143 70.3836 24.7143ZM39.0079 39.5297C39.9048 38.9049 40.1255 37.6715 39.5007 36.7745C35.9495 31.6758 33.1274 28.3741 31.1654 26.3273C30.1841 25.3037 29.4174 24.5933 28.8818 24.129C28.6139 23.8967 28.4037 23.7259 28.2535 23.6081C28.1783 23.5491 28.1179 23.5036 28.073 23.4702L28.0167 23.429L27.9974 23.4149L27.9896 23.4096L27.9865 23.4074C27.9857 23.407 27.9837 23.4052 26.854 25.0135L27.9837 23.4052C27.0891 22.7771 25.8547 22.9928 25.2265 23.8872C24.6003 24.7788 24.8125 26.0078 25.6993 26.638L25.713 26.6481C25.7304 26.661 25.7637 26.6861 25.8124 26.7243C25.9099 26.8005 26.0693 26.9295 26.2887 27.1197C26.7277 27.5001 27.4064 28.1259 28.3079 29.0664C30.1111 30.9476 32.8046 34.0864 36.2527 39.0369C36.8775 39.9337 38.1109 40.1543 39.0079 39.5297ZM54.5022 39.7409C53.8811 40.6418 54.1012 41.8819 54.994 42.5107C55.8866 43.1393 57.1137 42.9186 57.7347 42.0175C59.5748 39.348 61.0011 37.6713 61.9399 36.6817C62.4089 36.1871 62.7559 35.8647 62.9712 35.6761C63.0787 35.5817 63.1535 35.5209 63.1941 35.4886C63.2125 35.4742 63.2239 35.4655 63.2283 35.4621C64.1045 34.8276 64.3119 33.5962 63.6896 32.7022C63.0636 31.8028 61.8354 31.5855 60.9461 32.2167L62.0746 33.8378C60.9461 32.2167 60.9469 32.2161 60.9461 32.2167L60.9434 32.2187L60.9404 32.2208L60.9339 32.2254L60.9186 32.2365L60.8788 32.266C60.8482 32.2889 60.8096 32.3186 60.7629 32.3556C60.6696 32.4292 60.5446 32.5322 60.389 32.6685C60.0775 32.9415 59.6432 33.3486 59.095 33.9267C57.9988 35.0823 56.4447 36.9225 54.5022 39.7409Z" fill="white"/>
</svg>
