<svg width="78" height="79" viewBox="0 0 78 79" fill="none" xmlns="http://www.w3.org/2000/svg">
<path d="M74.7065 63.6421C74.7753 63.5125 74.833 63.3856 74.8755 63.2451C74.9161 63.1118 74.9375 62.9794 74.9529 62.8384C74.9698 62.685 74.9725 62.537 74.9571 62.3807C74.9504 62.3107 74.9725 62.2448 74.959 62.1743L69.4658 33.7285C69.4459 33.6263 69.3851 33.5472 69.3526 33.4513C69.3212 33.3566 69.3232 33.2581 69.2783 33.166C69.2556 33.1195 69.2133 33.092 69.1879 33.0479C69.1062 32.9044 69.0042 32.7863 68.8952 32.666C68.8075 32.5695 68.7275 32.4722 68.6259 32.3935C68.503 32.2975 68.3679 32.2318 68.2273 32.1633C68.105 32.1036 67.9898 32.043 67.8591 32.0062C67.7274 31.9694 67.593 31.9615 67.4537 31.9496C67.2922 31.9348 67.1365 31.9255 66.9732 31.9467C66.9239 31.9531 66.8787 31.9363 66.8291 31.9458C66.7304 31.9648 66.6546 32.0249 66.5618 32.0558C66.4649 32.0883 66.3636 32.0864 66.2695 32.1333L58.0122 36.1697C59.3307 33.5397 60.4072 30.2724 60.4072 26.5522C60.4072 14.7881 50.8711 5.21094 39.1289 5.14941C39.0996 5.14941 39.0762 5.14941 39.0527 5.14941C39.0293 5.14941 39.0058 5.14941 38.9766 5.14941C27.2314 5.21094 17.6953 14.7881 17.6953 26.5522C17.6953 30.2376 18.7535 33.4791 20.057 36.0981L9.75585 41.1333C9.713 41.1544 9.68773 41.1935 9.6469 41.2168C9.49181 41.304 9.36126 41.4136 9.23143 41.5352C9.14373 41.6174 9.0562 41.6929 8.98351 41.7866C8.89067 41.9066 8.82494 42.0397 8.75719 42.179C8.69219 42.3116 8.63195 42.439 8.59386 42.5815C8.57994 42.634 8.5446 42.6743 8.53417 42.7285L3.041 71.1743C3.02727 71.2459 3.04961 71.3129 3.04283 71.3842C3.02745 71.5372 3.03038 71.685 3.04705 71.8405C3.06371 71.9921 3.09154 72.1332 3.13768 72.2761C3.15984 72.346 3.15215 72.418 3.18163 72.4868C3.21953 72.5751 3.28106 72.6428 3.3283 72.7236C3.37004 72.795 3.40703 72.8642 3.45629 72.9305C3.59673 73.12 3.75859 73.2846 3.94481 73.4181C3.9688 73.4355 3.98564 73.4593 4.01036 73.4756C4.23339 73.6228 4.48296 73.7164 4.74279 73.7768C4.77172 73.7836 4.79296 73.8039 4.82225 73.8096C4.96581 73.8369 5.10662 73.8495 5.2445 73.8499C5.24633 73.8499 5.24816 73.8506 5.24999 73.8506C5.53875 73.8506 5.81688 73.7849 6.07598 73.6816C6.0963 73.6737 6.11754 73.6776 6.13768 73.6689L26.3306 65.0148L51 73.7217C51.017 73.7277 51.034 73.725 51.0511 73.7305C51.2759 73.8043 51.5098 73.8506 51.75 73.8506C52.0261 73.8506 52.2909 73.7849 52.5441 73.6882C52.5749 73.6766 52.6071 73.6819 52.6377 73.6689L73.6377 64.6689C73.7053 64.64 73.7485 64.5833 73.8116 64.5486C73.9457 64.4754 74.0632 64.3926 74.1778 64.2956C74.2892 64.2015 74.3893 64.1068 74.479 63.9949C74.5686 63.8838 74.6393 63.7682 74.7065 63.6421ZM12.7394 44.6832L22.3993 39.9614L26.4875 45.5216L24.9358 60.715L8.26354 67.8603L12.7394 44.6832ZM27.9395 60.8111L29.1335 49.1204L37.2012 60.0928C37.626 60.6699 38.376 61.0098 39.0908 61.0098C39.8057 61.0098 40.4795 60.6685 40.9043 60.0928L48.0723 50.3417L49.9341 68.5739L27.9395 60.8111ZM52.9539 68.6357L50.7182 46.7422L53.0116 43.6223L65.605 37.4662L70.1971 61.246L52.9539 68.6357ZM39.0527 9.64941C48.3516 9.66992 55.9072 17.2446 55.9072 26.5522C55.9072 30.9453 53.9502 34.6514 52.292 37.0054C52.2861 37.0127 52.2803 37.0186 52.2744 37.0259L39.0527 55.0127L25.8779 37.0933C25.8691 37.083 25.8633 37.0728 25.8545 37.0625C24.1846 34.71 22.1953 30.9775 22.1953 26.5522C22.1953 17.2446 29.7539 9.66992 39.0527 9.64941Z" fill="white"/>
<path d="M39.0908 36.0415C44.3145 36.0415 48.5654 31.7847 48.5654 26.5522C48.5654 21.3198 44.3145 17.063 39.0908 17.063C33.8643 17.063 29.6133 21.3198 29.6133 26.5522C29.6133 31.7847 33.8643 36.0415 39.0908 36.0415ZM39.0908 20.063C42.6621 20.063 45.5654 22.9736 45.5654 26.5522C45.5654 30.1309 42.6621 33.0415 39.0908 33.0415C35.5195 33.0415 32.6133 30.1309 32.6133 26.5522C32.6133 22.9736 35.5195 20.063 39.0908 20.063Z" fill="white"/>
</svg>
