<svg width="153" height="153" viewBox="0 0 153 153" fill="none" xmlns="http://www.w3.org/2000/svg">
<path d="M5.84231 0C7.31207 0.330697 8.6716 0.881858 9.62695 2.1679C10.2516 3.01301 10.6558 3.96836 10.7293 5.03394C10.7293 5.54836 10.7293 6.02603 10.7293 6.54045C10.7293 51.1845 10.7293 95.8653 10.7293 140.509C10.7293 140.693 10.7293 140.84 10.7293 141.024C10.7293 141.685 11.0477 142.016 11.6846 142.016C37.8831 142.016 64.0817 142.016 90.2802 142.016C109.13 142.016 127.943 142.016 146.793 142.016C148.813 142.016 150.504 142.604 151.606 144.294C152.157 145.102 152.341 146.168 152.708 147.086V147.821C152.525 148.409 152.414 149.034 152.157 149.585C151.055 151.863 149.144 152.745 146.719 152.745C101.855 152.745 56.9533 152.745 12.0888 152.745C10.2149 152.745 8.30416 152.782 6.43021 152.745C5.5851 152.745 4.66649 152.561 3.89487 152.231C1.21255 151.018 0 148.887 0 145.911C0 99.2457 0 52.6175 0 5.95254C0 5.73208 0 5.51161 0 5.29115C0.146976 3.27022 0.992092 1.72697 2.8293 0.771629C3.49069 0.440932 4.22557 0.257209 4.92371 0.0367449H5.80556L5.84231 0Z" fill="white"/>
<path d="M101.23 45.8934C103.141 43.946 104.978 42.072 106.852 40.1981C117.655 29.3586 128.494 18.5558 139.297 7.7163C140.693 6.32003 142.163 5.32794 144.184 5.51166C146.278 5.69538 147.821 6.72421 148.667 8.59816C149.512 10.5089 149.291 12.3461 148.079 14.0363C147.821 14.4037 147.454 14.7712 147.123 15.1019C134.447 27.7786 121.733 40.4553 109.056 53.1687C106.264 55.9613 102.994 57.0636 99.1355 56.4022C97.2983 56.1082 95.6816 55.2264 94.1751 54.0873C85.43 47.4734 76.6849 40.8962 67.9398 34.319C67.7194 34.172 67.4989 33.9883 67.0212 33.6209C66.8742 33.8781 66.764 34.172 66.5803 34.3925C60.0031 41.5209 53.4626 48.6125 46.8855 55.7408C42.6966 60.2603 38.5078 64.8166 34.319 69.3361C32.7757 70.9896 30.9018 71.6142 28.6971 70.9528C26.713 70.3649 25.4269 69.0054 24.986 66.9477C24.6553 65.331 24.9493 63.7877 26.0516 62.5384C27.852 60.4808 29.726 58.4966 31.5632 56.4757C40.6757 46.5915 49.7882 36.7441 58.9008 26.86C61.2891 24.2879 64.1919 22.9651 67.6826 23.0386C69.924 23.0753 71.9082 23.8837 73.6719 25.2065C80.7635 30.5344 87.8551 35.899 94.9467 41.2269C96.9676 42.7701 98.9885 44.2766 101.156 45.8566L101.23 45.8934Z" fill="white"/>
<path d="M72.5695 94.2486C72.5695 106.007 72.5695 117.802 72.5695 129.56C72.5695 131.948 71.6509 133.822 69.4462 134.888C66.176 136.504 62.1709 134.226 61.877 130.588C61.8402 130.001 61.8035 129.413 61.8035 128.788C61.8035 105.602 61.8035 82.417 61.8035 59.2315C61.8035 57.3575 62.2811 55.704 63.7509 54.418C65.3676 53.0585 67.2416 52.838 69.1523 53.5361C70.9895 54.1975 72.0551 55.6306 72.4593 57.5412C72.5695 58.1292 72.6062 58.7171 72.6062 59.305C72.6062 70.9528 72.6062 82.6007 72.6062 94.2486H72.5695Z" fill="white"/>
<path d="M133.307 97.5556C133.307 86.8998 133.307 76.2073 133.307 65.5515C133.307 63.7143 133.785 62.0975 135.255 60.9217C136.872 59.5989 138.709 59.3417 140.656 60.0766C142.567 60.7747 143.633 62.2445 143.963 64.2654C144.037 64.7431 144.074 65.2575 144.074 65.7352C144.074 86.9733 144.074 108.175 144.074 129.413C144.074 131.397 143.559 133.124 141.942 134.336C140.326 135.549 138.525 135.806 136.651 135.035C134.777 134.263 133.712 132.793 133.418 130.809C133.344 130.331 133.344 129.817 133.344 129.302C133.344 118.72 133.344 108.175 133.344 97.5923L133.307 97.5556Z" fill="white"/>
<path d="M108.285 106.742C108.285 114.421 108.285 122.064 108.285 129.743C108.285 132.462 106.852 134.447 104.39 135.181C101.23 136.137 97.8862 133.859 97.5923 130.552C97.5923 130.295 97.5923 130.001 97.5923 129.743C97.5923 114.421 97.5923 99.0988 97.5923 83.7765C97.5923 81.5351 98.4741 79.8082 100.458 78.7426C103.839 76.9054 107.991 79.2203 108.285 83.0416C108.285 83.4091 108.285 83.7765 108.285 84.144C108.285 91.6765 108.285 99.209 108.285 106.778V106.742Z" fill="white"/>
<path d="M36.7808 112.069C36.7808 117.912 36.7808 123.754 36.7808 129.596C36.7808 131.764 36.0459 133.528 34.1719 134.63C30.6078 136.725 26.272 134.336 26.0515 130.184C26.0515 130.001 26.0515 129.854 26.0515 129.67C26.0515 117.985 26.0515 106.337 26.0515 94.6528C26.0515 92.3011 27.0069 90.5007 29.138 89.4351C32.4817 87.7816 36.5603 90.1332 36.744 93.8444C36.8543 95.9755 36.7808 98.1067 36.7808 100.275C36.7808 104.206 36.7808 108.138 36.7808 112.069Z" fill="white"/>
</svg>
