<svg width="206" height="205" viewBox="0 0 206 205" fill="none" xmlns="http://www.w3.org/2000/svg">
<path d="M102.89 2.46822C158.337 2.35799 203.275 47.1858 203.458 102.89C203.642 158.226 158.52 203.495 103.074 203.532C47.6267 203.569 2.46828 158.484 2.50503 103.073C2.50503 47.443 47.2593 2.6152 102.89 2.46822ZM123.871 194.897C123.687 193.978 123.613 193.39 123.503 192.876C120.564 180.824 119.866 168.735 123.136 156.646C125.487 147.864 129.97 140.111 134.637 132.395C144.668 115.787 147.203 98.6642 137.099 81.0638C136.033 79.1898 136.29 77.5364 137.944 76.581C139.707 75.5889 141.434 75.9931 142.61 78.014C147.975 87.347 150.731 97.2679 149.702 108.107C148.636 119.388 144.153 129.419 138.127 138.825C130.779 150.253 126.406 162.599 127.361 176.341C127.766 181.963 128.905 187.548 129.75 193.28C170.389 181.412 203.826 140.405 196.367 88.7433C189.679 42.409 147.681 7.28169 101.494 8.64122C52.6974 10.111 12.9036 47.002 8.97198 94.5121C4.70967 146.431 40.7923 183.653 75.8462 192.986C76.1034 192.251 76.3973 191.516 76.6178 190.745C81.2843 172.189 78.2346 155.03 68.0932 138.789C64.1616 132.505 60.8914 125.634 58.5397 118.616C53.8732 104.764 56.0044 91.3521 63.0593 78.6387C64.1616 76.6912 65.6313 75.4052 67.7625 76.434C70.1876 77.6098 69.8569 79.5205 68.6444 81.6517C64.0513 89.6619 61.9569 98.26 62.7286 107.52C63.6472 118.175 68.0932 127.398 73.715 136.253C82.6806 150.363 86.7959 165.612 84.4076 182.367C83.8197 186.556 83.0113 190.671 82.2764 195.007C96.2024 198.167 109.834 198.204 123.907 194.97L123.871 194.897Z" fill="white"/>
<path d="M121.629 126.296C121.629 135.151 116.669 143.088 109.357 145.917C102.596 148.563 95.247 146.799 90.0661 141.324C82.6438 133.461 82.3866 120.196 89.4415 111.855C96.0554 104.029 107.152 103.147 114.648 109.981C119.425 114.317 121.629 119.902 121.593 126.332L121.629 126.296ZM89.6987 125.818C89.9559 125.965 90.1764 126.112 90.4336 126.259C90.6908 127.839 90.7643 129.492 91.2419 130.999C92.8587 135.849 95.7247 139.634 101.016 140.626C105.94 141.581 109.761 139.413 112.59 135.445C116.779 129.676 116.265 120.931 111.525 115.603C106.674 110.165 98.8847 110.018 94.4754 115.824C92.2708 118.69 91.2419 122.438 89.6987 125.781V125.818Z" fill="white"/>
<path d="M93.0424 66.6601C93.8507 63.2062 94.2549 60.6341 95.1368 58.209C95.9084 56.0778 95.3205 54.755 93.6303 53.5057C91.5726 51.9625 89.6252 50.2355 87.6042 48.582C87.7145 48.2513 87.8247 47.9574 87.9349 47.6267C90.3968 47.4797 92.8586 47.1858 95.3205 47.2593C97.5986 47.296 98.9214 46.7081 99.6196 44.3197C100.354 41.7844 101.567 39.4328 102.963 36.0156C104.36 39.3225 105.609 41.8211 106.454 44.43C107.152 46.5979 108.365 47.2593 110.496 47.1858C112.994 47.149 115.493 47.4062 117.992 47.5165L118.433 48.4718C116.375 50.162 114.391 51.9257 112.26 53.5425C110.68 54.7183 110.128 55.9676 110.826 57.9518C111.672 60.4136 112.149 63.0225 112.994 66.4764C110.937 65.3373 109.43 64.8229 108.365 63.8308C104.654 60.4504 101.2 60.5606 97.5619 63.9411C96.5331 64.8964 95.1 65.4108 93.0424 66.6234V66.6601Z" fill="white"/>
<path d="M77.463 55.1592C75.3686 56.9964 74.0458 58.5396 72.3556 59.5685C69.8937 61.075 69.71 62.9489 70.5551 65.4108C71.1797 67.2112 71.5472 69.1219 72.2821 72.0247C68.6811 69.8201 65.9988 68.1666 63.3533 66.5498C60.524 68.2401 57.8416 69.8568 55.1593 71.5103C54.8286 71.4736 54.4612 71.4001 54.1305 71.3633C57.9519 64.3819 56.6658 59.0173 49.1333 55.2694C57.1435 56.041 61.957 53.2852 62.6919 44.9811C63.0226 45.1281 63.3165 45.275 63.6472 45.4588C64.4188 47.296 65.4477 49.0229 65.9621 50.9336C66.6235 53.4322 67.983 54.4978 70.5551 54.5345C72.576 54.5345 74.5969 54.902 77.4997 55.1959L77.463 55.1592Z" fill="white"/>
<path d="M128.831 54.6448C136.915 56.3717 141.03 52.6606 142.133 44.8708C142.39 45.0913 142.684 45.3118 142.941 45.5322C143.455 46.6346 144.19 47.7369 144.374 48.9127C145.219 53.7997 148.453 55.0122 152.788 54.8285C153.891 54.7917 154.956 55.0122 156.94 55.1959C154.699 57.1066 153.156 58.5764 151.429 59.7889C149.592 61.075 148.82 62.3978 149.739 64.7126C150.51 66.6968 150.767 68.8647 151.502 71.9145C148.82 70.2977 146.762 69.2322 144.925 67.8726C143.308 66.6968 142.022 66.5866 140.369 67.8359C138.568 69.1954 136.547 70.261 133.681 72.0247C134.453 68.975 134.894 66.8805 135.519 64.8596C136.18 62.7652 135.96 61.1852 133.939 59.8624C132.175 58.6866 130.705 57.1434 129.088 55.7471C128.978 55.3796 128.905 55.0122 128.794 54.6448H128.831Z" fill="white"/>
<path d="M103.073 204.487C46.7448 204.487 0.888184 158.667 0.888184 102.339C0.888184 46.01 46.708 0.153381 103.073 0.153381C159.439 0.153381 205.222 45.9732 205.222 102.339C205.222 158.704 159.402 204.487 103.073 204.487ZM103.073 9.70684C51.9992 9.70684 10.4784 51.2644 10.4784 102.302C10.4784 153.339 52.0359 194.897 103.073 194.897C154.111 194.897 195.669 153.339 195.669 102.302C195.669 51.2644 154.111 9.70684 103.073 9.70684Z" fill="white"/>
</svg>
