<svg width="207" height="204" viewBox="0 0 207 204" fill="none" xmlns="http://www.w3.org/2000/svg">
<path d="M0.389623 55.9309C0.0589267 50.8602 4.50496 45.7528 10.4575 45.863C12.1477 45.863 13.2868 45.3486 14.4259 44.1728C19.1291 39.3593 23.9058 34.5459 28.7193 29.8794C30.2258 28.4464 30.9239 27.0133 30.9239 24.8822C30.9974 19.4073 35.6272 14.998 41.0653 15.4022C43.7844 15.6227 46.283 16.5045 48.3039 18.7827C51.2434 22.1264 54.3299 25.3598 57.7471 28.1891C60.7969 30.7245 61.9727 36.2728 60.7969 39.2858C59.2536 43.1807 55.616 45.7161 51.0964 45.8263C50.4718 45.8263 49.8471 45.8263 49.2225 45.8263C48.2304 45.8263 47.716 46.5612 47.3118 47.2226C46.8709 47.9574 47.7527 48.2881 48.1569 48.6923C57.6369 58.209 67.0434 67.7625 76.6703 77.0955C79.6833 80.035 81.2633 83.048 80.6019 87.3103C79.5731 93.961 71.0852 98.6643 64.5448 93.8875C63.4792 93.1159 62.4871 92.2341 61.5685 91.2787C52.5662 82.2764 43.6374 73.2374 34.6351 64.2718C33.937 63.6104 33.4225 62.2141 32.2835 62.6183C30.9607 63.096 30.8872 64.4555 30.8872 65.7783C30.7402 71.2899 27.8374 74.8174 23.4282 75.9932C20.1212 76.8383 17.0347 76.3239 14.5361 73.9722C10.531 70.1509 6.59937 66.1825 2.74124 62.1774C1.08776 60.4504 0.132413 58.2458 0.46311 55.9309H0.389623ZM74.2085 85.4731C74.2452 83.9299 73.2899 82.9378 72.2978 81.9457C63.5527 73.2006 54.8076 64.4555 46.0625 55.7104C42.5351 52.183 42.6086 52.2565 38.9341 55.7104C37.5746 57.0332 37.5011 57.8049 38.9341 59.1644C48.3406 68.4239 57.6369 77.7936 66.9699 87.1266C67.521 87.6778 68.0722 88.2289 68.6968 88.5964C71.1219 90.0294 74.2085 88.2289 74.2452 85.4364L74.2085 85.4731ZM42.4983 42.3723C42.4983 42.3723 42.3513 42.0049 42.2044 41.8947C39.7058 39.3961 37.2072 36.8607 34.6718 34.3989C34.1207 33.8477 33.5328 34.1417 33.0184 34.6193C28.4621 39.1756 23.9058 43.7319 19.3128 48.2881C18.7984 48.8026 18.6147 49.1333 19.3128 49.7946C21.7012 52.036 24.0161 54.3142 26.2574 56.6658C27.2495 57.6946 27.8742 57.5476 28.7928 56.5923C33.0551 52.2198 37.3909 47.9207 41.6532 43.5849C41.9839 43.2542 42.4248 42.9603 42.4616 42.3723H42.4983ZM50.5453 39.1021C52.2355 39.3226 53.8522 38.8082 54.5136 37.3752C55.2118 35.8319 54.6606 34.1784 53.3011 32.8556C50.0676 29.7324 46.9076 26.4622 43.7109 23.3022C41.9839 21.6119 39.963 21.465 38.5667 22.8612C37.1337 24.2943 37.0969 27.2338 38.5667 28.7036C41.6532 31.8268 44.7765 34.8766 47.8262 37.9998C48.6346 38.8082 49.4429 39.2858 50.582 39.0654L50.5453 39.1021ZM11.2291 52.477C9.42866 52.33 7.92216 52.8077 7.22402 54.5346C6.56263 56.2249 7.26076 57.5844 8.5468 58.7969C11.67 61.8467 14.7566 64.97 17.8431 68.0565C19.6803 69.8937 21.7012 70.1141 23.1342 68.7178C24.6407 67.2481 24.604 64.3086 23.024 62.7286C19.9742 59.6788 16.9245 56.6658 13.9114 53.5793C13.1398 52.7709 12.2947 52.2932 11.2291 52.477Z" fill="white"/>
<path d="M201.012 55.7104C201.012 67.542 201.012 79.3369 201.012 91.1685C201.012 94.7694 199.91 95.8717 196.272 95.8717C172.719 95.8717 149.166 95.8717 125.577 95.8717C123.739 95.8717 122.086 95.6512 121.241 93.7405C120.359 91.7931 121.608 90.5805 122.711 89.3313C123.115 88.8536 123.592 88.4494 124.033 88.0085C147.072 64.9699 170.147 41.8947 193.186 18.8561C193.921 18.1212 194.655 17.3864 195.464 16.725C196.493 15.8798 197.595 15.5124 198.918 16.1371C200.277 16.7617 200.939 17.8273 200.975 19.2603C201.049 20.9873 200.975 22.751 200.975 24.478C200.975 34.9133 200.975 45.3118 200.975 55.7472L201.012 55.7104ZM132.815 88.8168C133.734 89.3313 134.432 89.1843 135.093 89.1843C153.943 89.1843 172.756 89.1843 191.606 89.1843C192.157 89.1843 192.708 89.1843 193.259 89.1843C193.81 89.1843 194.251 88.9271 194.251 88.3392C194.251 86.6857 194.288 84.9954 194.251 83.342C194.251 82.6071 193.553 82.4969 193.002 82.5703C191.202 82.7908 190.871 81.7987 190.981 80.329C191.055 79.4471 191.055 78.5285 190.981 77.6099C190.908 76.3973 191.312 75.7359 192.635 75.8462C193.663 75.9197 194.362 75.6624 194.362 74.3764C194.325 72.0248 194.362 69.6364 194.362 67.2848C194.362 66.3662 194.068 65.7415 193.075 65.8518C191.128 66.0722 190.908 64.9699 191.018 63.4267C191.091 62.5816 191.055 61.7732 191.018 60.9281C190.944 59.789 191.275 58.9806 192.598 59.1276C193.994 59.2746 194.398 58.5765 194.362 57.2904C194.288 55.2695 194.288 53.2486 194.362 51.2644C194.398 49.8681 194.141 48.9495 192.451 49.1332C191.385 49.2435 190.981 48.6556 191.018 47.6267C191.055 46.3774 191.018 45.1281 191.018 43.8788C191.018 43.1072 191.202 42.4091 192.157 42.5193C194.398 42.8132 194.435 41.4537 194.362 39.837C194.288 38.257 194.362 36.6402 194.362 35.0603C194.288 32.6719 194.582 30.2835 194.141 27.5277C173.417 47.9207 153.061 68.1667 132.852 88.8536L132.815 88.8168Z" fill="white"/>
<path d="M97.5777 95.7982C95.4465 95.7982 92.7275 96.7168 91.3312 95.5042C89.9717 94.3284 90.927 91.5726 90.927 89.515C90.8903 76.8015 90.8535 64.0881 90.927 51.3746C90.927 49.4639 90.3759 49.0597 88.5754 49.1332C84.1661 49.2435 84.2763 49.1332 84.1294 44.9077C84.0926 43.1072 84.4601 42.1519 86.481 42.4825C87.1056 42.5928 87.8405 42.6663 88.6489 42.2253C87.4363 39.7635 86.2605 37.2649 84.9377 34.803C84.0926 33.2598 84.0926 31.8635 84.901 30.2835C89.1633 21.8691 93.3521 13.418 97.5777 4.96686C98.2758 3.57058 99.2312 2.505 100.885 2.505C102.612 2.505 103.493 3.71756 104.228 5.22407C108.233 13.3445 112.275 21.5017 116.464 29.5486C117.603 31.7165 117.64 33.517 116.391 35.5747C115.141 37.6691 114.113 39.9472 113.047 42.0049C113.304 42.6295 113.708 42.4825 114.039 42.5193C115.178 42.703 117.052 42.0049 117.309 42.8867C117.824 44.6872 117.53 46.7081 117.493 48.6556C117.493 49.3169 116.758 49.17 116.317 49.17C115.288 49.17 114.223 49.2802 113.194 49.17C111.43 48.9495 110.842 49.5007 110.842 51.4114C110.953 64.9699 110.879 78.4917 110.879 92.0503C110.879 94.6224 109.617 95.9084 107.094 95.9084C106.139 95.9084 105.147 95.8717 104.192 95.8349C104.192 81.7252 104.192 67.6155 104.192 53.5058C104.192 48.5453 104.963 49.3537 99.9293 49.1332C97.9819 49.0597 97.4675 49.7579 97.5042 51.6318C97.5777 66.3662 97.5409 81.1006 97.5409 95.8349L97.5777 95.7982ZM97.5777 21.318L96.953 21.0975C95.814 23.3389 94.8954 25.764 93.4991 27.8217C91.3312 31.0184 91.9191 33.7375 93.4256 37.1547C95.2996 41.417 97.7247 43.1072 102.354 42.5928C104.706 42.3356 106.176 41.8579 107.021 39.5798C107.94 37.1179 110.291 34.9133 110.144 32.4514C109.997 30.0263 108.16 27.6747 106.947 25.3231C106.176 23.8533 105.698 22.1998 104.228 20.6566C104.228 23.3389 104.265 25.617 104.228 27.8952C104.118 33.1496 105.184 32.3412 99.5619 32.4882C98.0186 32.5249 97.4675 32.0105 97.5042 30.4672C97.6144 27.4175 97.5042 24.3677 97.5042 21.318H97.5777Z" fill="white"/>
<path d="M137.739 108.144L137.629 108.254L137.482 108.144L137.629 108.071L137.739 108.144Z" fill="white"/>
<path d="M184.33 67.542C184.33 71.0694 184.33 74.6336 184.33 78.161C184.33 81.2843 183.155 82.4968 180.105 82.4968C172.866 82.4968 165.664 82.4968 158.426 82.4968C156.699 82.4968 155.266 82.0191 154.568 80.2922C153.906 78.6019 154.715 77.3527 155.891 76.2136C163.276 68.8648 170.625 61.4792 177.974 54.0937C179.15 52.8811 180.436 51.9992 182.236 52.7709C183.963 53.5058 184.367 54.9755 184.367 56.7025C184.367 60.3034 184.367 63.9411 184.367 67.542H184.33ZM166.252 75.8461C169.706 75.8461 173.16 75.8461 176.614 75.8461C177.239 75.8461 177.68 75.6992 177.68 74.9275C177.68 71.4369 177.68 67.9462 177.68 64.529C173.895 68.2769 170.184 71.988 166.289 75.8461H166.252Z" fill="white"/>
<path d="M74.8332 196.477H133.146C133.403 193.023 132.999 189.496 134.028 186.409C135.24 182.771 137.702 179.538 140.164 176.231C140.164 178.472 140.164 180.677 140.164 182.918C140.164 187.291 140.201 191.7 140.164 196.073C140.091 200.923 137.776 203.275 132.999 203.275C113.708 203.275 94.381 203.275 75.0904 203.275C70.4239 203.275 68.0723 200.886 68.0723 196.256C68.0723 170.536 68.0723 144.852 68.0723 119.131C68.0723 114.097 70.4974 111.598 75.4578 111.561C94.6015 111.525 113.708 111.525 132.852 111.561C137.592 111.561 140.054 113.95 140.127 118.69C140.238 126.112 140.127 133.534 140.127 140.957C140.127 141.361 140.201 141.875 140.017 142.206C138.033 145.917 136.012 149.628 133.44 153.156V118.469H74.7964V196.477H74.8332Z" fill="white"/>
<path d="M152.363 145.807C144.647 159.182 137.261 172.299 129.472 185.16C128.149 187.364 125.062 188.467 122.343 190.414C122.196 186.005 121.939 182.477 124.107 178.913C131.015 167.559 137.555 156.022 144.243 144.558C144.684 143.786 145.161 142.978 145.712 142.059C147.954 143.345 150.048 144.558 152.326 145.844L152.363 145.807Z" fill="white"/>
<path d="M127.671 165.796H80.3816V161.203C81.3002 161.166 82.2555 161.092 83.2109 161.092C96.8429 161.092 110.512 161.092 124.144 161.092C128.443 161.092 128.627 161.35 127.634 165.832L127.671 165.796Z" fill="white"/>
<path d="M80.3081 144.227V139.854H127.855V144.227H80.3081Z" fill="white"/>
<path d="M80.3447 154.552V150.032H116.501V154.552H80.3447Z" fill="white"/>
<path d="M116.611 128.684V132.91H80.3447V128.684H116.611Z" fill="white"/>
<path d="M80.3081 175.937V171.601H116.538V175.937H80.3081Z" fill="white"/>
<path d="M147.476 139.597C148.505 137.833 149.277 136.547 150.085 135.151C152.363 136.474 154.458 137.686 156.662 138.972C155.78 140.479 155.009 141.838 154.09 143.418C151.775 142.096 149.644 140.883 147.439 139.597H147.476Z" fill="white"/>
<path d="M172.866 26.8663C156.148 11.6175 134.395 1.8436 110.401 0.37384C110.806 0.961745 111.173 1.54965 111.504 2.13755C113.121 4.9301 114.737 7.7594 116.428 10.5519C135.351 13.0873 152.473 21.318 165.995 33.517C168.273 31.3123 170.478 28.9607 172.793 26.9398C172.793 26.9398 172.866 26.8663 172.903 26.8663H172.866Z" fill="white"/>
<path d="M61.3114 19.6645C69.983 14.9612 75.0905 13.0873 85.1583 11.3603C87.363 7.61241 89.8616 4.15847 92.103 0.851501C77.2584 2.06406 66.8965 6.14265 54.5138 13.0505C57.7473 15.5491 61.0175 19.5542 61.3114 19.6645Z" fill="white"/>
<path d="M60.503 184.021C31.1078 168.478 11.4864 137.833 11.4864 102.339C11.4864 95.0265 12.0743 88.4494 13.6543 81.6517C10.8985 79.9615 8.3632 77.3526 5.75437 75.3317C3.58647 83.5624 1.89624 93.4465 1.89624 102.339C1.89624 143.051 25.8166 178.252 60.3561 194.676C60.6133 191.223 60.3561 187.511 60.503 184.021Z" fill="white"/>
<path d="M196.64 105.425C195.537 139.156 176.284 168.404 148.358 183.653C147.77 187.548 148.321 190.708 147.844 194.64C182.346 178.877 205.201 145.182 206.267 105.058C203.107 105.388 199.8 105.352 196.677 105.388L196.64 105.425Z" fill="white"/>
</svg>
