<svg width="200" height="200" viewBox="0 0 200 200" fill="none" xmlns="http://www.w3.org/2000/svg">
<mask id="mask0_899_646" style="mask-type:luminance" maskUnits="userSpaceOnUse" x="0" y="0" width="200" height="200">
<path d="M100 1.73698e-06L0 100L100 200L200 100L100 1.73698e-06Z" fill="white"/>
</mask>
<g mask="url(#mask0_899_646)">
<path d="M14.206 89.2723L89.4301 14.0482C95.3277 8.15061 104.595 8.15061 110.493 14.0482L185.837 89.2723C191.615 95.1699 191.615 104.437 185.837 110.335L110.493 185.679C104.716 191.457 95.3277 191.577 89.4301 185.679L14.206 110.335C8.42874 104.558 8.42874 95.1699 14.206 89.2723Z" fill="white"/>
<path d="M16.0145 91.0752C11.2001 95.8895 11.2001 103.592 16.0145 108.407L91.3591 183.751C96.1734 188.566 103.876 188.566 108.57 183.751L183.915 108.407C188.729 103.592 188.729 95.8896 183.915 91.1956L108.57 15.851C103.756 11.0367 96.0531 11.0367 91.3591 15.851L16.0145 91.1956V91.0752ZM187.646 112.138L112.301 187.483C105.441 194.343 94.368 194.343 87.5075 187.483L12.1629 112.138C5.30247 105.277 5.30247 94.2045 12.1629 87.3441L87.5075 12.1199C94.368 5.2595 105.441 5.2595 112.301 12.1199L187.646 87.3441C194.506 94.2045 194.506 105.277 187.646 112.138Z" fill="#008457"/>
</g>
<path d="M99.7873 47.3843C128.553 47.3843 152.143 70.8541 152.143 99.7402C152.143 128.626 128.673 152.096 99.7873 152.096C70.9013 152.096 47.4316 128.626 47.4316 99.7402C47.4316 70.8541 70.9013 47.3843 99.7873 47.3843Z" fill="#008457"/>
<path d="M105.082 80.001C94.7311 81.3249 85.1024 85.056 76.9181 91.435C73.9091 93.7218 71.1408 96.3698 68.6133 99.2584C68.6133 107.804 68.6135 116.229 71.5021 124.774C71.8632 125.737 72.2242 126.58 72.5853 127.543C80.4086 118.877 89.0745 111.896 99.666 106.841C96.1756 97.4531 99.0642 86.3801 104.962 80.1215" fill="white"/>
<path d="M64.4007 104.795C58.3828 113.341 54.1704 123.692 52.2447 134.765C51.8836 137.052 51.5224 139.338 51.2816 141.746C50.9206 146.079 56.0959 149.208 58.3828 145.958C62.3546 140.181 66.3265 134.765 70.5391 129.95C64.6415 123.451 62.8363 113.341 64.2806 104.795" fill="white"/>
<path d="M144.318 86.0226C132.523 80.9675 120.126 78.8011 108.331 79.6436C105.683 87.828 102.794 95.7716 103.396 105.16C110.377 102.271 118.079 100.225 126.986 99.1416C135.893 97.8177 145.762 97.4567 155.27 97.216C157.678 97.216 158.039 93.4848 155.752 92.0405C152.021 89.6333 148.169 87.7076 144.197 86.0226" fill="white"/>
</svg>
