<svg width="200" height="192" viewBox="0 0 200 192" fill="none" xmlns="http://www.w3.org/2000/svg">
<mask id="mask0_899_610" style="mask-type:luminance" maskUnits="userSpaceOnUse" x="0" y="0" width="200" height="200">
<path d="M99.9999 0.000131212L0 100L100 200L200 100L99.9999 0.000131212Z" fill="white"/>
</mask>
<g mask="url(#mask0_899_610)">
<path d="M14.1543 89.3004L89.4831 13.9717C95.3606 8.09409 104.717 8.09409 110.474 13.9717L185.803 89.3004C191.681 95.178 191.681 104.534 185.803 110.292L110.474 185.621C104.597 191.498 95.2407 191.498 89.4831 185.621L14.1543 110.292C8.2767 104.414 8.2767 95.0581 14.1543 89.3004Z" fill="white"/>
<path d="M16.0699 91.0965C11.2719 95.8945 11.2719 103.571 16.0699 108.369L91.3987 183.698C96.1967 188.496 103.874 188.496 108.672 183.698L184 108.369C188.798 103.571 188.798 95.8945 184 91.0965L108.672 15.7677C103.874 10.9697 96.1967 10.9697 91.3987 15.7677L16.0699 91.0965ZM187.599 112.088L112.27 187.417C105.433 194.254 94.2774 194.254 87.5602 187.417L12.2314 112.088C5.39422 105.251 5.39422 94.2152 12.2314 87.378L87.5602 12.0493C94.3973 5.21209 105.433 5.21209 112.27 12.0493L187.599 87.378C194.436 94.2152 194.436 105.251 187.599 112.088Z" fill="#008457"/>
</g>
<path d="M99.7927 47.3105C128.581 47.3105 152.091 70.8208 152.091 99.6089C152.091 128.397 128.581 151.907 99.7927 151.907C71.0046 151.907 47.4941 128.397 47.4941 99.6089C47.4941 70.8208 71.0046 47.3105 99.7927 47.3105Z" fill="#008457"/>
<path d="M92.7177 95.411C96.3162 93.8516 98.3554 91.0928 98.3554 87.0145V66.5031C98.3554 63.8642 94.7569 63.8642 94.6369 66.5031V78.1381C94.6369 80.6571 91.0386 80.6571 91.0386 78.1381V66.5031C91.0386 63.8642 87.4402 63.8642 87.4402 66.5031V78.1381C87.4402 80.1773 83.7214 80.6571 83.7214 78.1381V66.5031C83.7214 63.7442 80.123 64.1041 80.123 66.5031V87.0145C80.123 91.0928 82.1622 93.8516 85.7607 95.411V149.748C86.9602 149.988 91.2783 150.948 92.7177 151.068V95.2911V95.411ZM119.707 147.829V64.5839C108.911 65.6634 102.914 101.409 107.232 109.805L112.39 119.521V150.228C114.549 149.988 117.788 148.549 119.587 147.949" fill="white"/>
</svg>
