<svg width="180" height="180" viewBox="0 0 180 180" fill="none" xmlns="http://www.w3.org/2000/svg">
<path d="M89.8408 171.763C134.993 171.763 171.756 135.153 171.756 89.8481C171.756 44.543 135.146 7.93262 89.8408 7.93262C44.5358 7.93262 7.92578 44.543 7.92578 89.8481C7.92578 135.153 44.5358 171.763 89.8408 171.763Z" fill="white"/>
<path d="M132.864 65.8983V66.5086L132.559 67.1186V67.7287L132.102 68.339L95.3388 147.661L94.8812 148.424L94.4236 149.187L93.8133 149.949L93.2035 150.712L92.5932 151.322L91.9829 151.932L91.2204 152.543L90.4574 153L89.6948 153.458L88.9323 153.915L88.1693 154.221C85.7287 155.136 82.8305 155.288 80.2373 154.525H79.627L79.0167 154.068L78.4069 153.763L77.7966 153.458L77.1863 153.153C72.61 150.407 70.1696 144.915 71.2374 139.576V138.966L71.5423 138.356V137.746L71.9999 137.136L72.3048 136.526L109.068 57.2035L109.525 56.4407L109.983 55.6779L110.44 54.9152L111.051 54.3051L111.661 53.6948L112.271 53.0847L113.034 52.4744L113.796 52.0168L114.559 51.5592L115.322 51.2543C117.915 50.034 120.661 49.7287 123.407 50.3388H124.017L124.627 50.644L125.237 50.9492L125.847 51.2543L126.458 51.5592L127.068 51.8644L127.525 52.1695C131.949 55.0678 134.237 60.8643 133.017 66.0507M47.5931 112.424L47.8985 111.813L84.8134 32.3389C92.593 17.6949 113.339 26.5424 108.61 41.9492V42.5593L108.152 43.1693L71.2374 122.644L70.7798 123.407C62.0849 137.288 42.2541 127.526 47.5931 112.271M89.9998 0C40.271 0 0 40.2711 0 90C0 139.729 40.271 180 89.9998 180C139.729 180 180 139.729 180 90C180 40.2711 139.729 0 89.9998 0Z" fill="#F15A22"/>
</svg>
