<svg width="150" height="150" viewBox="0 0 150 150" fill="none" xmlns="http://www.w3.org/2000/svg">
<path d="M3.60352 66.2642L66.2401 3.63587C71.1148 -1.23813 78.8722 -1.18572 83.7469 3.63587L146.383 66.2642C151.206 71.1382 151.206 78.8946 146.383 83.7162L83.7469 146.345C78.8722 151.219 71.1147 151.219 66.2924 146.345L3.65598 83.7162C-1.21866 78.8422 -1.21866 71.0857 3.65598 66.2117" fill="#0066B3"/>
<path d="M66.8348 111.234V57.4339H82.4348V111.234H66.8348ZM74.6348 49.9339C71.7681 49.9339 69.4348 49.1006 67.6348 47.4339C65.8348 45.7672 64.9348 43.7005 64.9348 41.2339C64.9348 38.7672 65.8348 36.7005 67.6348 35.0339C69.4348 33.3672 71.7681 32.5339 74.6348 32.5339C77.5014 32.5339 79.8348 33.3339 81.6348 34.9339C83.4348 36.4672 84.3348 38.4672 84.3348 40.9339C84.3348 43.5339 83.4348 45.7006 81.6348 47.4339C79.9014 49.1006 77.5681 49.9339 74.6348 49.9339Z" fill="white"/>
</svg>
