<svg width="200" height="200" viewBox="0 0 200 200" fill="none" xmlns="http://www.w3.org/2000/svg">
<mask id="mask0_899_580" style="mask-type:luminance" maskUnits="userSpaceOnUse" x="0" y="0" width="200" height="200">
<path d="M99.9999 6.64745e-05L0 100L100 200L200 100L99.9999 6.64745e-05Z" fill="white"/>
</mask>
<g mask="url(#mask0_899_580)">
<path d="M14.1886 89.4592L89.4157 14.2323C95.2223 8.42581 104.642 8.42581 110.448 14.2323L185.804 89.4592C191.611 95.2658 191.611 104.685 185.804 110.492L110.577 185.719C104.771 191.525 95.3514 191.525 89.5449 185.719L14.3178 110.492C8.51126 104.685 8.51126 95.2658 14.3178 89.4592" fill="white"/>
<path d="M91.3508 183.91C96.1251 188.684 103.867 188.684 108.641 183.91L183.997 108.554C188.771 103.779 188.771 96.0375 183.997 91.2632L108.771 16.0363C103.996 11.262 96.2543 11.262 91.48 16.0363L16.2529 91.3922C11.4786 96.1664 11.4786 103.908 16.2529 108.683L91.48 183.91H91.3508ZM112.383 12.2944L187.61 87.5211C194.449 94.3599 194.449 105.457 187.61 112.296L112.383 187.523C105.545 194.361 94.4475 194.361 87.6087 187.523L12.382 112.296C5.54323 105.457 5.54323 94.3599 12.382 87.5211L87.7379 12.1652C94.5767 5.32643 105.674 5.32643 112.513 12.1652" fill="#008457"/>
</g>
<path d="M69.9251 48.418C75.2155 48.418 79.4739 53.0634 79.4739 58.8699C79.4739 64.6764 75.2155 69.3216 69.9251 69.3216C64.6347 69.3216 60.3767 64.5474 60.3767 58.8699C60.3767 53.1924 64.7637 48.418 69.9251 48.418ZM53.6671 73.0635C50.5702 73.0635 46.957 76.6766 46.957 80.0315V109.322C46.957 112.806 51.4733 116.419 54.6992 116.419V84.9346H58.8283V149.065H69.1509V106.87H72.893C72.893 106.87 73.0222 138.484 73.0222 149.065H82.5706V84.9346H86.5706V115.645C89.6674 115.645 94.3127 112.29 94.3127 108.935V79.6442C94.3127 76.1603 90.9578 73.1925 87.861 73.1925H53.5379L53.6671 73.0635Z" fill="#008457"/>
<path d="M139.992 72.4219H125.411C123.605 72.4219 122.315 73.8412 121.024 75.6477L105.153 96.1643C103.346 98.4869 104.895 102.487 106.959 104.551L126.443 78.8736V84.6803L111.347 117.197H128.895V149.068H138.056V117.197H153.283L139.089 84.4221V78.7446L159.089 104.551C161.154 102.616 162.057 97.9706 160.25 95.777L144.766 75.3898C143.476 73.7123 142.444 72.6801 140.25 72.551M133.798 48.8086C138.444 48.8086 142.315 53.0668 142.315 57.9701C142.315 62.8734 138.444 67.2606 133.798 67.2606C129.153 67.2606 125.282 63.0024 125.282 57.9701C125.282 52.9378 129.153 48.8086 133.798 48.8086Z" fill="#008457"/>
<path d="M101.282 46.7422H99.3467V154.228H101.282V46.7422Z" fill="#008457"/>
</svg>
