<?xml version="1.0" encoding="UTF-8"?>
<svg id="Layer_1" data-name="Layer 1" xmlns="http://www.w3.org/2000/svg" viewBox="0 0 57.53 56.44">
  <g>
    <path fill="#56221D" d="m10.64,46.1c-.17,0-.35-.03-.54-.1-.87-.3-1.77-.91-2.53-1.71-.8-.85-.09-1.96.22-2.43,1.43-2.23,2.86-4.45,4.29-6.68l12.63-19.66c.07-.11.15-.22.25-.37l.47-.66,4.6,3-1.1,1.67c-.59.89-1.17,1.76-1.74,2.65-4.89,7.59-9.77,15.19-14.64,22.79-.38.58-.97,1.5-1.91,1.5Zm15.05-30.25c-.05.07-.1.14-.14.21l-12.63,19.66c-1.43,2.23-2.86,4.46-4.29,6.68-.42.66-.52,1.01-.33,1.21.64.68,1.42,1.2,2.13,1.45.44.15.77-.2,1.28-1,4.87-7.6,9.76-15.2,14.64-22.79.57-.89,1.16-1.77,1.75-2.66l.55-.83-2.95-1.93Z"/>
    <path fill="#56221D" d="m44.41,29.93l-1.49-2.43c-2.68-4.37-6.31-8.22-11.1-11.77-.48.53-.81.51-1.57.02l-3.09-1.99c-.83-.53-1.02-.81-.75-1.51-5.25-2.88-10.27-4.58-15.34-5.19l-2.83-.34,2.78-.65c5.59-1.3,11.36-.44,17.62,2.62.18-.25.37-.43.64-.49.37-.08.66.1,1.06.37.87.56,1.66,1.07,2.46,1.58l.64.41c.88.56,1.04.86.67,1.64,5.39,4.4,8.58,9.29,9.74,14.93l.57,2.79Zm-12.59-15.39l.25.13c4.1,2.99,7.38,6.19,9.97,9.73-1.53-4.32-4.41-8.08-8.89-11.67l-.33-.27.21-.37c.09-.16.19-.33.23-.44-.08-.06-.23-.16-.37-.25l-.64-.41c-.8-.51-1.59-1.02-2.39-1.53-.16-.1-.29-.19-.38-.24-.04.06-.11.15-.22.33l-.08.13-.42.23-.21-.14c-5.14-2.58-9.77-3.62-14.31-3.21,4.3.88,8.59,2.54,13.04,5.03l.41.23-.2.42c-.07.15-.15.31-.19.41.08.06.24.16.39.26l3.09,1.99c.09.06.2.13.28.17.06-.07.14-.18.2-.26l.1-.13.45-.14Z"/>
    <path fill="#56221D" d="m35.12,9.81l-4.49-2.89.22-.41c.34-.65.9-1.45,1.6-1.64.31-.08.62-.03.9.14l2.27,1.45c.29.19.48.47.54.82.12.71-.3,1.57-.74,2.15l-.28.37Zm-3.16-3.22l2.9,1.87c.22-.38.34-.76.3-.99-.01-.08-.05-.12-.09-.15l-2.26-1.45s-.07-.03-.1-.02c-.17.04-.44.29-.73.74Z"/>
  </g>
  <path fill="#56221D" d="m49.72,55.62H10.65l5.83-2.93c2.06-1.03,4.13-2.06,6.18-3.11.1-.05.23-.19.28-.32,1.49-3.24,2.97-6.49,4.45-9.73l1.12-2.46c.04-.09.09-.18.15-.29l.6-1.16.41,1.02c.34.84.26,1.66.19,2.46-.05.58-.1,1.12,0,1.63.19.88.27,2.01-.81,3-.58.53-.64.97-.23,1.58.38.55.42.93.46,1.3.03.26.05.52.21.93.1-.36.2-.7.35-.95,0-.02-.01-.04-.02-.07l-.04-.12c-.17-.49-.33-.99-.53-1.47-.29-.68.12-1.1.25-1.24.39-.4.85-.89,1.29-1.41.04-.04.07-.15.06-.2-.08-.61-.19-1.22-.3-1.85l-.23-1.35,1.26.1c.61.04,1.19.09,1.77.16.35.04.59.36.72.61.41.76.8,1.52,1.18,2.29.77-.06,1.58-.12,2.42-.13.14,0,.29.03.43.08,0-.02-.02-.04-.02-.05-.12-.02-.29-.04-.48-.06-1.79-.23-2.26-.34-2.42-.76-.26-.69-.57-1.42-.97-2.28-.02-.04-.09-.1-.13-.11-.46-.11-.92-.2-1.39-.3-.4-.08-.8-.16-1.2-.26-.3-.07-.66-.36-.72-.72-.06-.39-.18-.68-.3-.99-.15-.38-.31-.78-.37-1.36-.04-.42.38-.75.6-.87,1-.51,2-1.01,3.01-1.5l6.17-3.05c.08-.04.16-.07.25-.11l.7-.3,1.23,5.98c.96,4.72,1.93,9.44,2.91,14.15.03.13.11.28.21.38,1.51,1.53,3.04,3.05,4.57,4.57.02.02.1.06.16.1.06.03.11.06.16.09l.46.28-.46.64-.37.15Zm-34.86-1h33.76c-1.38-1.37-2.76-2.75-4.13-4.13-.24-.24-.42-.57-.48-.88-.98-4.72-1.94-9.44-2.91-14.15l-.98-4.76-5.94,2.94c-1,.49-2,.99-2.99,1.5-.01,0-.03.02-.04.03.05.35.16.62.28.93.12.31.26.65.34,1.11.38.1.76.18,1.15.26.48.1.95.19,1.42.31.32.08.65.35.8.66.38.82.69,1.53.94,2.2.33.11,1.25.22,1.67.27.88.11,1.01.13,1.15.39.2.39.4.91.58,1.41.15.41.3.81.45,1.11l1.17,2.43-1.96-1.85c-.31-.29-.57-.6-.82-.91-.13-.16-.26-.31-.39-.46-.04-.05-.16-.1-.21-.1-.8.01-1.6.07-2.36.12-.45.04-.77-.15-.97-.55-.38-.76-.77-1.52-1.17-2.26-.02-.04-.05-.08-.06-.1-.53-.06-1.06-.1-1.62-.14l.02.09c.11.65.22,1.27.3,1.89.04.32-.07.71-.29.97-.46.55-.93,1.05-1.34,1.47-.06.07-.08.09-.08.09.24.56.41,1.08.59,1.6l.04.12c.12.37.11.65-.04.87-.1.13-.22.57-.3.88-.14.52-.27,1.01-.52,1.3l-.54.66-.39-.96c-.25-.56-.39-.88-.43-1.1-.19-.5-.23-.85-.25-1.13-.03-.32-.05-.49-.29-.83-.49-.71-.82-1.79.38-2.88.57-.52.71-1.1.51-2.05-.14-.66-.08-1.31-.03-1.94.01-.12.02-.23.03-.34l-.59,1.29c-1.48,3.25-2.96,6.5-4.46,9.74-.15.33-.44.64-.74.79-2.06,1.05-4.12,2.08-6.19,3.11l-2.07,1.04Z"/>
</svg>