<?xml version="1.0" encoding="UTF-8"?>
<svg id="Layer_1" data-name="Layer 1" xmlns="http://www.w3.org/2000/svg" viewBox="0 0 57.53 56.44">
  <g>
    <path fill="#56221D" d="m34.95,18.12c-.78,0-1.56,0-2.34-.03-2.28-.07-4.09-1.96-4.04-4.21.07-2.79.07-5.51,0-8.09-.06-2.26,1.62-4.13,3.83-4.26,1.5-.09,3.02-.07,4.49-.05.65,0,1.31.02,1.97.02h.5v16.35l-.25.14s-.16.12-.34.12c-.6,0-1.2,0-1.8.01-.66,0-1.33.01-2.01.01Zm-.03-15.67c-.83,0-1.65.02-2.47.06-1.67.1-2.93,1.52-2.89,3.24.07,2.6.07,5.34,0,8.14-.04,1.7,1.34,3.14,3.07,3.19,1.43.05,2.9.03,4.31.02.47,0,.93,0,1.4-.01V2.49c-.49,0-.99,0-1.48-.02-.66,0-1.31-.02-1.95-.02Z"/>
    <path fill="#56221D" d="m42.25,19.27c-.58,0-1.16-.18-1.6-.55-.45-.38-.67-.88-.67-1.55,0-1.89,0-3.78,0-5.67v-3.78s0-5.21,0-5.21c0-1.11.51-1.79,1.55-2.08,1.07-.3,2.24.1,2.71.94.16.29.26.67.26,1.03,0,3.49,0,6.97,0,10.46v4.38c0,.61-.24,1.12-.7,1.5-.43.35-1,.53-1.57.53Zm-1.26-9.47v1.7c0,1.89,0,3.78,0,5.68,0,.37.09.59.31.78.5.42,1.39.42,1.89.01.23-.19.34-.41.34-.72v-4.38c0-3.48,0-6.97,0-10.45,0-.19-.05-.4-.13-.55-.24-.43-.95-.64-1.57-.47-.61.17-.82.45-.82,1.12v7.29Z"/>
    <path fill="#56221D" d="m46.1,14.9c-.34,0-.68,0-1.02,0h-1.55v-2.98l.61-.04c.11,0,.22-.02.33-.02h.59c.99,0,1.97,0,2.96,0,.73,0,1.26.36,1.5.99.23.63.09,1.23-.39,1.63-.14.12-.5.39-.93.4-.69.01-1.39.02-2.09.02Zm-1.57-1h.55c1.05,0,2.07,0,3.09-.01.04,0,.17-.05.3-.16.1-.09.21-.23.1-.53-.06-.17-.17-.33-.56-.34-.99,0-1.97,0-2.95,0h-.53v1.04Z"/>
    <path fill="#56221D" d="m46.38,7.67c-.39,0-.77,0-1.17,0h-1.69v-2.82l.34-.12c.07-.03.18-.08.32-.08h.88c1.02,0,2.04,0,3.06,0,.85,0,1.48.66,1.48,1.51,0,.85-.64,1.5-1.48,1.51-.58,0-1.16,0-1.75,0Zm-1.86-1h.69c.98,0,1.94,0,2.9,0,.3,0,.49-.2.49-.5,0-.3-.2-.51-.49-.51-1.02-.01-2.03,0-3.05,0h-.54v1.02Z"/>
  </g>
  <path fill="#56221D" d="m28.67,42.76c-2.25,0-3.56-.04-3.58-.04l.03-1s3.34.11,8.49-.02c7.29-.18,9.21-1.24,9.71-1.85.68-.84.92-1.72.75-2.69-.75-4.32-9.27-9.49-16.78-14.05-7.27-4.42-13.02-7.91-12.29-10.64.54-2.01,5.58-2.99,13.76-3.17l-.09,1c-9.16.21-12.44,1.44-12.7,2.43-.54,2.01,5.76,5.83,11.84,9.52,7.69,4.67,16.41,9.97,17.24,14.74.22,1.26-.1,2.44-.96,3.49-1.09,1.34-4.51,2.07-10.46,2.22-1.94.05-3.62.06-4.97.06Z"/>
  <g>
    <path fill="#56221D" d="m11.4,52.83c-.13,0-.25-.05-.35-.14-.2-.19-.2-.51,0-.71l.8-.81c.72-.73,1.44-1.46,2.16-2.19.25-.25.55-.37.92-.37h1.65c1.03,0,2.06,0,3.09,0,.85.02,1.69-.2,2.51-.67,1.14-.65,1.91-1.6,2.36-2.91.29-.85.44-1.72.44-2.67,0-.83-.03-1.82-.32-2.78-.53-1.75-1.63-2.83-3.35-3.32-.36-.1-.76-.15-1.21-.14-.8.01-1.6.01-2.41,0-.42,0-.84-.02-1.25-.03-.38-.01-.76-.02-1.14-.03-.43,0-.71-.23-.88-.4l-3.34-3.28c-.2-.19-.2-.51,0-.71s.51-.2.71,0l3.34,3.28c.11.11.16.11.19.11.38,0,.77.02,1.15.03.41.01.83.02,1.24.03.79.01,1.59.01,2.38,0,.54-.01,1.04.05,1.5.18,2.04.57,3.4,1.92,4.03,3.99.33,1.09.37,2.17.37,3.08,0,1.07-.17,2.05-.5,3-.53,1.53-1.48,2.69-2.81,3.45-.98.56-1.97.82-3.02.8-1.02-.02-2.04-.01-3.07-.01h-1.65c-.09,0-.17.03-.21.07-.72.73-1.44,1.46-2.16,2.19l-.8.8c-.1.1-.23.15-.36.15Z"/>
    <path fill="#56221D" d="m10.71,48.58h-1.74s-.69,0-.69,0c-.28,0-.5-.22-.5-.5s.22-.5.5-.5h.69s1.73,0,1.73,0c.28,0,.44-.06.59-.26.3-.4.63-.77.96-1.13.18-.19.35-.39.52-.58.41-.47.92-.52,1.24-.52.73,0,1.45,0,2.18,0,.97,0,1.93,0,2.9,0,1.1,0,1.79-.5,2.05-1.49.29-1.13.23-2.07-.2-2.88-.3-.56-.73-.85-1.31-.87-1.25-.05-2.53-.04-3.77-.03-.53,0-1.07,0-1.59,0-.54,0-1.16-.09-1.65-.77-.32-.44-.67-.86-1.02-1.28-.24-.29-.49-.59-.72-.89-.12-.16-.23-.18-.49-.21h-2.11c-.28,0-.5-.22-.5-.5s.22-.5.5-.5h2.11s0,0,0,0c.55,0,.96.2,1.28.6.23.29.46.58.7.86.36.44.73.88,1.06,1.34.21.29.46.36.94.36.49,0,.99,0,1.48,0,1.25,0,2.54-.02,3.82.03.94.04,1.68.52,2.15,1.4.55,1.04.65,2.22.28,3.6-.37,1.43-1.45,2.24-2.97,2.24-.02,0-.04,0-.06,0-.96-.01-1.92,0-2.88,0-.73,0-1.46,0-2.19,0h-.01c-.26,0-.36.06-.46.17-.18.21-.36.41-.55.61-.32.35-.63.68-.89,1.04-.43.59-.97.67-1.38.67Z"/>
    <path fill="#56221D" d="m6.33,50.45c-.18,0-.37-.02-.56-.07-1.3-.32-2.01-1.38-1.81-2.69.16-1.07.89-1.78,2.02-1.95.98-.15,1.82.28,2.36,1.21.12.21.21.43.29.66l.1.25c.03.07.04.14.04.2,0,.06,0,.13-.03.19l-.06.17c-.05.15-.11.29-.16.44-.4,1-1.23,1.58-2.16,1.58Zm.01-3.74c-.07,0-.14,0-.22.02-.69.1-1.08.48-1.17,1.11-.07.47-.03,1.3,1.06,1.57.65.16,1.27-.2,1.55-.92.05-.13.1-.27.15-.4v-.02s-.02-.08-.04-.12c-.06-.17-.12-.34-.21-.5-.29-.5-.66-.74-1.12-.74Z"/>
    <path fill="#56221D" d="m6.28,44.75c-.17,0-.34-.02-.51-.06-1.34-.31-2.09-1.5-1.78-2.83.27-1.18,1.27-1.76,2.15-1.81,1.07-.06,2.12.69,2.4,1.73.04.15.07.25.11.3.07.09.1.2.1.31,0,.07,0,.13-.03.2l-.06.14c-.03.08-.06.15-.09.23-.31,1.08-1.26,1.79-2.29,1.79Zm-.01-3.71s-.05,0-.07,0c-.5.03-1.08.36-1.24,1.04-.18.78.25,1.45,1.04,1.64.77.18,1.43-.39,1.61-1.04.03-.09.06-.17.09-.26-.06-.13-.09-.25-.12-.36-.16-.59-.74-1.02-1.31-1.02Z"/>
    <path fill="#56221D" d="m6.28,38.53c-.18,0-.37-.02-.55-.07-1.31-.33-2.05-1.58-1.72-2.91.25-.99,1.22-1.74,2.27-1.74h.02c1.02,0,1.94.71,2.24,1.71.05.18.08.27.11.32.07.09.1.2.1.31,0,.07,0,.14-.04.2l-.07.16c-.04.09-.08.17-.1.26-.29,1.04-1.24,1.74-2.26,1.74Zm0-3.71c-.59,0-1.16.43-1.3.98-.2.8.21,1.5,1,1.7.67.17,1.41-.27,1.6-.98.03-.11.07-.22.12-.33-.04-.1-.07-.21-.1-.3-.2-.66-.73-1.07-1.31-1.08h0Z"/>
    <path fill="#56221D" d="m8.28,42.91c-.26,0-.48-.2-.5-.46-.02-.28.18-.52.46-.54h.12c.11-.02.22-.03.33-.03,1.6,0,3.19,0,4.79,0,.26,0,.52,0,.78.02h.34c.28.02.49.25.49.53,0,.28-.27.49-.51.49h-.34c-.25-.02-.5-.03-.75-.03-1.59,0-3.19,0-4.79,0-.08,0-.16,0-.23.02h-.14s-.03.01-.04.01Z"/>
    <path fill="#56221D" d="m9.97,56.12c-.09,0-.17,0-.26-.01-.6-.06-1.17-.38-1.57-.87-.36-.45-.54-.98-.49-1.5-.03-.69.3-1.37.88-1.82.62-.48,1.41-.62,2.13-.39.44.14,1.18.38,1.45,1.26.13.42.25.92.15,1.47-.2,1.1-1.17,1.87-2.29,1.87Zm-1.32-2.38s0,.05,0,.07c-.03.26.07.55.27.8.23.28.56.47.89.51.81.09,1.36-.47,1.47-1.04.05-.27.02-.56-.12-.99-.1-.33-.3-.44-.8-.6-.41-.13-.86-.05-1.21.23-.33.25-.51.63-.49.99,0,.01,0,.03,0,.04Z"/>
    <path fill="#56221D" d="m9.86,33.01c-.61,0-1.18-.25-1.6-.7-.43-.46-.66-1.06-.61-1.63-.05-.53.16-1.1.58-1.55.49-.53,1.19-.84,1.83-.81.61.03,1.27.36,1.71.87.41.47.6,1.06.53,1.65-.15,1.45-.85,2.09-2.34,2.16-.04,0-.07,0-.11,0Zm-1.21-2.33s0,.05,0,.07c-.03.28.1.63.34.88.17.19.48.4.94.38,1-.05,1.29-.31,1.39-1.27.04-.4-.14-.71-.3-.89-.26-.3-.66-.51-1-.53-.36,0-.76.17-1.06.49-.23.25-.35.54-.32.79,0,.03,0,.05,0,.08Z"/>
    <path fill="#56221D" d="m16.75,42.91c-.14,0-.28-.06-.38-.17-.18-.21-.16-.52.05-.71.22-.19.47-.17.57-.15h2.25c.28,0,.5.22.5.5s-.22.5-.5.5h-2.23s-.04,0-.07,0c-.06.02-.12.03-.18.03Z"/>
  </g>
</svg>