<?xml version="1.0" encoding="UTF-8"?>
<svg id="Layer_1" data-name="Layer 1" xmlns="http://www.w3.org/2000/svg" viewBox="0 0 57.53 56.44">
  <g>
    <path fill="#56221D" d="m35.75,20.01l-.3-.28c-.21-.2-.42-.41-.61-.6-.39-.39-.75-.76-1.15-1.05-.76-.56-1.44-.79-2.03-.68-.6.11-1.17.58-1.69,1.39l-.4.62-4.95-7.05.89-.06c1.79-.12,3.09-.9,4.08-2.46.29-.46.77-1.09,1.44-1.53.96-.63,2.23-1.44,3.58-2.08,3.66-1.73,7.34-2.03,10.92-.9.5.15,1.47.45,1.23,1.5-.21.9-1.01.82-1.35.78-.09,0-.17-.02-.26-.02-.34.02-.68.02-1.02.02-.88,0-1.7.01-2.44.24-1.51.47-2.66,1.49-3.02,2.66-.32,1.04,0,2.19.91,3.33.34.42.62.85.92,1.31.13.21.27.42.42.63l.28.41-5.43,3.82Zm-3.8-3.64c.74,0,1.52.3,2.33.9.46.34.85.73,1.26,1.15.1.1.2.2.3.3l3.96-2.78c-.05-.08-.1-.16-.15-.23-.29-.44-.56-.85-.86-1.23-1.43-1.77-1.38-3.29-1.09-4.25.45-1.48,1.86-2.76,3.68-3.32.88-.27,1.82-.28,2.73-.29.33,0,.66,0,.98-.02.13,0,.27,0,.4.02.1,0,.25.03.3,0l-.02-.12c-.04-.07-.33-.15-.47-.2-3.43-1.08-6.85-.8-10.29.82-1.29.61-2.52,1.39-3.45,2.01-.4.27-.81.71-1.15,1.24-1,1.57-2.31,2.5-4,2.82l3.13,4.47c.58-.7,1.22-1.12,1.92-1.25.15-.03.31-.04.47-.04Z"/>
    <path fill="#56221D" d="m48.51,36.68c-.54,0-.98-.28-1.38-.86-1.73-2.53-3.49-5.03-5.25-7.54l-5.3-7.56,5.11-3.58,1.92,2.75c2.99,4.28,5.95,8.5,8.89,12.73.26.38.21,1.04,0,1.4-.67,1.13-1.73,1.96-3.24,2.52-.27.1-.52.15-.74.15Zm-10.54-15.72l4.73,6.74c1.76,2.51,3.52,5.02,5.26,7.55.33.48.51.51.95.34,1.3-.49,2.17-1.15,2.73-2.09.04-.07.06-.27.03-.34-2.92-4.21-5.88-8.43-8.87-12.71l-1.35-1.93-3.47,2.44Z"/>
    <path fill="#56221D" d="m26.34,21.76c-.52,0-1-.26-1.36-.77-1.16-1.64-2.3-3.29-3.42-4.94-.5-.74-.38-1.57.33-2.17.23-.19.48-.36.76-.55l.8-.55,5.28,7.67-.71.53c-.23.18-.44.34-.67.48-.35.2-.69.31-1.02.31Zm-3.15-7.59c-.24.16-.46.3-.66.47-.41.34-.3.62-.15.84,1.12,1.65,2.26,3.29,3.42,4.93.2.28.47.52,1.04.18.18-.1.34-.23.52-.37l-4.17-6.05Z"/>
  </g>
  <path fill="#56221D" d="m34.78,38.85h-17c-1.15,0-2.08-.93-2.08-2.08v-6.03c0-1.15.93-2.08,2.08-2.08h17c1.15,0,2.08.93,2.08,2.08v6.03c0,1.15-.93,2.08-2.08,2.08Zm-17-9.19c-.6,0-1.08.49-1.08,1.08v6.03c0,.6.49,1.08,1.08,1.08h17c.6,0,1.08-.49,1.08-1.08v-6.03c0-.6-.49-1.08-1.08-1.08h-17Z"/>
  <path fill="#56221D" d="m45.83,51.79h-17c-1.15,0-2.08-.93-2.08-2.08v-6.03c0-1.15.93-2.08,2.08-2.08h17c1.15,0,2.08.93,2.08,2.08v6.03c0,1.15-.93,2.08-2.08,2.08Zm-17-9.19c-.6,0-1.08.49-1.08,1.08v6.03c0,.6.49,1.08,1.08,1.08h17c.6,0,1.08-.49,1.08-1.08v-6.03c0-.6-.49-1.08-1.08-1.08h-17Z"/>
  <path fill="#56221D" d="m22.2,51.79H5.19c-1.15,0-2.08-.93-2.08-2.08v-6.03c0-1.15.93-2.08,2.08-2.08h17c1.15,0,2.08.93,2.08,2.08v6.03c0,1.15-.93,2.08-2.08,2.08Zm-17-9.19c-.6,0-1.08.49-1.08,1.08v6.03c0,.6.49,1.08,1.08,1.08h17c.6,0,1.08-.49,1.08-1.08v-6.03c0-.6-.49-1.08-1.08-1.08H5.19Z"/>
</svg>