<?xml version="1.0" encoding="UTF-8"?>
<svg id="Layer_1" data-name="Layer 1" xmlns="http://www.w3.org/2000/svg" viewBox="0 0 57.53 56.44">
  <path fill="#56221D" d="m5.49,52.55l-.12-.08c-.41-.26-1.35-.94-1.35-1.68,0-6.88,0-13.76,0-20.64,0-.38.12-.67.38-.93,6.47-6.46,12.93-12.92,19.39-19.38l4.41-4.4c.06-.06.12-.11.18-.17l.35-.31.63.47,1.59,1.59c7.42,7.41,14.83,14.83,22.24,22.25.22.22.31.55.33.78.02.31.02.63.01.95v4.6c0,5.08,0,10.17,0,15.25,0,.7-.67,1.37-.8,1.5l-.15.14h-.2l-46.87.06ZM28.77,6.28l-4.28,4.27c-6.46,6.46-12.92,12.92-19.39,19.38-.06.06-.08.1-.08.22,0,6.88,0,13.76,0,20.64.03.14.39.49.77.75l46.36-.05c.19-.22.36-.49.36-.64,0-5.08,0-10.17,0-15.25v-4.61c0-.29,0-.59,0-.88,0-.06-.03-.12-.04-.14-7.4-7.41-14.82-14.83-22.23-22.24l-1.46-1.46Z"/>
  <path fill="#56221D" d="m35.52,47.01c-1.88,0-2.07-.16-2.55-1.97-.07-.25-.16-.36-.22-.38-.05-.02-.17,0-.34.13-1.46,1.05-1.94.94-2.82.01-.12-.12-.25-.26-.41-.41-.09-.09-.19-.18-.28-.28l-.23-.23c-.56-.54-.62-1.2-.16-1.86.17-.25.33-.51.52-.82l.08-.13c-.14-.13-.28-.25-.38-.28-1.83-.56-1.98-.76-1.98-2.64,0-1.6.16-1.81,1.73-2.16.53-.12.6-.24.6-.24,0,0,.04-.14-.25-.6-.86-1.36-.83-1.62.32-2.76l.2-.2c1.21-1.23,1.49-1.26,2.92-.34.3.19.46.21.52.18.05-.02.16-.15.23-.49.02-.07.02-.14.03-.21.03-.22.06-.5.23-.73.25-.34.6-.64.97-.81.27-.13.56-.11.8-.09.07,0,.13.01.2.01,1.87,0,2.06.15,2.55,1.93.05.2.14.34.24.38.09.03.25-.01.42-.13l.23-.15c1.25-.83,1.6-.77,2.83.54.09.1.19.19.28.28l.11.11c.89.88.85,1.3.22,2.27-.16.24-.36.56-.36.73,0,.18.03.26.72.38,1.29.23,1.54.52,1.54,1.84v.36c0,1.86-.15,2.05-1.94,2.53-.19.05-.31.13-.35.22-.04.09,0,.24.1.42.92,1.61.89,1.85-.45,3.18l-.08.08c-.14.14-.27.27-.4.41-.5.54-1.15.61-1.79.21l-.23-.16c-.69-.46-.86-.46-.88-.46,0,0-.12.13-.27.84-.25,1.21-.59,1.49-1.82,1.49h-.36s-.02,0-.03,0Zm-2.81-3.36c.15,0,.27.03.38.06.4.15.71.52.85,1.07.33,1.23.32,1.23,1.62,1.23h.36q.7,0,.84-.69c.16-.79.38-1.36.88-1.56.51-.21,1.06.05,1.73.51l.29.19c.26.17.37.12.52-.04.14-.15.29-.3.43-.44l.08-.08q.9-.89.28-1.97c-.33-.58-.27-1.02-.15-1.3.11-.27.38-.63,1.01-.8q1.19-.32,1.19-1.57v-.36c0-.17,0-.61-.05-.69-.07-.06-.5-.14-.66-.17-.53-.09-1.52-.27-1.54-1.34-.01-.48.27-.91.5-1.26.1-.15.33-.51.33-.6,0-.04-.08-.15-.38-.45l-.11-.1c-.11-.1-.21-.21-.31-.31q-.82-.87-1.55-.39l-.23.15c-.58.38-1.04.33-1.33.23-.4-.15-.7-.52-.85-1.05q-.33-1.19-1.59-1.19c-.09,0-.19,0-.28-.02-.09,0-.24-.02-.28,0-.22.1-.44.29-.59.5-.02.04-.04.18-.05.27-.01.1-.03.21-.05.31-.14.62-.42,1.02-.83,1.19-.41.17-.89.08-1.43-.27q-.9-.58-1.67.2l-.21.21q-.7.69-.18,1.51c.27.43.55.99.33,1.52s-.81.73-1.31.84q-.95.21-.95,1.18,0,1.29,1.22,1.67c.37.11.6.32.82.52.09.08.17.16.27.23l.36.28-.54.88c-.2.33-.37.61-.55.87-.19.27-.15.38.04.57l.25.25c.08.09.17.17.26.25.17.16.31.31.44.44q.54.57,1.52-.13c.34-.24.64-.32.88-.32Zm2.73-1.29h-.02c-2.19,0-3.96-1.78-3.96-3.96,0-1.07.42-2.08,1.17-2.83.75-.76,1.75-1.18,2.8-1.18h0c2.14,0,3.96,1.82,3.97,3.96,0,1.07-.41,2.07-1.18,2.84-.76.75-1.75,1.17-2.8,1.17Zm-.01-1c.76,0,1.54-.31,2.11-.88.57-.57.89-1.33.88-2.12,0-1.6-1.37-2.96-2.97-2.96h0c-.79,0-1.53.31-2.09.88-.57.57-.88,1.33-.88,2.13,0,1.62,1.32,2.95,2.96,2.95h0Z"/>
  <path fill="#56221D" d="m14.38,45.12c-.17,0-.32-.05-.46-.09l-.83-.22,1.82-2.87c.26-.41.26-.78,0-1.1-.65-.79-1.28-1.09-2.04-.97-.26.04-.46.18-.62.44-.31.49-.63.97-.96,1.47l-.8,1.22-.44-.47s-.07-.07-.1-.1c-.11-.1-.25-.23-.32-.42-.63-1.57-.64-3-.03-4.25.92-1.88,2.3-2.81,4.11-2.73.35.01.68.08,1,.14.43.08.64.02.91-.23,3.69-3.5,7.16-7.18,11.25-11.62.07-.08.09-.09-.01-.42-.33-1.09-.21-2.12.36-3.09.74-1.26,1.91-2.06,3.48-2.37.29-.06.58-.09.86-.09.17-.01.33.04.48.08l.83.18-.38.71c-.04.08-.08.14-.11.2l-1.29,2.02c-.26.42-.25.78.03,1.12.65.76,1.27,1.06,2.01.95.26-.04.47-.18.63-.43.31-.49.63-.98.96-1.48l.8-1.22.44.46s.07.07.1.1c.11.1.24.22.32.41.66,1.63.66,3.05,0,4.34-.94,1.84-2.26,2.72-4.05,2.66-.3,0-.59-.06-.89-.11l-.2-.04c-.37-.06-.58,0-.83.23-4.1,3.88-7.97,8.06-11.29,11.66-.03.03-.04.04-.01.19.02.1.05.21.08.31.06.23.12.46.14.69.11,1.38-.43,2.57-1.6,3.55-.9.75-2.01,1.15-3.3,1.18h-.02Zm-1.2-6.27c.93,0,1.76.45,2.51,1.36.54.66.57,1.49.08,2.27l-1.03,1.63c.91-.08,1.68-.39,2.33-.93.92-.77,1.33-1.66,1.25-2.7-.01-.18-.06-.35-.11-.52-.03-.12-.06-.24-.09-.36-.04-.18-.13-.65.25-1.07,3.33-3.62,7.22-7.81,11.34-11.71.48-.46,1.01-.61,1.69-.49l.21.04c.25.04.49.09.74.1,1.4.03,2.36-.61,3.13-2.11.47-.92.5-1.95.1-3.13l-.03.05c-.33.5-.65.98-.96,1.47-.32.49-.78.8-1.33.88-1.09.16-2.04-.27-2.91-1.29-.57-.67-.61-1.51-.11-2.3l1.04-1.64c-.13.01-.26.03-.39.06-1.29.25-2.21.87-2.81,1.89-.43.73-.52,1.47-.27,2.27.1.34.27.89-.2,1.41-4.1,4.46-7.58,8.15-11.29,11.67-.49.47-1.04.63-1.72.5-.35-.07-.64-.12-.91-.13-1.39-.06-2.43.66-3.17,2.17-.44.91-.47,1.92-.07,3.08l.03-.04c.33-.5.64-.98.95-1.46.32-.5.77-.81,1.32-.89.16-.02.31-.03.46-.03Z"/>
</svg>