<?xml version="1.0" encoding="UTF-8"?>
<svg id="Layer_1" data-name="Layer 1" xmlns="http://www.w3.org/2000/svg" viewBox="0 0 57.53 56.44">
  <path fill="#56221D" d="m3.08,30.09c-.18,0-.37-.04-.54-.2-.18-.18-.24-.43-.2-.76l.06-.43h3.71l-.54-2.05,1.01.3c.11.03.21.06.31.09l.63.24c.39.15.78.31,1.17.44.66.23.85,0,1.01-.27.24-.43.18-.79-.21-1.14-.23-.21-.47-.42-.71-.63-.32-.28-.63-.56-.94-.85-.12-.11-.4-.41-.38-.78.07-1.07.15-2.15.24-3.27l.15-1.93,1.08.94c.27.23.51.44.76.65l.2.17c.22.19.43.38.67.54.42.29.65.22.92-.02.32-.28.41-.67.24-1.01-.19-.38-.4-.75-.6-1.12-.17-.31-.34-.62-.51-.93-.1-.19-.24-.54-.1-.86.42-.99.86-1.98,1.32-3.01l.78-1.75,1.09,1.88c.2.35.4.71.61,1.05.38.6.66.55.96.43.45-.18.64-.53.56-1.06l-.11-.69c-.08-.5-.16-1-.23-1.5-.03-.24,0-.58.21-.8.8-.85,1.6-1.7,2.41-2.54l.42-.44.75-.27.18.55.12.71c.09.51.17,1.02.28,1.53.07.36.23.61.44.73.23.12.5.05.69-.03.29-.12.44-.3.49-.59l.11-.58c.11-.56.21-1.12.33-1.68.06-.26.22-.59.51-.74.99-.51,1.98-1.01,2.97-1.5l.69-.34.8-.03-.03.6-.37,2.18c-.13.78.14.95.42,1.05.31.11.76.18,1.17-.51l.31-.53c.25-.42.5-.85.75-1.26.14-.23.41-.49.73-.53,1.08-.15,2.16-.27,3.24-.4l.59-.07c.07,0,.15,0,.25,0l.93.05-.64,1.12c-.17.29-.33.57-.48.85l-.1.19c-.14.25-.28.5-.4.77-.17.38-.11.64.2.88.35.27.73.29,1.03.06.61-.48,1.2-.98,1.78-1.48.31-.27.65-.35,1.06-.26.95.23,1.91.44,2.9.66l2,.45-1.08.93c-.21.18-.41.35-.6.52l-.28.24c-.25.21-.49.42-.72.66-.36.37-.32.6-.12.91.24.37.61.52.99.38.37-.13.74-.27,1.11-.4.36-.13.72-.27,1.08-.39.24-.08.6-.12.86.05.95.59,1.9,1.2,2.84,1.8l.62.39.48.67-.54.3-1.61.62c-.25.1-.43.17-.6.25-.54.26-.6.5-.52.86.1.45.42.71.88.72.71,0,1.43,0,2.15-.02.48-.01.8.15,1.07.51.57.75,1.14,1.49,1.75,2.27l1.34,1.72h-1.47c-.28,0-.53,0-.79,0h-.25c-.36.01-.73.02-1.08.07-.51.06-.62.25-.67.59-.04.34.01.78.51.97.7.26,1.4.5,2.11.73.44.14.7.43.78.89.06.31.13.61.2.92.09.4.19.8.26,1.21,0,.03.01.05.02.07.02,0,.06,0,.12,0,.85-.02,1.69-.01,2.55-.01h1.32s.13.31.13.31c.05.11.19.46-.02.77-.09.14-.28.3-.64.3h-5.62c-15.17,0-30.33,0-45.49,0-.08,0-.17.02-.26.02Zm29.47-1.02c5.43,0,10.86,0,16.28,0h1.23c-.03-.08-.05-.17-.07-.27-.06-.38-.15-.76-.24-1.14-.07-.32-.15-.64-.21-.96l.04-.6-.15.48c-.72-.23-1.44-.48-2.15-.74-.83-.31-1.27-1.09-1.16-2.03.07-.59.4-1.32,1.54-1.46.39-.05.79-.06,1.18-.07h.25c.08,0,.16,0,.24-.01l-.08-.1c-.61-.78-1.19-1.53-1.76-2.28-.08-.1-.11-.11-.24-.11-.73.02-1.46.03-2.19.02-.92,0-1.65-.6-1.85-1.51-.19-.87.17-1.54,1.06-1.97.2-.1.4-.18.61-.26l.83-.32c-.9-.57-1.8-1.15-2.71-1.71-.36.17-.72.3-1.07.43-.38.14-.76.28-1.14.41-.83.28-1.67-.03-2.16-.79-.48-.75-.4-1.47.24-2.14.25-.26.52-.49.79-.72l.27-.23c.06-.05.12-.1.18-.16h-.06c-1-.24-1.96-.45-2.92-.68-.11-.02-.11-.02-.18.04-.6.52-1.2,1.03-1.82,1.52-.66.52-1.54.49-2.26-.06-.66-.51-.85-1.27-.5-2.06.13-.3.29-.58.44-.86l.1-.18c.08-.15.17-.3.26-.46-1.05.12-2.1.25-3.14.39.05,0,0,.04-.02.07-.25.41-.5.82-.74,1.24l-.32.54c-.56.95-1.43,1.3-2.38.94-.61-.23-1.28-.78-1.06-2.15l.22-1.28c-.94.47-1.89.94-2.83,1.43.03-.02,0,.03,0,.07-.12.55-.22,1.1-.33,1.66l-.11.58c-.12.62-.5,1.08-1.09,1.33-.55.23-1.1.23-1.55-.01-.48-.25-.82-.75-.95-1.41-.09-.45-.17-.91-.25-1.37-.74.77-1.47,1.54-2.2,2.32.12.47.19.97.27,1.46l.11.69c.15.99-.29,1.8-1.19,2.14-.88.34-1.61.06-2.17-.83-.23-.36-.43-.73-.64-1.1l-.1-.17c-.44.99-.86,1.93-1.27,2.88,0,.02.02.05.03.08.16.31.33.61.5.92.21.38.42.76.62,1.15.38.74.19,1.63-.46,2.21-.66.59-1.41.62-2.16.1-.26-.18-.51-.39-.75-.6l-.2-.17c-.12-.1-.23-.2-.35-.3-.08,1.07-.16,2.1-.23,3.13.01.02.03.04.05.06.3.28.61.56.92.83.24.21.48.43.72.64.72.66.88,1.54.41,2.37-.32.56-.96,1.15-2.2.73-.41-.14-.81-.3-1.22-.46l-.15-.06.25.92c5.94,0,11.88,0,17.81,0,.12-1.23.67-2.18,1.65-2.82,1.27-.84,2.64-.89,3.96-.14,1.11.63,1.74,1.62,1.88,2.97Zm-6.41-.4h5.33c-.19-.75-.61-1.31-1.29-1.69-.99-.56-1.97-.52-2.92.11-.58.38-.95.91-1.12,1.58Zm-17.68-4.67h0Zm2.99-6.4s0,0,0,0c0,0,0,0,0,0Z"/>
  <path fill="#56221D" d="m50.19,42.32c-.07.19-.16.32-.26.4-.14.11-.32.13-.57.08-8.39-1.7-16.78-3.43-25.23-4.81-3.09-.51-6.2-.93-9.29-1.42-1.24-.19-2.47-.44-3.7-.69-.21-.04-.39-.23-.59-.35.21-.08.42-.24.64-.24,3.85-.03,7.69-.07,11.54-.04,7.36.05,14.72.18,22.08.19,2.8,0,5.6-.21,8.41-.33.14,0,.28,0,.42,0,0,.1,0,.17-.02.23-.07.16-.26.16-.43.17-1.18.07-2.37.14-3.55.19-6.92.31-13.85.18-20.78.07-5.6-.1-11.19-.1-16.79-.14-.09,0-.19.01-.29.08,12.88,1.76,25.62,4.26,38.42,6.62Z"/>
  <path fill="#56221D" d="m54.38,31.86c.05.38-.12.45-.4.46-3.11.11-6.21.22-9.32.34-9.51.36-19.02.4-28.54.33-4.18-.03-8.36-.15-12.53-.22-.26,0-.42-.06-.39-.4,17.07.43,34.13.36,51.18-.51Z"/>
  <path fill="#56221D" d="m4.5,36.89c.86.11,1.72.2,2.57.33,3.27.48,6.55.92,9.82,1.45,3.48.57,6.94,1.22,10.4,1.87,6.9,1.3,13.79,2.63,20.68,3.95.14.03.28.06.42.09-.21.51-.33.59-.85.48-4.81-.99-9.61-1.99-14.42-2.99-5.73-1.19-11.46-2.33-17.25-3.17-3.64-.53-7.29-1.04-10.94-1.57-.18-.03-.33-.19-.5-.29.02-.05.05-.1.07-.15Z"/>
  <path fill="#56221D" d="m12.45,47.73c5.92.07,11.85.14,17.77.21,0-.05,0-.11,0-.16-.96-.15-1.93-.32-2.89-.44-3.18-.41-6.36-.83-9.55-1.18-2.54-.28-5.09-.47-7.64-.71-.23-.02-.45-.15-.64-.31.71,0,1.42-.07,2.12.01,5.13.57,10.25,1.15,15.37,1.76,1.27.15,2.54.4,3.8.62.2.03.4.09.58.18.11.05.18.19.27.29-.12.07-.22.2-.35.21-.36.05-.72.08-1.08.07-4.29-.04-8.59-.1-12.88-.13-1.39-.01-2.78.04-4.16.03-.26,0-.52-.13-.78-.2.01-.08.03-.16.04-.24Z"/>
  <path fill="#56221D" d="m45.9,47.3c-.23.04-.48.13-.7.1-2.16-.31-4.31-.65-6.47-.98-3.33-.51-6.65-1.02-9.98-1.52-3.54-.54-7.07-1.12-10.62-1.59-2.59-.34-5.2-.52-7.81-.75-.88-.08-1.76-.06-2.64-.12-.19-.01-.36-.15-.54-.24.02-.05.04-.09.05-.14.41,0,.82-.01,1.24,0,4.79.15,9.53.75,14.25,1.51,4.28.69,8.57,1.3,12.85,1.95,3.41.52,6.82,1.04,10.23,1.56.04,0,.07.03.11.04,0,.06.02.11.02.17Z"/>
  <path fill="#56221D" d="m52.49,38.19c-.02.38-.25.38-.5.37-2.02-.1-4.04-.22-6.06-.3-1.7-.07-3.41-.09-5.11-.13-.15,0-.3.02-.45.04,0,.05,0,.1-.01.15,3.68.67,7.35,1.33,11.03,2-.06.34-.06.35-.36.3-3.59-.57-7.18-1.13-10.71-2.06-.26-.07-.52-.16-.78-.27-.08-.03-.2-.16-.18-.2.04-.09.13-.19.22-.22.21-.06.43-.09.64-.09,2.14.03,4.28.05,6.41.11,1.82.05,3.64.16,5.46.25.13,0,.25.02.41.03Z"/>
  <path fill="#56221D" d="m41.36,50.45c-.27.08-.53.23-.8.22-5.09-.03-10.18-.1-15.27-.12-2.75-.01-5.49.04-8.24.03-.37,0-.74-.13-1.11-.2,0-.05.01-.09.02-.14h25.36c.01.07.02.14.03.21Z"/>
  <path fill="#56221D" d="m35.8,52.75c-.49.06-.97.18-1.46.18-2.95,0-5.89-.03-8.84-.05-.87,0-1.74.03-2.6-.01-.58-.03-1.15-.17-1.7-.3h14.59c0,.06,0,.12.01.19Z"/>
</svg>