<?xml version="1.0" encoding="UTF-8"?>
<svg id="Layer_1" data-name="Layer 1" xmlns="http://www.w3.org/2000/svg" viewBox="0 0 57.53 56.44">
  <path fill="#56221D" d="m12.42,50.35h-2.71v-2.71h2.71v2.71Zm-1.71-1h.71v-.71h-.71v.71Z"/>
  <path fill="#56221D" d="m17.48,50.35h-2.71v-2.71h2.71v2.71Zm-1.71-1h.71v-.71h-.71v.71Z"/>
  <path fill="#56221D" d="m22.55,50.35h-2.71v-2.71h2.71v2.71Zm-1.71-1h.71v-.71h-.71v.71Z"/>
  <path fill="#56221D" d="m27.7,50.35h-2.71v-2.71h2.71v2.71Zm-1.71-1h.71v-.71h-.71v.71Z"/>
  <path fill="#56221D" d="m32.77,50.35h-2.71v-2.71h2.71v2.71Zm-1.71-1h.71v-.71h-.71v.71Z"/>
  <path fill="#56221D" d="m37.83,50.35h-2.71v-2.71h2.71v2.71Zm-1.71-1h.71v-.71h-.71v.71Z"/>
  <path fill="#56221D" d="m42.74,50.35h-2.71v-2.71h2.71v2.71Zm-1.71-1h.71v-.71h-.71v.71Z"/>
  <path fill="#56221D" d="m47.8,50.35h-2.71v-2.71h2.71v2.71Zm-1.71-1h.71v-.71h-.71v.71Z"/>
  <g>
    <path fill="#56221D" d="m51,48.85c-.01-.31-.08-.93-.41-1.53-.92-1.68-3.05-1.82-3.29-1.83h-.01s-37.08,0-37.08,0c-.39-.02-1.73.01-2.75,1.11-.87.94-.94,2.05-.93,2.49,0,.23.02.93.47,1.66.51.83,1.37,1.39,2.56,1.64.24.05.45.07.63.09h36.98s.07,0,.14,0c.49,0,2.02-.11,2.99-1.38.67-.89.72-1.87.7-2.25Zm-1.5,1.64c-.8,1.05-2.21.99-2.3.99H10.23c-.11,0-.27-.02-.45-.06-.34-.07-1.38-.3-1.92-1.19-.3-.5-.32-1-.32-1.17,0-.31.04-1.11.66-1.78.67-.73,1.58-.8,1.91-.8.04,0,.06,0,.09,0h37.08c.16,0,1.8.13,2.45,1.31.23.42.28.86.29,1.08,0,.21,0,.96-.5,1.61Z"/>
    <path fill="#56221D" d="m28.85,29.53c-.93-.01-1.84.33-2.52.99-.67.65-1.05,1.51-1.07,2.44-.02.94.34,1.84.99,2.51.65.67,1.52,1.05,2.44,1.06.02,0,.04,0,.05,0,.92,0,1.79-.35,2.45-1,.67-.65,1.04-1.52,1.05-2.45.02-1.91-1.51-3.5-3.41-3.54Zm1.66,5.28c-.48.47-1.11.71-1.79.71-.66,0-1.27-.28-1.74-.75-.47-.48-.72-1.12-.71-1.8.01-.66.28-1.27.76-1.73.47-.46,1.09-.71,1.75-.71.02,0,.04,0,.05,0,1.35.03,2.44,1.17,2.43,2.53,0,.66-.27,1.28-.75,1.75Z"/>
    <path fill="#56221D" d="m34.93,35.02h0c.49.01.98.01,1.47,0h1.07v-4.01h-2.53l-.43-1.02,1.79-1.69-2.87-2.87-1.71,1.81-.09-.04c-.29-.13-.56-.25-.89-.35.01-.49.01-.98,0-1.46v-1.07h-4.01v2.53l-1.01.42-1.77-1.84-2.26,2.28s-.08.09-.14.16l-.42.49,1.81,1.76v.03c-.13.27-.25.55-.36.88-.49-.01-.98,0-1.46,0h-1.08v4.01h2.53l.43,1.02-1.78,1.7,2.87,2.88,1.7-1.82.08.04c.29.13.56.25.89.35h0c-.01.49,0,.98,0,1.46v1.08h4.01v-2.53l1.02-.42,1.7,1.78,2.88-2.88-1.83-1.67.04-.09c.13-.3.25-.57.35-.89Zm0,2.69l-1.42,1.42-1.47-1.54-2.27.95v2.2h-2.01v-.08c0-.47,0-.95,0-1.43.01-.52-.22-.84-.71-.99-.26-.07-.5-.19-.77-.31-.13-.06-.27-.12-.42-.18l-.32-.13-1.47,1.58-1.42-1.42,1.54-1.47-.95-2.27h-2.2v-2.01h.08c.47,0,.95,0,1.43,0,.51,0,.84-.22.98-.71.08-.26.19-.51.3-.76l.29-.67-1.62-1.58,1.44-1.45,1.54,1.6,2.26-.95v-2.2h2.01v.08c0,.48,0,.96,0,1.44-.01.52.22.84.71.98.26.08.5.19.77.3.13.06.27.12.42.18l.32.13,1.48-1.57,1.41,1.42-1.55,1.46.95,2.27h2.2v2.01h-.07c-.48,0-.96,0-1.44,0-.54,0-.84.22-.99.71-.08.26-.19.5-.31.78l-.32.76,1.58,1.45Z"/>
    <path fill="#56221D" d="m27.25,8.29c-.78.47-1.25,1.31-1.25,2.25,0,.94.47,1.78,1.26,2.25.14.08.21.14.24.25-.76.03-2.23.18-2.23,1.7,0,.37,0,1.47,0,2.73,0,1.62.01,3.49.01,4.28v.5h6.94v-.5c0-4.99.02-6.47.03-6.83.02-.54-.15-1-.49-1.33-.4-.38-1.02-.58-1.74-.58.04-.08.12-.15.27-.24.78-.49,1.24-1.34,1.22-2.28-.01-.93-.49-1.76-1.27-2.22-.14-.08-.2-.13-.22-.24h4.46V3.96h-11.46v4.08h4.46c-.03.1-.09.17-.24.26Zm2.49.84c.48.28.77.79.78,1.37,0,.59-.27,1.12-.75,1.42-.65.41-.87.93-.7,1.69l.13.33.48.09h.07c.61-.05,1.09.05,1.33.28.14.13.2.32.19.57-.02.51-.03,2.66-.03,6.37h-4.94c0-.93,0-2.44-.01-3.78,0-1.25,0-2.36,0-2.72,0-.38.11-.68,1.44-.71l.73-.04.05-.42c.05-.45.13-1.14-.71-1.65-.48-.29-.77-.81-.77-1.4,0-.58.28-1.1.76-1.39.54-.33.72-.73.74-1.12h.51c.02.38.17.78.72,1.11Zm-5.72-4.18h9.46v2.07h-9.46v-2.07Z"/>
    <path fill="#56221D" d="m33.78,19.58c0,.62,0,1.23,0,1.84-.01.61.34.88.6,1.03,1.52.85,3.03,1.72,4.54,2.6.12.07.24.21.29.33.43,1,.82,2.01,1.21,3.02.07.18.1.37.11.55,0,1.38,0,2.77,0,4.19v2.49s.84-.81.84-.81l.83-1.19c.95-1.52,1.91-3.05,2.85-4.58.19-.31.15-.74.02-1.01-1.13-2.53-2.28-5.06-3.45-7.58-.14-.31-.49-.6-.85-.7-.48-.14-.97-.24-1.47-.35l-5.53-1.22v1.39Zm1-.14l4.33.95c.47.1.94.2,1.4.33.08.02.19.11.21.15,1.16,2.51,2.31,5.04,3.44,7.56.01.03.02.1.04.08-.88,1.44-1.77,2.87-2.67,4.29,0-1.31,0-2.6,0-3.88,0-.3-.06-.61-.17-.9-.39-1.02-.79-2.04-1.23-3.05-.14-.32-.41-.62-.71-.8-1.51-.88-3.03-1.75-4.55-2.61-.07-.04-.09-.06-.09-.13.02-.62.01-1.23,0-1.87v-.14Z"/>
    <path fill="#56221D" d="m14.56,32.84l.95,1.52c.04.07.09.14.17.23l1.03,1.41v-3.29c0-1.26,0-2.52,0-3.79,0-.21.03-.41.09-.58.18-.56.37-1.12.56-1.68.23-.68.46-1.37.68-2.05.05-.17.11-.23.28-.3,1.5-.62,2.99-1.27,4.48-1.92.22-.1.63-.38.65-.79.02-.71.02-1.41.02-2.13v-1.3s-1.9.42-1.9.42c-1.76.39-3.49.77-5.23,1.18-.45.1-.69.58-.73.68-.55,1.21-1.1,2.42-1.66,3.63-.59,1.3-1.18,2.6-1.78,3.9-.19.41-.17.77.08,1.16.78,1.24,1.56,2.48,2.33,3.72Zm-1.5-4.45c.6-1.3,1.19-2.6,1.78-3.9.55-1.21,1.1-2.42,1.65-3.63.03-.06.08-.12.05-.12,0,0,0,0,0,0,1.73-.4,3.46-.78,5.22-1.17l.69-.15v.06c0,.67,0,1.32-.01,1.98-.02.01-.04.03-.05.03-1.48.65-2.97,1.29-4.46,1.91-.44.18-.71.48-.85.92-.22.68-.44,1.36-.67,2.04-.19.56-.38,1.12-.56,1.69-.09.27-.13.57-.14.88,0,1.26,0,2.53,0,3.79v.07l-.29-.47c-.78-1.24-1.55-2.48-2.33-3.72-.06-.09-.06-.1-.01-.2Z"/>
  </g>
</svg>