<?xml version="1.0" encoding="UTF-8"?>
<svg id="Layer_1" data-name="Layer 1" xmlns="http://www.w3.org/2000/svg" viewBox="0 0 57.53 56.44">
  <g id="Layer_5" data-name="Layer 5">
    <path fill="#56221D" d="m36.94,53.29h-20.93c-1.24,0-2.26-1.01-2.26-2.26s1.01-2.26,2.26-2.26h4.3v-3.11l-.09-.06H3.21c-1.42,0-2.58-1.16-2.58-2.58V7.17c0-1.43,1.16-2.58,2.58-2.58h46.53c1.42,0,2.58,1.16,2.58,2.58v10.78l-1-.32V7.17c0-.87-.71-1.58-1.58-1.58H3.21c-.87,0-1.58.71-1.58,1.58v35.85c0,.87.71,1.58,1.58,1.58h16.99c.05,0,.48-.01.8.29.14.13.31.38.31.77v3.12c0,.65-.29.98-.87.98h-4.43c-.69,0-1.26.56-1.26,1.26s.56,1.26,1.26,1.26h20.93c.69,0,1.26-.56,1.26-1.26s-.56-1.26-1.26-1.26h-4.47c-.5,0-.83-.34-.83-.83v-3.37c0-.35.15-.57.27-.69.27-.26.62-.26.68-.27h17.15c.87,0,1.58-.71,1.58-1.58v-3.33l1-.48v3.81c0,1.43-1.16,2.58-2.58,2.58h-17.16l.06,3.16h4.3c1.25,0,2.26,1.01,2.26,2.26s-1.01,2.26-2.26,2.26Zm-8.65-3.53h-3.63c-.38,0-.83-.16-.83-.94v-3.12c0-.62.52-.96,1.03-.97h3.32s.4-.01.68.25c.13.12.28.34.28.7v3.22c0,.5-.35.87-.84.87Zm-3.47-1h3.31s0-3.03,0-3.03h-3.26s-.06.01-.08.03l.03,3Zm3.31-3.11h0s0,0,0,0Zm5.66-8.18H6.28c-1.42,0-2.58-1.16-2.58-2.58V10.62c0-1.42,1.16-2.58,2.58-2.58h40.39c1.42,0,2.58,1.16,2.58,2.58v5.75l-1-.28v-5.47c0-.87-.71-1.58-1.58-1.58H6.28c-.87,0-1.58.71-1.58,1.58v24.27c0,.87.71,1.58,1.58,1.58h27.01l.5,1Z"/>
  </g>
  <g>
    <path fill="#56221D" d="m37.81,37.58c-.14,0-.27-.06-.37-.16l-.29-.32c-.99-1.04-1.75-2.27-2.25-3.63-.76-2.04-.94-4.12-.54-6.18.29-1.48.83-2.84,1.62-4.04,1.27-1.95,3.01-3.41,5.15-4.32,1.15-.49,2.35-.78,3.59-.85.86-.06,1.69-.02,2.47.1,1.17.19,2.21.5,3.18.97,2.2,1.06,3.92,2.68,5.1,4.81.85,1.53,1.32,3.23,1.41,5.07.06,1.33-.13,2.68-.59,4.02-.52,1.54-1.33,2.91-2.4,4.06-.19.2-.5.21-.71.02-.2-.19-.21-.5-.02-.71.97-1.04,1.71-2.29,2.19-3.7.41-1.22.59-2.45.54-3.65-.08-1.7-.5-3.22-1.29-4.63-1.1-1.98-2.62-3.42-4.66-4.4-.88-.42-1.83-.71-2.9-.88-.71-.11-1.47-.14-2.25-.09-1.12.07-2.22.33-3.26.78-1.96.84-3.55,2.16-4.71,3.95-.72,1.11-1.21,2.32-1.47,3.69-.37,1.88-.2,3.77.49,5.64.46,1.24,1.15,2.34,2.04,3.29l.3.33c.19.2.17.52-.03.71-.1.09-.22.13-.34.13Z"/>
    <path fill="#56221D" d="m39.71,35.45c-.12,0-.24-.04-.33-.13-.18-.17-.36-.36-.54-.6-1.6-2.12-2.17-4.46-1.69-6.95.5-2.6,1.95-4.57,4.3-5.88,1.61-.89,3.39-1.21,5.3-.93,1.78.26,3.35,1.02,4.67,2.27,1.25,1.19,2.07,2.67,2.45,4.42.31,1.44.24,2.91-.23,4.36-.39,1.23-1.02,2.29-1.85,3.15-.19.2-.51.2-.71,0-.2-.19-.2-.51,0-.71.73-.75,1.27-1.68,1.62-2.76.41-1.28.48-2.58.2-3.84-.34-1.55-1.06-2.86-2.16-3.9-1.16-1.1-2.55-1.78-4.12-2-1.69-.24-3.26.03-4.67.82-2.08,1.16-3.36,2.91-3.8,5.2-.43,2.24.06,4.25,1.5,6.16.14.19.27.34.41.46.21.18.22.5.04.71-.1.11-.24.17-.37.17Z"/>
    <path fill="#56221D" d="m41.74,33.48c-.14,0-.27-.06-.37-.17-.92-1.03-1.43-2.21-1.52-3.52-.08-1.25.21-2.42.88-3.46,1.31-2.04,3.77-3.03,6.12-2.46,2.47.6,4.23,2.71,4.36,5.24.09,1.58-.43,3-1.54,4.21-.19.2-.5.22-.71.03-.2-.19-.22-.5-.03-.71.92-1,1.35-2.17,1.28-3.47-.11-2.09-1.56-3.83-3.6-4.33-1.93-.47-3.96.35-5.04,2.03-.56.87-.8,1.81-.73,2.86.07,1.09.49,2.05,1.27,2.92.18.21.17.52-.04.71-.1.09-.21.13-.33.13Z"/>
  </g>
  <g>
    <path fill="#56221D" d="m48.99,40.7h-6.94l1.21-4.62c.33-1.28.67-2.55.99-3.83.17-.68.72-.62.9-.6.23.02.46.02.71.01h.77s2.36,9.04,2.36,9.04Zm-5.64-1h4.35l-1.84-7.04c-.23,0-.45,0-.67,0-.32,1.24-.64,2.46-.96,3.68l-.88,3.37Z"/>
    <path fill="#56221D" d="m45.52,32.19c-.76,0-1.47-.3-2.02-.84-.54-.55-.84-1.27-.84-2.03,0-1.57,1.29-2.84,2.86-2.84h0c1.57,0,2.85,1.28,2.85,2.85,0,1.57-1.28,2.85-2.84,2.86h0Zm0-4.71c-1.02,0-1.85.83-1.86,1.84,0,.49.19.96.55,1.32.35.35.82.55,1.31.55h0c1.02,0,1.85-.84,1.85-1.86s-.83-1.85-1.85-1.85h0Z"/>
  </g>
</svg>