<?xml version="1.0" encoding="UTF-8"?>
<svg id="Layer_1" data-name="Layer 1" xmlns="http://www.w3.org/2000/svg" viewBox="0 0 57.53 56.44">
  <path fill="#56221D" d="m51.79,47.03H5.74v-3.85h17.65v-1.99c0-1.31.01-2.62,0-3.93-.02-1.15-.04-2.43.86-3.49-.16-.07-.3-.14-.45-.22-.04-.02-.09-.04-.14-.05-.23-.08-.93-.31-.74-1.19.18-.8.44-1.58,1.52-1.61h.4c.44-.03.78-.04,1.27-.01.3-.22,1.03-1.21,1.43-1.76.34-.46.65-.87.85-1.1,1.01-1.13,1.33-1.21,1.46-1.24,2.07-.51,3.25-.55,5.32-.59h.51s0,3.2,0,3.2h-.5c-.38,0-.43,0-.56.02-.09,0-.21.02-.48.04h-.24c-.87.06-1.05.07-2.01.21-.31.05-.96.35-1.12.52-.48.52-1.27,1.61-1.8,2.36,2.88-.1,6.04-.23,6.04-.23l.52-.02v10.76h-5.69v.28h12.79v-.28h-5.61v-10.7h1.5s5.96.16,5.96.16c-.48-.76-1.2-1.86-1.67-2.37-.19-.21-.49-.38-.68-.41-1.09-.11-1.81-.16-2.7-.21l-1.09-.07c-.13,0-.23-.02-.33-.04-.08-.01-.17-.03-.29-.03l-.47-.03v-.47c0-.18,0-.58.01-1.01,0-.46.02-.94.02-1.17v-.53l.53.03c.85.05,1.64.05,2.43.06.58,0,1.16.01,1.77.03,1.63.05,3.57,1.6,4.36,3.01.18.32.31.6.42.84.38.8.42.88,1.26.78,1.43-.18,1.71.32,2.02,1.49.17.61-.05,1.03-.65,1.26-.22.09-.43.18-.66.29.59.67.88,1.49.87,2.5,0,1.56,0,3.11,0,4.67v2.21h2.15v3.88Zm-45.04-1h44.04v-1.88h-2.15v-3.21c0-1.56,0-3.12,0-4.68,0-.79-.2-1.38-.66-1.87-.09-.1-.18-.21-.27-.34l-.51-.66.98-.45c.3-.14.59-.27.88-.39.02,0,.04-.02.06-.02,0-.01,0-.03-.01-.05q-.23-.84-.94-.76c-1.49.19-1.84-.39-2.29-1.35-.11-.22-.23-.48-.39-.78-.64-1.15-2.29-2.46-3.52-2.5-.6-.02-1.18-.02-1.75-.03-.65,0-1.29-.01-1.96-.04,0,.2,0,.43-.01.66,0,.19,0,.39,0,.55.05,0,.1.01.16.02l1.08.07c.91.06,1.64.1,2.74.22.54.06,1.04.43,1.32.72.81.89,2.22,3.22,2.28,3.32l.47.78-8.28-.21v8.7h5.61v2.28h-14.79v-2.28h5.69v-8.72c-1.17.05-4.11.17-6.53.25l-1.02.03.82-1.14c.52-.73,1.59-2.26,2.24-2.96.37-.4,1.28-.77,1.71-.83,1.01-.15,1.22-.16,2.1-.21h.24c.25-.03.36-.04.44-.05.05,0,.1,0,.15-.01v-1.2c-1.74.03-2.79.1-4.58.55-.09.05-.47.4-.96.94-.19.21-.48.6-.79,1.03-1.28,1.73-1.7,2.21-2.19,2.17-.52-.03-.85-.02-1.28,0h-.4c-.27.02-.39.02-.57.84.03,0,.05.02.08.03.1.04.21.07.3.12.2.11.4.2.65.3l1.18.53-.66.51c-1.09.84-1.07,1.95-1.05,3.23.02,1.32.02,2.63.01,3.95v2.98H6.74v1.85Zm35.95-8.09c-.12,0-.22,0-.29,0-1-.09-1.17-.41-1.22-.65-.08-.39-.26-1.3.56-1.84.22-.14.48-.24.74-.27.54-.07,1.08-.13,1.62-.2.62-.07,1.23-.14,1.84-.22.14-.02.55-.07.87.19.31.27.32.69.32.83.03,1.47-.5,2.02-1.95,2.06h0c-.15,0-.44.02-.77.04-.73.04-1.33.07-1.72.07Zm-.57-1.07c.1.02.23.05.37.06.26.02,1.23-.03,1.87-.06.35-.02.65-.03.81-.04h0c.9-.02.99-.12.97-1.03,0-.02,0-.04,0-.06-.02,0-.03,0-.06,0-.62.08-1.24.15-1.86.23-.54.06-1.08.13-1.61.19-.11.01-.23.06-.32.12-.15.1-.21.22-.16.59Zm-11.51,1.06c-.52,0-1.47-.04-2.48-.09l-.7-.03c-.63-.02-1.2-.36-1.51-.9-.31-.53-.32-1.17-.03-1.71.19-.36.69-.49.96-.45,1.25.13,2.47.26,3.68.44.47.07.88.35,1.11.76.25.44.28.97.08,1.45-.15.37-.61.52-.88.53-.06,0-.14,0-.24,0Zm-3.86-2.19c-.09.22-.07.46.05.66.14.24.39.39.68.4l.71.03c.83.04,2.22.11,2.62.09.02,0,.04,0,.04,0,.05-.17.03-.34-.05-.48-.05-.08-.16-.23-.39-.27-1.19-.18-2.4-.3-3.64-.43,0,0,0,0-.01,0Zm.04-.07s0,0,0,0c0,0,0,0,0,0Z"/>
  <path fill="#56221D" d="m21.33,41H5.74v-.5c0-.18.02-.5.02-.51h0s0-1.84-.02-2.76c-.02-.81.22-1.51.74-2.14.7-.86,1.38-1.72,2.07-2.59.68-.86,1.37-1.73,2.06-2.58.09-.11.11-.16.11-.17h0s-.02-.04-.09-.14c-1.08-1.5-2.15-3.01-3.21-4.53l-.69-.99c-1.33-1.9-1.12-3.38.71-4.77l2.22-1.7c3.15-2.41,6.3-4.82,9.43-7.25.2-.15.39-.45.5-.76.45-1.31,1.62-2.17,2.97-2.17h0c1.41,0,2.6.9,2.9,2.19.08.33.18.43.6.56.42.13.79.38,1.01.68,1.22,1.65,2.42,3.32,3.62,4.99l.83,1.15c.06.08.11.16.16.26l.3.49-3.12,2.9-5.3-4.6c-.17-.15-.34-.31-.52-.44-.76-.55-1.19-1.23-1.32-2.09-.01-.08-.04-.11-.04-.12,0,0-.05,0-.11.07-2.34,2.39-4.67,4.78-7.03,7.19l-1.38,1.41c.09.12.18.23.27.35l1.61,2c2.07,2.58,4.13,5.15,6.21,7.72.41.5.49.97.27,1.56-.12.33-.19.76-.19,1.26-.02,1.82-.01,5.54-.01,5.54v.5Zm-14.57-1h13.57c0-1.08,0-3.64.01-5.05,0-.63.09-1.15.26-1.6.1-.26.08-.35-.11-.58-2.08-2.57-4.15-5.14-6.22-7.72l-1.61-2c-.13-.16-.26-.33-.39-.5l-.43-.55,1.99-2.04c2.36-2.41,4.69-4.8,7.03-7.19.32-.33.74-.45,1.13-.32.39.13.66.47.72.93.08.59.37,1.03.91,1.42.21.15.41.33.61.51l2.1,1.83,2.5,2.16,1.86-1.73-.82-1.14c-1.2-1.66-2.4-3.33-3.61-4.98-.09-.12-.3-.26-.51-.32-.51-.16-1.07-.4-1.28-1.29-.19-.83-.98-1.42-1.92-1.42h0c-.92,0-1.71.59-2.02,1.49-.17.51-.48.95-.83,1.23-3.13,2.43-6.28,4.84-9.43,7.25l-2.23,1.71c-1.38,1.06-1.51,1.95-.5,3.41l.69.99c1.06,1.51,2.12,3.02,3.2,4.51.39.54.37,1-.06,1.53-.69.85-1.38,1.71-2.06,2.57-.69.87-1.38,1.74-2.08,2.6-.36.45-.53.92-.51,1.49.02.88.02,2.57.02,2.79Zm2.88-16.13c-.47,0-.92-.18-1.27-.51-.35-.34-.56-.79-.57-1.27-.02-.99.8-1.85,1.79-1.88h0s.03,0,.04,0c.99,0,1.8.79,1.83,1.79.01.49-.17.95-.5,1.31-.34.35-.79.55-1.28.57-.01,0-.03,0-.04,0Zm-.02-2.66h0c-.44.01-.82.41-.81.85,0,.21.1.42.26.57.17.16.38.25.6.24.22,0,.42-.1.58-.25.15-.16.23-.37.23-.59-.01-.44-.39-.81-.83-.81,0,0-.01,0-.02,0Zm12.92-9.25c-.77,0-1.42-.65-1.43-1.42,0-.37.15-.73.42-1.01.27-.28.63-.44,1-.44h0c.76,0,1.43.66,1.43,1.42,0,.77-.65,1.43-1.42,1.44h-.01Zm0-1.86h0c-.1,0-.21.05-.29.14s-.13.2-.13.3c0,.22.21.42.43.42h0c.23,0,.43-.2.43-.43,0-.21-.22-.43-.43-.43Z"/>
  <path fill="#56221D" d="m33.35,23.8l-2.98-2.76,1.9-1.78,2.55,3.18-1.48,1.36Zm-1.51-2.77l1.51,1.4.11-.1-1.29-1.61-.33.31Z"/>
</svg>