<?xml version="1.0" encoding="UTF-8"?>
<svg id="Layer_1" data-name="Layer 1" xmlns="http://www.w3.org/2000/svg" viewBox="0 0 57.53 56.44">
  <g>
    <path fill="#56221D" d="m36.06,36.73h0l-12.82-.02c-1.12,0-1.55-.33-1.81-1.42l-.54-2.2c-.91-3.69-1.81-7.39-2.7-11.08-.04-.17-.08-.22-.08-.23,0,0-.03,0-.11,0-.02,0-.04,0-.06,0-.58.03-1.16.02-1.74.01h-.55c-.96-.02-1.56-.56-1.57-1.42,0-.4.13-.74.38-1,.28-.29.69-.44,1.18-.44,1.13,0,2.26,0,3.39,0,.95,0,1.43.39,1.67,1.33l.1.39c.11.46.23.91.32,1.37-.04.03.02.06.09.04,4.21,0,8.43,0,12.64,0h3.5c.45,0,.9,0,1.36,0,.72,0,1.1.31,1.29.57.19.25.38.7.19,1.38-.29,1.05-.58,2.1-.87,3.16-.34,1.23-.69,2.47-1.02,3.7-.25.92-.98,1.12-1.51,1.18-2.37.29-4.75.58-7.12.88l-5.71.71c.02.12.04.21.06.24.02-.01.31-.01.59-.01l11.11.02h.14c.22,0,.45,0,.67.03.7.1,1.2.7,1.19,1.41,0,.71-.5,1.28-1.21,1.39-.15.02-.29.02-.44.02Zm-18.08-15.96c.84,0,1.07.57,1.18,1,.89,3.7,1.79,7.39,2.7,11.08l.54,2.19c.15.63.19.66.84.66l12.8.02c.12,0,.22,0,.31-.01.22-.03.36-.19.36-.41,0-.22-.13-.38-.34-.41-.17-.02-.34-.02-.52-.02h-.15s-11.11-.02-11.11-.02c-1.3,0-1.51-.18-1.71-1.47l-.02-.11.13-.44.44-.14c.1-.02.19-.04.29-.05l5.8-.72c2.37-.29,4.75-.59,7.12-.88.48-.06.6-.19.67-.45.34-1.24.68-2.47,1.02-3.71.29-1.05.58-2.1.87-3.15.06-.23.05-.41-.03-.52-.08-.11-.26-.17-.5-.17-.45,0-.9,0-1.34,0h-3.5c-4.21,0-8.43-.01-12.64,0-.27-.01-.92,0-1.08-.85-.08-.44-.19-.88-.3-1.31l-.1-.39c-.12-.5-.2-.56-.7-.57-1.13,0-2.26,0-3.38,0-.21,0-.38.05-.47.14-.06.06-.1.16-.09.28,0,.14,0,.41.58.42h.56c.56.02,1.11.03,1.67,0,.04,0,.07,0,.11,0Z"/>
    <path fill="#56221D" d="m24.94,42.14h-.02c-.62,0-1.2-.25-1.64-.69-.43-.44-.67-1.02-.66-1.65.01-1.25,1.04-2.28,2.3-2.29h.01c.62,0,1.19.24,1.63.67.44.44.68,1.02.68,1.64,0,.62-.24,1.21-.68,1.64-.44.43-1.01.67-1.62.67Zm0-3.62h0c-.71,0-1.3.58-1.3,1.3,0,.35.13.69.38.94.25.25.58.39.93.39.37,0,.68-.13.93-.38s.39-.58.39-.93c0-.35-.14-.68-.39-.93-.25-.25-.58-.38-.93-.38Z"/>
    <path fill="#56221D" d="m34.27,42.14c-.61,0-1.18-.23-1.61-.65-.44-.43-.69-1.01-.7-1.63h0c-.01-1.3.99-2.33,2.28-2.35.6,0,1.2.23,1.65.67.45.44.69,1.02.7,1.64,0,1.25-1.01,2.29-2.26,2.32-.02,0-.04,0-.05,0Zm-1.31-2.29c0,.35.14.67.39.92.25.24.58.38.95.37.71-.02,1.29-.61,1.29-1.32,0-.35-.14-.68-.4-.93-.25-.25-.58-.36-.93-.38-.73,0-1.3.6-1.3,1.34h0Z"/>
  </g>
  <g>
    <path fill="#56221D" d="m9.26,40.06c-.77-1.48-1.38-3.05-1.8-4.65-2.65-10.04,2.11-20.81,11.34-25.61,8.22-4.28,18.38-3.02,25.3,3.14l-.67.75c-6.61-5.89-16.32-7.09-24.17-3-8.81,4.59-13.37,14.88-10.83,24.47.4,1.53.98,3.03,1.72,4.45l-.89.46Z"/>
    <path fill="#56221D" d="m9.99,40.94l-.58-.32s-2.83-1.55-5.46-3.04l.49-.87c1.9,1.08,3.92,2.19,4.88,2.71.27-1.1.86-3.42,1.56-5.39l.94.33c-.93,2.61-1.67,5.89-1.68,5.92l-.15.65Z"/>
  </g>
  <g>
    <path fill="#56221D" d="m28.4,51.9c-5.41,0-10.78-1.93-14.97-5.66l.67-.75c6.61,5.89,16.32,7.09,24.17,3,8.81-4.59,13.36-14.88,10.83-24.47-.41-1.53-.99-3.03-1.72-4.45l.89-.46c.77,1.48,1.38,3.05,1.8,4.65,2.69,10.2-1.97,20.73-11.34,25.61-3.25,1.69-6.8,2.52-10.33,2.52Z"/>
    <path fill="#56221D" d="m46.66,25.13l-.94-.33c.93-2.61,1.67-5.89,1.68-5.92l.15-.65.58.32s2.83,1.55,5.46,3.04l-.49.87c-1.9-1.08-3.92-2.19-4.88-2.71-.27,1.1-.86,3.42-1.56,5.39Z"/>
  </g>
</svg>