<?xml version="1.0" encoding="UTF-8"?>
<svg id="Layer_1" data-name="Layer 1" xmlns="http://www.w3.org/2000/svg" viewBox="0 0 57.53 56.44">
  <path fill="#56221D" d="m42.93,46.83c-2.74,0-4.96-2.23-4.96-4.96s2.23-4.97,4.96-4.97,4.96,2.23,4.96,4.97-2.23,4.96-4.96,4.96Zm0-8.94c-2.19,0-3.96,1.78-3.96,3.97s1.78,3.96,3.96,3.96,3.96-1.78,3.96-3.96-1.78-3.97-3.96-3.97Zm-23.37,8.94c-2.74,0-4.97-2.23-4.97-4.96s2.23-4.97,4.97-4.97,4.96,2.23,4.96,4.97c0,2.74-2.23,4.96-4.96,4.96Zm0-8.94c-2.19,0-3.97,1.78-3.97,3.97s1.78,3.96,3.97,3.96,3.96-1.78,3.96-3.96c0-2.19-1.78-3.97-3.96-3.97Zm35.02,3.62h-5.25l-.06-.43c-.4-2.76-2.28-5.7-6.34-5.7-3.44,0-6,2.96-6.4,5.7l-.06.43h-10.23l-.06-.43c-.21-1.42-.41-2.07-1.28-3.42l-.5-.77h9.6v-20.03c0-1.07.87-1.94,1.94-1.94h6.78c2.08,0,4.01,1.03,5.17,2.75l4.37,6.48c.7,1.04,1.07,2.24,1.07,3.49v9.26h1.25c.67,0,1.22.55,1.22,1.22v2.18c0,.67-.55,1.22-1.22,1.22Zm-4.39-1h4.39c.12,0,.22-.1.22-.22v-2.18c0-.12-.1-.22-.22-.22h-2.25v-10.26c0-1.05-.31-2.06-.9-2.93l-4.37-6.47c-.98-1.44-2.6-2.31-4.35-2.31h-6.78c-.52,0-.94.42-.94.94v21.03h-8.79c.51.91.73,1.61.89,2.62h8.52c.65-3.03,3.52-6.13,7.31-6.13,4.48,0,6.66,3.09,7.25,6.13Zm-37.01,1H4.98c-.67,0-1.22-.55-1.22-1.22v-2.18c0-.67.55-1.22,1.22-1.22h10.24l-.58.8c-.87,1.19-1.21,2.01-1.41,3.39l-.06.43Zm-8.18-3.62c-.12,0-.22.1-.22.22v2.18c0,.12.1.22.22.22h7.33c.18-1,.47-1.78.99-2.62H4.98Zm26-3.14H4.56c-.67,0-1.22-.55-1.22-1.22V12.13c0-1.46,1.19-2.65,2.65-2.65h23.54c1.46,0,2.65,1.19,2.65,2.65v21.4c0,.67-.55,1.22-1.22,1.22ZM6,10.48c-.91,0-1.65.74-1.65,1.65v21.4c0,.12.1.22.22.22h26.42c.12,0,.22-.1.22-.22V12.13c0-.91-.74-1.65-1.65-1.65H6Zm41.42,15.74h-8.94c-.67,0-1.22-.55-1.22-1.22v-4.96c0-.67.55-1.22,1.22-1.22h5.45c.39,0,.76.19.99.51l3.5,4.98c.26.38.29.86.08,1.26-.21.4-.62.65-1.08.65Zm-8.94-6.4c-.12,0-.22.1-.22.22v4.96c0,.12.1.22.22.22h8.94c.12,0,.17-.07.19-.12.02-.04.05-.13-.01-.22l-3.49-4.97c-.04-.05-.11-.09-.18-.09h-5.45Z"/>
  <path fill="#56221D" d="m20.17,21.42c-.26,0-.53-.06-.74-.18-.27-.16-.42-.41-.42-.68v-.53h-4.71c-.66,0-1.16-.37-1.16-.86v-2.19c0-.49.5-.87,1.16-.87h4.71v-.53c0-.27.15-.52.42-.68.41-.24,1.03-.25,1.45-.02l4.49,2.49c.29.16.45.41.45.7s-.16.54-.45.7l-4.49,2.49c-.2.11-.46.17-.71.17Zm-.16-1.02c.1.03.28.03.38-.03l4.17-2.31-4.17-2.31c-.1-.06-.28-.05-.38-.03v1.37h-5.71c-.07,0-.12,0-.16.02v1.88s.09.02.16.02h5.71v1.38Z"/>
  <path fill="#56221D" d="m14.68,28.97c-.25,0-.5-.06-.71-.17l-4.49-2.49c-.29-.16-.45-.41-.45-.7s.16-.54.45-.7l4.49-2.49c.42-.23,1.04-.22,1.45.02.27.16.42.4.42.68v.53h4.71c.66,0,1.16.37,1.16.86v2.19c0,.49-.5.87-1.16.87h-4.71v.53c0,.27-.15.52-.42.68-.21.12-.47.19-.74.19Zm-4.39-3.35l4.16,2.31c.11.06.28.05.38.02v-1.37h5.71c.07,0,.12,0,.16-.02v-1.88s-.09-.02-.16-.02h-5.71v-1.38c-.11-.03-.28-.03-.38.03l-4.16,2.31Z"/>
</svg>