<?xml version="1.0" encoding="UTF-8"?>
<svg id="Layer_1" data-name="Layer 1" xmlns="http://www.w3.org/2000/svg" viewBox="0 0 57.53 56.44">
  <path fill="#56221D" d="m37.63,44.97c-1.36,0-2.41-.7-3.01-2.01-.32-.69-.55-1.36-.7-2-.39-1.72-1.43-2.94-3.26-3.86-.21-.1-.7-.35-.58-1.04.11-.64-.16-1.15-.83-1.62-.5-.35-.98-.35-1.42-.02l-.4.3-.3-.4c-.51-.67-1.01-1.35-1.51-2.02-1.12-1.51-2.18-2.94-3.33-4.35-2.24-2.77-4.93-5.55-8.21-8.49-.41-.37-.77-.85-.29-1.67,3.03-5.21,7.51-8.43,13.31-9.58,9.25-1.82,18.66,3.5,21.89,12.39,3.1,8.55-.25,18.27-7.98,23.1-.82.51-1.62,1.02-2.62,1.19-.26.04-.51.07-.75.07Zm-6.56-8.78l.04.02c2.09,1.04,3.33,2.53,3.79,4.53.13.57.34,1.17.63,1.8.53,1.14,1.4,1.6,2.69,1.37.8-.14,1.49-.57,2.22-1.02,7.38-4.61,10.56-13.83,7.62-21.94-3.06-8.43-11.98-13.48-20.75-11.75-5.51,1.09-9.77,4.15-12.64,9.1-.09.16-.09.22-.09.22,0,0,.02.06.18.21,3.32,2.98,6.04,5.79,8.32,8.61,1.16,1.43,2.27,2.93,3.35,4.39.41.55.82,1.1,1.23,1.65.69-.32,1.45-.23,2.16.25.99.68,1.41,1.54,1.26,2.56Zm9.21-.02h-.03c-1.33,0-2.58-.54-3.52-1.5-.94-.96-1.45-2.21-1.43-3.53.03-2.73,2.27-4.94,4.99-4.94h0c1.31,0,2.6.55,3.54,1.5.95.96,1.46,2.21,1.45,3.51-.03,2.74-2.27,4.96-5,4.96Zm0-8.98c-2.17,0-3.96,1.77-3.99,3.96-.01,1.05.39,2.06,1.15,2.82.76.77,1.76,1.2,2.82,1.2h.02c2.19,0,3.98-1.78,4-3.97.01-1.03-.4-2.03-1.16-2.8-.76-.77-1.79-1.21-2.83-1.21h0Zm-2.89-2.73s-.04,0-.05,0c-2.75-.03-4.97-2.28-4.95-5.03,0-1.31.54-2.56,1.49-3.5.95-.95,2.19-1.44,3.5-1.45,2.75.02,4.98,2.27,4.98,5.01,0,1.34-.53,2.59-1.49,3.54-.94.92-2.17,1.43-3.47,1.43Zm-.05-8.98c-1.03,0-2.01.41-2.76,1.16-.76.76-1.18,1.75-1.19,2.8-.01,2.2,1.76,4,3.96,4.02h.04c1.04,0,2.02-.4,2.77-1.14.76-.75,1.19-1.76,1.19-2.83h0c0-2.2-1.78-4-3.98-4.01h-.03Zm-12.08,7.01s-.04,0-.05,0c-1.32-.01-2.57-.55-3.51-1.52-.94-.96-1.45-2.22-1.43-3.54.02-1.33.56-2.57,1.52-3.5.96-.93,2.23-1.46,3.56-1.41,1.33.02,2.57.55,3.49,1.5.93.96,1.43,2.22,1.41,3.57-.04,2.71-2.27,4.9-4.97,4.9Zm0-8.97c-1.04,0-2.03.4-2.79,1.13-.77.74-1.2,1.74-1.21,2.79-.01,1.05.39,2.05,1.15,2.83.76.77,1.75,1.21,2.81,1.22.01,0,.03,0,.04,0,2.16,0,3.94-1.75,3.97-3.92.02-1.08-.38-2.09-1.13-2.86-.74-.76-1.73-1.18-2.79-1.2h0s-.04,0-.06,0Z"/>
  <path fill="#56221D" d="m21.95,38.1l-.34-.29c-.22-.19-.44-.38-.66-.56-.49-.41-.97-.82-1.43-1.26-3.3-3.19-5.89-6.86-7.98-10.04-.94-1.43-1.84-2.9-2.72-4.33-.38-.62-.76-1.23-1.14-1.85-.07-.11-.13-.22-.18-.33l-1.32-2.44,2.01,1.68c6.93,5.8,11.87,11.26,15.54,17.19l.2.31-.32.37c-.06.07-.11.13-.16.18l-1.5,1.38Zm-12.04-16.62c.8,1.3,1.62,2.63,2.47,3.92,2.06,3.13,4.61,6.74,7.84,9.87.44.42.91.82,1.38,1.22.11.09.22.19.33.28l.75-.69c-3.16-5.02-7.26-9.71-12.77-14.59Z"/>
  <path fill="#56221D" d="m34.62,49.78c-2.52,0-5.61-.41-7.6-3.32-.4-.58-.62-1.26-.84-1.91l-.15-.44c-.15-.42.09-.91.31-1.14.52-.53,1.12-1.08,1.82-1.69.23-.2.75-.41,1.12-.19.82.48,1.57.93,2.26,1.47.64.5.87,1.23,1.08,1.87.04.13.09.27.13.4.34.96.68,1.9,1.15,2.75.16.3.44.56.76.86.17.16.34.32.5.49l.79.84h-1.15c-.06,0-.12,0-.17,0Zm-5.76-7.77s-.04.02-.06.03c-.68.59-1.25,1.12-1.76,1.63-.03.03-.07.12-.07.17l.14.39c.2.61.4,1.19.72,1.66,1.22,1.79,2.96,2.67,5.68,2.85-.2-.21-.38-.43-.52-.68-.5-.92-.86-1.89-1.21-2.89-.05-.14-.1-.29-.14-.43-.18-.58-.34-1.07-.74-1.39-.63-.49-1.35-.92-2.05-1.34Z"/>
  <path fill="#56221D" d="m24.02,42.82c-.22,0-.45-.07-.6-.16-.2-.12-1.07-.95-1.12-1.54-.02-.21.05-.41.2-.54.59-.54,1.23-1.14,1.87-1.74.53-.5,1.05-.99,1.53-1.43.13-.12.49-.36,1.04-.06.49.27,1.37,1.25,1.26,1.78l-.28.4-.64.59c-.93.87-1.83,1.71-2.75,2.53-.14.13-.33.18-.52.18Zm-.65-1.68c.14.23.46.58.59.67h0c.88-.79,1.75-1.6,2.64-2.44l.51-.48c-.16-.24-.45-.57-.64-.68-.45.42-.93.87-1.42,1.33-.57.54-1.15,1.09-1.69,1.58Z"/>
</svg>