<svg width="78" height="78" viewBox="0 0 78 78" fill="none" xmlns="http://www.w3.org/2000/svg">
<g clip-path="url(#clip0_191_2)">
<path d="M56.9399 75.1528H36.0099C34.7699 75.1528 33.7499 74.0917 33.7499 72.7784C33.7499 71.4651 34.7599 70.404 36.0099 70.404H40.3099V67.1365L40.2199 67.0735H23.2099C21.7899 67.0735 20.6299 65.8547 20.6299 64.3628V26.6976C20.6299 25.1952 21.7899 23.987 23.2099 23.987H69.7399C71.1599 23.987 72.3199 25.2057 72.3199 26.6976V38.0235L71.3199 37.6873V26.6976C71.3199 25.7836 70.6099 25.0376 69.7399 25.0376H23.2099C22.3399 25.0376 21.6299 25.7836 21.6299 26.6976V64.3628C21.6299 65.2769 22.3399 66.0228 23.2099 66.0228H40.1999C40.2499 66.0228 40.6799 66.0123 40.9999 66.3275C41.1399 66.4641 41.3099 66.7267 41.3099 67.1365V70.4145C41.3099 71.0974 41.0199 71.4441 40.4399 71.4441H36.0099C35.3199 71.4441 34.7499 72.0324 34.7499 72.7679C34.7499 73.5033 35.3099 74.0917 36.0099 74.0917H56.9399C57.6299 74.0917 58.1999 73.5033 58.1999 72.7679C58.1999 72.0324 57.6399 71.4441 56.9399 71.4441H52.4699C51.9699 71.4441 51.6399 71.0869 51.6399 70.5721V67.0314C51.6399 66.6637 51.7899 66.4326 51.9099 66.3065C52.1799 66.0333 52.5299 66.0333 52.5899 66.0228H69.7399C70.6099 66.0228 71.3199 65.2769 71.3199 64.3628V60.8642L72.3199 60.3599V64.3628C72.3199 65.8652 71.1599 67.0735 69.7399 67.0735H52.5799L52.6399 70.3935H56.9399C58.1899 70.3935 59.1999 71.4546 59.1999 72.7679C59.1999 74.0812 58.1899 75.1423 56.9399 75.1423V75.1528ZM48.2899 71.4441H44.6599C44.2799 71.4441 43.8299 71.276 43.8299 70.4565V67.1785C43.8299 66.5271 44.3499 66.1699 44.8599 66.1594H48.1799C48.1799 66.1594 48.5799 66.1489 48.8599 66.4221C48.9899 66.5481 49.1399 66.7793 49.1399 67.1575V70.5405C49.1399 71.0659 48.7899 71.4546 48.2999 71.4546L48.2899 71.4441ZM44.8199 70.3935H48.1299V67.21H44.8699C44.8699 67.21 44.8099 67.2205 44.7899 67.2416L44.8199 70.3935ZM53.7899 58.5318H26.2799C24.8599 58.5318 23.6999 57.3131 23.6999 55.8212V30.3223C23.6999 28.8304 24.8599 27.6117 26.2799 27.6117H66.6699C68.0899 27.6117 69.2499 28.8304 69.2499 30.3223V36.3635L68.2499 36.0693V30.3223C68.2499 29.4083 67.5399 28.6623 66.6699 28.6623H26.2799C25.4099 28.6623 24.6999 29.4083 24.6999 30.3223V55.8212C24.6999 56.7352 25.4099 57.4812 26.2799 57.4812H53.2899L53.7899 58.5318Z" fill="#56221D"/>
<path d="M57.8102 58.6473C57.6702 58.6473 57.5402 58.5843 57.4402 58.4792L57.1502 58.143C56.1602 57.0504 55.4002 55.7581 54.9002 54.3292C54.1402 52.186 53.9602 50.0006 54.3602 47.8363C54.6502 46.2814 55.1902 44.8525 55.9802 43.5918C57.2502 41.543 58.9902 40.0091 61.1302 39.053C62.2802 38.5382 63.4802 38.2335 64.7202 38.16C65.5802 38.097 66.4102 38.139 67.1902 38.2651C68.3602 38.4647 69.4002 38.7904 70.3702 39.2842C72.5702 40.3979 74.2902 42.0999 75.4702 44.3377C76.3202 45.9452 76.7902 47.7313 76.8802 49.6644C76.9402 51.0618 76.7502 52.4801 76.2902 53.888C75.7702 55.506 74.9602 56.9453 73.8902 58.1535C73.7002 58.3637 73.3902 58.3742 73.1802 58.1746C72.9802 57.9749 72.9702 57.6492 73.1602 57.4286C74.1302 56.336 74.8702 55.0227 75.3502 53.5413C75.7602 52.2595 75.9402 50.9672 75.8902 49.7065C75.8102 47.9204 75.3902 46.3234 74.6002 44.842C73.5002 42.7618 71.9802 41.2489 69.9402 40.2192C69.0602 39.778 68.1102 39.4733 67.0402 39.2947C66.3302 39.1791 65.5702 39.1476 64.7902 39.2001C63.6702 39.2737 62.5702 39.5468 61.5302 40.0196C59.5702 40.9022 57.9802 42.289 56.8202 44.1696C56.1002 45.3358 55.6102 46.6071 55.3502 48.0465C54.9802 50.0217 55.1502 52.0073 55.8402 53.972C56.3002 55.2748 56.9902 56.4305 57.8802 57.4286L58.1802 57.7753C58.3702 57.9854 58.3502 58.3216 58.1502 58.5213C58.0502 58.6158 57.9302 58.6579 57.8102 58.6579V58.6473Z" fill="#56221D"/>
<path d="M59.7102 56.4095C59.5902 56.4095 59.4702 56.3675 59.3802 56.2729C59.2002 56.0943 59.0202 55.8947 58.8402 55.6425C57.2402 53.4152 56.6702 50.9567 57.1502 48.3406C57.6502 45.609 59.1002 43.5392 61.4502 42.1629C63.0602 41.2279 64.8402 40.8916 66.7502 41.1858C68.5302 41.459 70.1002 42.2575 71.4202 43.5708C72.6702 44.821 73.4902 46.376 73.8702 48.2146C74.1802 49.7275 74.1102 51.2719 73.6402 52.7953C73.2502 54.0876 72.6202 55.2013 71.7902 56.1048C71.6002 56.3149 71.2802 56.3149 71.0802 56.1048C70.8802 55.9052 70.8802 55.569 71.0802 55.3589C71.8102 54.5709 72.3502 53.5938 72.7002 52.4591C73.1102 51.1143 73.1802 49.7485 72.9002 48.4247C72.5602 46.7962 71.8402 45.4199 70.7402 44.3272C69.5802 43.1715 68.1902 42.4571 66.6202 42.226C64.9302 41.9738 63.3602 42.2575 61.9502 43.0875C59.8702 44.3062 58.5902 46.1448 58.1502 48.5508C57.7202 50.9042 58.2102 53.016 59.6502 55.0227C59.7902 55.2223 59.9202 55.3799 60.0602 55.506C60.2702 55.6951 60.2802 56.0313 60.1002 56.2519C60.0002 56.3675 59.8602 56.4305 59.7302 56.4305L59.7102 56.4095Z" fill="#56221D"/>
<path d="M61.7399 54.3397C61.5999 54.3397 61.4699 54.2767 61.3699 54.1611C60.4499 53.079 59.9399 51.8392 59.8499 50.4629C59.7699 49.1496 60.0599 47.9204 60.7299 46.8277C62.0399 44.6844 64.4999 43.6443 66.8499 44.2432C69.3199 44.8735 71.0799 47.0904 71.2099 49.7485C71.2999 51.4085 70.7799 52.9004 69.6699 54.1716C69.4799 54.3818 69.1699 54.4028 68.9599 54.2032C68.7599 54.0035 68.7399 53.6778 68.9299 53.4572C69.8499 52.4066 70.2799 51.1773 70.2099 49.8115C70.0999 47.6157 68.6499 45.7876 66.6099 45.2623C64.6799 44.7685 62.6499 45.63 61.5699 47.3951C61.0099 48.3091 60.7699 49.2967 60.8399 50.3999C60.9099 51.5451 61.3299 52.5537 62.1099 53.4677C62.2899 53.6883 62.2799 54.014 62.0699 54.2137C61.9699 54.3082 61.8599 54.3502 61.7399 54.3502V54.3397Z" fill="#56221D"/>
<path d="M68.9898 61.9253H62.0498L63.2598 57.0714C63.5898 55.7266 63.9298 54.3923 64.2498 53.0474C64.4198 52.333 64.9698 52.3961 65.1498 52.4171C65.3798 52.4381 65.6098 52.4381 65.8598 52.4276H66.6298L68.9898 61.9253ZM63.3498 60.8747H67.6998L65.8598 53.4782C65.6298 53.4782 65.4098 53.4782 65.1898 53.4782C64.8698 54.781 64.5498 56.0628 64.2298 57.3445L63.3498 60.8852V60.8747Z" fill="#56221D"/>
<path d="M65.5202 52.9844C64.7602 52.9844 64.0502 52.6692 63.5002 52.1019C62.9602 51.524 62.6602 50.7676 62.6602 49.9691C62.6602 48.3196 63.9502 46.9853 65.5202 46.9853C67.0902 46.9853 68.3702 48.3301 68.3702 49.9796C68.3702 51.6291 67.0902 52.9739 65.5302 52.9844H65.5202ZM65.5202 48.0359C64.5002 48.0359 63.6702 48.9079 63.6602 49.9691C63.6602 50.4839 63.8502 50.9777 64.2102 51.3559C64.5602 51.7236 65.0302 51.9338 65.5202 51.9338C66.5402 51.9338 67.3702 51.0512 67.3702 49.9796C67.3702 48.9079 66.5402 48.0359 65.5202 48.0359Z" fill="#56221D"/>
<path d="M18.9197 65.845C18.9197 65.9882 18.8875 66.1393 18.759 66.2745C18.6144 66.4177 18.4135 66.4654 18.1484 66.4336L17.803 66.3859V63.4349L16.156 63.8644L16.397 63.061C16.4211 62.9735 16.4452 62.894 16.4693 62.8145L16.6622 62.3133C16.7827 62.0031 16.9112 61.6929 17.0156 61.3827C17.2004 60.8577 17.0156 60.7066 16.7987 60.5793C16.4533 60.3884 16.1641 60.4362 15.8829 60.7464C15.7142 60.9293 15.5455 61.1202 15.3767 61.3111C15.1518 61.5657 14.9269 61.8122 14.6939 62.0588C14.6055 62.1543 14.3645 62.377 14.0672 62.3611C13.2076 62.3054 12.34 62.2418 11.4402 62.1702L9.88964 62.0509L10.6448 61.1918C10.8296 60.977 10.9983 60.7861 11.167 60.5873L11.3036 60.4282C11.4562 60.2532 11.6089 60.0862 11.7374 59.8953C11.9704 59.5612 11.9142 59.3782 11.7214 59.1635C11.4964 58.9089 11.1831 58.8374 10.9099 58.9726C10.6047 59.1237 10.3074 59.2907 10.0101 59.4498C9.7611 59.5851 9.51205 59.7203 9.263 59.8555C9.11036 59.935 8.82917 60.0464 8.57209 59.935C7.77674 59.601 6.98139 59.251 6.15391 58.8851L4.74799 58.2647L6.25835 57.3976C6.53953 57.2386 6.82875 57.0795 7.1019 56.9124C7.58393 56.6102 7.54376 56.3875 7.44736 56.1488C7.30275 55.7909 7.02156 55.6398 6.59577 55.7034L6.04144 55.7909C5.63975 55.8545 5.23806 55.9182 4.83636 55.9738C4.64355 55.9977 4.3704 55.9738 4.19366 55.8068C3.51078 55.1705 2.82791 54.5341 2.15307 53.8898L1.79958 53.5558L1.58266 52.9592L2.02452 52.816L2.59493 52.7206C3.00465 52.649 3.41438 52.5853 3.8241 52.4978C4.11332 52.4422 4.31416 52.3149 4.41057 52.1479C4.50698 51.9649 4.45074 51.7501 4.38647 51.599C4.29006 51.3683 4.14545 51.249 3.91247 51.2093L3.44651 51.1218C2.99662 51.0343 2.54672 50.9547 2.09683 50.8593C1.88795 50.8115 1.62283 50.6843 1.50233 50.4536C1.0926 49.6661 0.690909 48.8787 0.297251 48.0912L0.0241016 47.5424L0 46.906L0.48203 46.9299L2.2334 47.2242C2.86004 47.3276 2.99662 47.1128 3.07696 46.8901C3.16533 46.6435 3.22156 46.2856 2.66723 45.9595L2.24144 45.7129C1.90402 45.514 1.55856 45.3152 1.22918 45.1163C1.0444 45.005 0.835518 44.7902 0.803383 44.5357C0.682875 43.6766 0.586469 42.8176 0.48203 41.9585L0.425793 41.4892C0.425793 41.4335 0.425793 41.3699 0.425793 41.2903L0.465962 40.5506L1.36575 41.0597C1.59873 41.1949 1.82368 41.3222 2.04863 41.4415L2.20127 41.521C2.40211 41.6324 2.60296 41.7437 2.81987 41.8392C3.12516 41.9744 3.33404 41.9267 3.52685 41.6801C3.74376 41.4017 3.75983 41.0994 3.57505 40.8608C3.18943 40.3756 2.78774 39.9063 2.38605 39.445C2.16913 39.1984 2.10486 38.9279 2.17717 38.6018C2.36194 37.8462 2.53066 37.0826 2.7074 36.2951L3.06892 34.7043L3.81607 35.5633C3.96068 35.7304 4.09725 35.8894 4.23383 36.0406L4.42664 36.2633C4.59535 36.4621 4.76406 36.653 4.95687 36.836C5.25412 37.1223 5.4389 37.0905 5.68795 36.9314C5.9852 36.7405 6.10571 36.4462 5.99323 36.144C5.88879 35.8497 5.77632 35.5554 5.67188 35.2611C5.56744 34.9747 5.45497 34.6883 5.35856 34.402C5.29429 34.2111 5.26216 33.9247 5.39873 33.7179C5.87273 32.9623 6.36279 32.2066 6.84482 31.4589L7.15814 30.9658L7.69641 30.584L7.93742 31.0135L8.43552 32.2941C8.51586 32.493 8.57209 32.6362 8.63636 32.7714C8.84524 33.2009 9.03805 33.2486 9.32727 33.185C9.68879 33.1055 9.89767 32.8509 9.90571 32.485C9.90571 31.9203 9.90571 31.3476 9.88964 30.7749C9.88161 30.3931 10.0101 30.1385 10.2994 29.9238C10.9019 29.4704 11.4964 29.017 12.123 28.5318L13.5049 27.4659V28.6352C13.5049 28.8579 13.5049 29.0568 13.5049 29.2636V29.4624C13.5129 29.7488 13.5209 30.0431 13.5611 30.3215C13.6093 30.7271 13.7619 30.8146 14.0351 30.8544C14.3082 30.8862 14.6617 30.8465 14.8144 30.4488C15.0233 29.892 15.2161 29.3352 15.4008 28.7704C15.5133 28.4204 15.7463 28.2136 16.1159 28.15C16.3649 28.1023 16.6059 28.0466 16.855 27.9909C17.1763 27.9193 17.4977 27.8398 17.8271 27.7841C17.8512 27.7841 17.8672 27.7761 17.8833 27.7682C17.8833 27.7523 17.8833 27.7205 17.8833 27.6727C17.8672 26.9966 17.8753 26.3285 17.8753 25.6444V24.5944L18.1243 24.491C18.2127 24.4513 18.4939 24.3399 18.7429 24.507C18.8554 24.5785 18.9839 24.7297 18.9839 25.016V29.4863C18.9839 41.5528 18.9839 53.6114 18.9839 65.67C18.9839 65.7337 19 65.8052 19 65.8768L18.9197 65.845ZM18.1002 42.4039C18.1002 38.0848 18.1002 33.7657 18.1002 29.4545V28.4761C18.0359 28.5 17.9636 28.5159 17.8833 28.5318C17.578 28.5795 17.2727 28.6511 16.9674 28.7227C16.7104 28.7784 16.4533 28.842 16.1962 28.8897L15.7142 28.8579L16.0998 28.9772C15.915 29.5499 15.7142 30.1226 15.5053 30.6874C15.2562 31.3476 14.6296 31.6976 13.8744 31.6101C13.4004 31.5544 12.814 31.2919 12.7015 30.3851C12.6613 30.0749 12.6533 29.7567 12.6452 29.4465V29.2477C12.6452 29.184 12.6452 29.1204 12.6372 29.0568L12.5569 29.1204C11.9302 29.6056 11.3277 30.0669 10.7252 30.5203C10.6448 30.584 10.6368 30.6078 10.6368 30.7112C10.6529 31.2919 10.6609 31.8726 10.6529 32.4532C10.6529 33.185 10.1708 33.7657 9.43975 33.9247C8.7408 34.0759 8.20254 33.7895 7.85708 33.0816C7.77674 32.9225 7.71247 32.7634 7.6482 32.5964L7.39112 31.9362C6.93319 32.6521 6.46723 33.3679 6.01734 34.0918C6.15391 34.3781 6.25835 34.6645 6.36279 34.9429C6.47526 35.2451 6.58774 35.5474 6.69218 35.8497C6.91712 36.5099 6.66808 37.178 6.05751 37.5678C5.45497 37.9496 4.87653 37.8859 4.33827 37.3769C4.12939 37.178 3.94461 36.9633 3.75983 36.7485L3.57505 36.5337C3.53488 36.486 3.49471 36.4383 3.44651 36.3906V36.4383C3.2537 37.2337 3.08499 37.9973 2.90021 38.7609C2.88414 38.8484 2.88414 38.8484 2.93235 38.9041C3.35011 39.3813 3.75983 39.8586 4.15349 40.3518C4.57125 40.8767 4.54715 41.5767 4.10528 42.1494C3.69556 42.6744 3.08499 42.8255 2.45032 42.5471C2.2093 42.4437 1.98435 42.3164 1.75941 42.1971L1.6148 42.1176C1.49429 42.054 1.37378 41.9824 1.24524 41.9108C1.34165 42.746 1.44609 43.5812 1.55856 44.4084C1.55856 44.3686 1.5907 44.4084 1.6148 44.4243C1.94419 44.6232 2.27357 44.822 2.61099 45.0129L3.04482 45.2675C3.80803 45.7129 4.08922 46.4049 3.8 47.1606C3.61522 47.6458 3.17336 48.1787 2.07273 48.0037L1.0444 47.8287C1.42199 48.5764 1.79958 49.3321 2.19323 50.0798C2.17717 50.0559 2.21734 50.0798 2.24947 50.0798C2.69133 50.1752 3.13319 50.2548 3.58309 50.3423L4.04905 50.4297C4.54715 50.5252 4.9167 50.8275 5.11755 51.2968C5.30233 51.7342 5.30233 52.1717 5.10951 52.5297C4.90867 52.9115 4.50698 53.1819 3.97674 53.2853C3.61522 53.3569 3.24567 53.4205 2.87611 53.4842C3.49471 54.0728 4.11332 54.6534 4.73996 55.2341C5.11755 55.1386 5.51924 55.083 5.9129 55.0193L6.46723 54.9318C7.26258 54.8125 7.91332 55.1625 8.18647 55.8784C8.45962 56.5784 8.23467 57.159 7.51966 57.6045C7.23044 57.7874 6.93319 57.9465 6.63594 58.1135L6.49937 58.1931C7.29471 58.543 8.04989 58.8771 8.81311 59.2032C8.82918 59.2032 8.85328 59.1873 8.87738 59.1794C9.12643 59.0521 9.36744 58.9169 9.61649 58.7817C9.92178 58.6146 10.2271 58.4476 10.5404 58.2885C11.1349 57.9863 11.8499 58.1374 12.3159 58.6544C12.7899 59.1794 12.814 59.776 12.3962 60.3725C12.2516 60.5793 12.0829 60.7782 11.9142 60.9691L11.7776 61.1282C11.6973 61.2236 11.6169 61.3111 11.5366 61.4066C12.3962 61.4702 13.2237 61.5338 14.0512 61.5895C14.0672 61.5816 14.0833 61.5657 14.0994 61.5497C14.3243 61.3111 14.5493 61.0645 14.7662 60.818C14.9349 60.6271 15.1116 60.4362 15.2803 60.2453C15.8106 59.6725 16.5175 59.5453 17.1844 59.9191C17.6342 60.1737 18.1082 60.6827 17.7708 61.6691C17.6583 61.9952 17.5298 62.3133 17.4013 62.6395L17.3531 62.7588L18.0922 62.5599C18.0922 57.8351 18.0922 53.1103 18.0922 48.3935C17.104 48.298 16.3408 47.8605 15.8266 47.081C15.1518 46.0708 15.1116 44.9811 15.7142 43.9312C16.2203 43.0482 17.0156 42.5471 18.1002 42.4358V42.4039ZM17.7789 47.5026V43.263C17.1763 43.4141 16.7264 43.7482 16.4211 44.2891C15.9712 45.0766 16.0034 45.8561 16.5095 46.6117C16.8148 47.0731 17.2406 47.3674 17.7789 47.5026Z" fill="#56221D"/>
<path d="M48.4113 42.8435L48.1016 43.1345C47.8991 43.3224 47.6965 43.5104 47.5032 43.6996C47.0641 44.12 46.6264 44.5307 46.1635 44.9181C42.8118 47.6928 39.1068 49.7172 35.9158 51.3221C34.4808 52.0439 33.0139 52.7218 31.5865 53.3856C30.9677 53.6719 30.3582 53.9595 29.7395 54.2458C29.6294 54.2991 29.5206 54.3427 29.413 54.3766L27 55.3335L28.7992 53.6089C35.0094 47.6638 40.6575 43.6002 46.5797 40.8275L46.8903 40.6747L47.1911 41.033C47.2481 41.1003 47.2971 41.1566 47.3369 41.2116L48.4205 42.8448L48.4113 42.8435ZM31.5939 52.3122C32.8916 51.7087 34.2194 51.0899 35.5142 50.4368C38.6554 48.8544 42.3001 46.8608 45.5878 44.1459C46.0297 43.7753 46.457 43.3729 46.8843 42.9706C46.981 42.876 47.0869 42.7827 47.1836 42.688L46.6418 41.8714C41.6217 44.27 36.7881 47.6219 31.6031 52.3135L31.5939 52.3122Z" fill="#56221D"/>
<path d="M60.7576 32.1153C60.4423 34.5544 59.678 37.4913 56.7482 39.0348C56.1638 39.3457 55.5098 39.4693 54.8835 39.5968L54.4594 39.6841C54.0537 39.7741 53.6323 39.4774 53.4479 39.2342C53.0247 38.6613 52.5931 38.0082 52.1187 37.2505C51.9633 37.0016 51.8349 36.4707 52.0838 36.1415C52.6286 35.4109 53.137 34.7442 53.7208 34.1473C54.2615 33.5936 54.9628 33.4669 55.5787 33.3478C55.7034 33.3262 55.8387 33.2962 55.9634 33.2746C56.8904 33.0717 57.7989 32.8662 58.6407 32.523C58.9371 32.4075 59.2117 32.1707 59.5281 31.9004C59.6968 31.7569 59.8654 31.6134 60.0421 31.4809L60.9148 30.8267L60.7709 31.9398C60.7634 31.9978 60.7559 32.0559 60.7496 32.1043L60.7576 32.1153ZM52.8788 36.669C52.8788 36.669 52.8923 36.7103 52.899 36.731C53.3574 37.4667 53.7744 38.0881 54.1804 38.6487C54.2043 38.6817 54.2822 38.7323 54.3282 38.7388L54.705 38.6546C55.292 38.5412 55.8514 38.4239 56.3244 38.1759C58.1261 37.2304 59.1545 35.6619 59.6606 33.0529C59.4421 33.2189 59.2169 33.3642 58.9691 33.4669C58.059 33.8299 57.1203 34.0508 56.1553 34.2581C56.0201 34.2881 55.8756 34.3168 55.7417 34.3371C55.1848 34.4351 54.7134 34.5255 54.3685 34.8706C53.8383 35.416 53.3521 36.0563 52.8776 36.6786L52.8788 36.669Z" fill="#56221D"/>
<path d="M53.0191 41.4599C52.9916 41.6728 52.8984 41.8862 52.7967 42.0196C52.6611 42.1974 51.7876 42.9304 51.2378 42.9012C51.0419 42.893 50.8664 42.7989 50.7654 42.6366C50.3417 41.9946 49.8691 41.2963 49.3964 40.598C49.0021 40.0193 48.6157 39.4515 48.2704 38.9291C48.1761 38.7875 48.0001 38.4075 48.3453 37.9146C48.6553 37.4759 49.6682 36.7529 50.1427 36.9291L50.4762 37.2527L50.9397 37.9497C51.6248 38.9642 52.286 39.9457 52.9263 40.9439C53.0286 41.0965 53.0509 41.287 53.0271 41.4709L53.0191 41.4599ZM51.3901 41.8682C51.6195 41.7629 51.982 41.4992 52.0812 41.3852C51.4635 40.4296 50.8261 39.4811 50.1636 38.5092L49.7853 37.9525C49.5441 38.0758 49.2038 38.3131 49.0787 38.4826C49.4094 38.9733 49.7639 39.4971 50.1263 40.0318C50.5525 40.6545 50.9866 41.2882 51.3705 41.8752L51.3901 41.8682Z" fill="#56221D"/>
<path d="M34.9765 22.743C34.6164 23.3924 33.7885 23.6297 33.1391 23.2697C32.4897 22.9096 32.2483 22.089 32.6124 21.4323C32.9765 20.7756 33.8004 20.5455 34.4498 20.9056C35.0992 21.2656 35.3405 22.0863 34.9765 22.743ZM33.3493 21.8409C33.2118 22.0889 33.3028 22.4065 33.5509 22.5441C33.799 22.6816 34.1166 22.5906 34.2541 22.3425C34.3916 22.0944 34.3006 21.7768 34.0525 21.6393C33.8044 21.5017 33.4869 21.5928 33.3493 21.8409Z" fill="#56221D"/>
<path d="M29.6659 12.9977C29.3059 13.6471 28.4852 13.8884 27.8285 13.5244C27.1718 13.1603 26.9378 12.3437 27.3018 11.687C27.6659 11.0303 28.4898 10.8002 29.1392 11.1603C29.7886 11.5203 30.03 12.341 29.6659 12.9977ZM28.0388 12.0956C27.9012 12.3436 27.9923 12.6612 28.2404 12.7988C28.4884 12.9363 28.806 12.8453 28.9436 12.5972C29.0811 12.3491 28.9901 12.0315 28.742 11.894C28.4939 11.7564 28.1763 11.8475 28.0388 12.0956Z" fill="#56221D"/>
<path d="M34.8036 15.8456C34.4436 16.495 33.6229 16.7363 32.9662 16.3723C32.3095 16.0082 32.0754 15.1916 32.4395 14.5349C32.8036 13.8782 33.6275 13.6481 34.2769 14.0082C34.9263 14.3682 35.1677 15.1889 34.8036 15.8456ZM33.1765 14.9435C33.0389 15.1915 33.13 15.5091 33.3781 15.6467C33.6261 15.7842 33.9437 15.6932 34.0813 15.4451C34.2188 15.197 34.1278 14.8794 33.8797 14.7419C33.6316 14.6043 33.314 14.6954 33.1765 14.9435Z" fill="#56221D"/>
<path d="M46.5077 22.3343C46.1477 22.9837 45.327 23.2251 44.6703 22.861C44.0136 22.497 43.7795 21.6803 44.1436 21.0236C44.5077 20.367 45.3316 20.1369 45.981 20.497C46.6304 20.857 46.8718 21.6776 46.5077 22.3343ZM44.8806 21.4322C44.743 21.6803 44.8341 21.9979 45.0822 22.1354C45.3302 22.273 45.6478 22.1819 45.7854 21.9338C45.9229 21.6858 45.8319 21.3682 45.5838 21.2307C45.3357 21.0931 45.0181 21.1841 44.8806 21.4322Z" fill="#56221D"/>
<path d="M40.4716 5.62261C40.1115 6.272 39.2909 6.51339 38.6342 6.1493C37.9775 5.78522 37.7434 4.96861 38.1075 4.31192C38.4716 3.65523 39.2955 3.42518 39.9449 3.78522C40.5943 4.14526 40.8357 4.96592 40.4716 5.62261ZM38.8444 4.7205C38.7069 4.96858 38.7979 5.28615 39.046 5.42369C39.2941 5.56124 39.6117 5.4702 39.7492 5.22212C39.8868 4.97404 39.7957 4.65646 39.5476 4.51892C39.2996 4.38138 38.982 4.47241 38.8444 4.7205Z" fill="#56221D"/>
<path d="M52.1747 12.1113C51.8147 12.7607 50.994 13.0021 50.3373 12.638C49.6806 12.2739 49.4465 11.4573 49.8106 10.8006C50.1747 10.1439 50.9986 9.91389 51.648 10.2739C52.2974 10.634 52.5388 11.4546 52.1747 12.1113ZM50.5476 11.2092C50.41 11.4573 50.5011 11.7749 50.7491 11.9124C50.9972 12.0499 51.3148 11.9589 51.4523 11.7108C51.5899 11.4627 51.4989 11.1452 51.2508 11.0076C51.0027 10.8701 50.6851 10.9611 50.5476 11.2092Z" fill="#56221D"/>
<path d="M56.7645 14.6559C56.4045 15.3053 55.5766 15.5426 54.9272 15.1826C54.2778 14.8225 54.0364 14.0019 54.4005 13.3452C54.7645 12.6885 55.5885 12.4584 56.2379 12.8185C56.8872 13.1785 57.1286 13.9992 56.7645 14.6559ZM55.1374 13.7538C54.9999 14.0018 55.0909 14.3194 55.339 14.457C55.5871 14.5945 55.9046 14.5035 56.0422 14.2554C56.1797 14.0073 56.0887 13.6897 55.8406 13.5522C55.5925 13.4146 55.275 13.5057 55.1374 13.7538Z" fill="#56221D"/>
<path d="M40.6884 12.4402C40.3283 13.0896 39.5004 13.3269 38.851 12.9669C38.2016 12.6068 37.9602 11.7862 38.3243 11.1295C38.6884 10.4728 39.5123 10.2427 40.1617 10.6028C40.8111 10.9628 41.0525 11.7835 40.6884 12.4402ZM39.0612 11.5381C38.9237 11.7861 39.0147 12.1037 39.2628 12.2413C39.5109 12.3788 39.8285 12.2878 39.966 12.0397C40.1036 11.7916 40.0125 11.474 39.7644 11.3365C39.5164 11.1989 39.1988 11.29 39.0612 11.5381Z" fill="#56221D"/>
<path d="M46.6356 15.7372C46.2756 16.3866 45.4549 16.6279 44.7983 16.2639C44.1416 15.8998 43.9075 15.0832 44.2716 14.4265C44.6356 13.7698 45.4596 13.5397 46.1089 13.8998C46.7583 14.2598 46.9997 15.0805 46.6356 15.7372ZM45.0085 14.8351C44.871 15.0831 44.962 15.4007 45.2101 15.5383C45.4582 15.6758 45.7757 15.5848 45.9133 15.3367C46.0508 15.0886 45.9598 14.771 45.7117 14.6335C45.4636 14.4959 45.1461 14.587 45.0085 14.8351Z" fill="#56221D"/>
<path d="M46.3515 2.22496C45.9914 2.87436 45.1635 3.1117 44.5141 2.75166C43.8647 2.39162 43.6233 1.57096 43.9874 0.914269C44.3515 0.257579 45.1754 0.0275384 45.8248 0.387575C46.4742 0.747611 46.7155 1.56827 46.3515 2.22496ZM44.7243 1.32285C44.5868 1.57093 44.6778 1.88851 44.9259 2.02605C45.174 2.16359 45.4916 2.07256 45.6291 1.82447C45.7666 1.57639 45.6756 1.25882 45.4275 1.12128C45.1794 0.983733 44.8619 1.07477 44.7243 1.32285Z" fill="#56221D"/>
<path d="M52.2987 5.5219C51.9387 6.17129 51.118 6.41268 50.4613 6.0486C49.8046 5.68452 49.5706 4.8679 49.9346 4.21121C50.2987 3.55451 51.1226 3.32447 51.772 3.68451C52.4214 4.04455 52.6628 4.86521 52.2987 5.5219ZM50.6716 4.61979C50.5341 4.86787 50.6251 5.18544 50.8732 5.32299C51.1213 5.46053 51.4388 5.36949 51.5764 5.12141C51.7139 4.87333 51.6229 4.55575 51.3748 4.41821C51.1267 4.28067 50.8091 4.3717 50.6716 4.61979Z" fill="#56221D"/>
<path d="M33.088 15.9849L33.2617 20.9208L34.0955 20.8915L33.9218 15.9555L33.088 15.9849Z" fill="#56221D"/>
<path d="M34.1828 14.0285L34.5996 14.7512L38.878 12.2836L38.4612 11.5609L34.1828 14.0285Z" fill="#56221D"/>
<path d="M39.6447 4.16335L40.0615 4.88605L44.3399 2.41839L43.9231 1.69569L39.6447 4.16335Z" fill="#56221D"/>
<path d="M45.8975 14.1668L46.3145 14.8894L50.5924 12.421L50.1754 11.6984L45.8975 14.1668Z" fill="#56221D"/>
<path d="M38.716 5.82746L38.8896 10.7634L39.7234 10.7341L39.5498 5.79813L38.716 5.82746Z" fill="#56221D"/>
<path d="M44.8937 15.9835L45.0674 20.9195L45.9012 20.8902L45.7275 15.9542L44.8937 15.9835Z" fill="#56221D"/>
<path d="M50.6466 5.61091L50.8203 10.5469L51.6541 10.5175L51.4804 5.58157L50.6466 5.61091Z" fill="#56221D"/>
<path d="M40.5256 11.8729L40.1211 12.6026L44.4407 14.9974L44.8452 14.2678L40.5256 11.8729Z" fill="#56221D"/>
<path d="M46.1897 1.65773L45.7852 2.38739L50.1047 4.78224L50.5093 4.05258L46.1897 1.65773Z" fill="#56221D"/>
<path d="M29.5041 12.4305L29.0996 13.1602L32.602 15.1019L33.0065 14.3723L29.5041 12.4305Z" fill="#56221D"/>
<path d="M52.012 11.5449L51.6074 12.2745L54.5698 13.9169L54.9744 13.1873L52.012 11.5449Z" fill="#56221D"/>
</g>
<defs>
<clipPath id="clip0_191_2">
<rect width="78" height="78" fill="white"/>
</clipPath>
</defs>
</svg>
