<?xml version="1.0" encoding="UTF-8"?>
<svg id="Layer_1" data-name="Layer 1" xmlns="http://www.w3.org/2000/svg" viewBox="0 0 57.53 56.44">
  <path fill="#56221D" d="m25.51,47.46c-.27,0-.55-.03-.83-.1-1.62-.37-2.7-1.76-2.64-3.38.03-.77.44-1.5.68-1.86,2.49-3.75,4.95-7.4,7.3-10.84.31-.45.31-.59-.01-.99-1.56-1.96-2.27-4.4-2.09-7.25.37-6.16,3.12-11.12,8.18-14.76,2.26-1.63,4.64-2.39,7.05-2.28,3.49.17,5.94,1.97,7.27,5.37.92,2.35,1.02,4.87.34,8.42v.05c-1.75,5.97-5.12,10.17-10.05,12.49-1.94.91-3.92,1.21-5.88.88-.08-.01-.12,0-.13,0-.04.02-.14.21-.17.27-2.03,4.02-4.06,8.03-6.1,12.04-.64,1.27-1.68,1.95-2.92,1.95ZM42.67,6.99c-2.04,0-4.05.71-5.99,2.1-4.8,3.45-7.41,8.17-7.77,14.01-.16,2.6.47,4.81,1.88,6.57.69.86.52,1.49.05,2.17-2.35,3.44-4.81,7.08-7.29,10.83-.31.47-.5.97-.52,1.35-.05,1.15.7,2.11,1.86,2.37,1.16.26,2.07-.2,2.64-1.33,2.04-4.01,4.07-8.03,6.1-12.04.17-.33.47-.95,1.35-.8,1.75.3,3.53.03,5.28-.8,4.71-2.22,7.82-6.09,9.5-11.85.64-3.34.55-5.69-.29-7.84-1.17-3-3.32-4.59-6.38-4.74-.14,0-.28-.01-.42-.01Zm-17.21,38.89c-.15,0-.3-.02-.45-.05h0c-1.02-.25-1.66-1.27-1.42-2.28.24-.98,1.31-1.65,2.29-1.44.49.11.93.44,1.21.9.28.46.36,1,.23,1.47-.23.84-1.02,1.41-1.86,1.41Zm.04-2.82c-.41,0-.84.32-.94.71-.11.47.2.96.68,1.08h0c.48.12.98-.17,1.11-.64.06-.21.01-.46-.12-.69-.14-.23-.35-.39-.57-.44-.05-.01-.1-.02-.16-.02Zm11.43-12.42c-.39,0-.77-.03-1.16-.09-2.96-.46-5.02-2.82-5.39-6.14-.48-4.38.96-8.32,4.4-12.06,1.39-1.51,3.03-2.59,4.89-3.21,2.07-.7,4.12-.56,5.76.4,1.64.96,2.78,2.68,3.19,4.84.3,1.59.23,3.19-.24,5.35v.02c-1.13,4.18-3.47,7.38-6.95,9.51-1.52.93-3.01,1.39-4.5,1.39Zm5.3-20.95c-.72,0-1.48.13-2.24.39-1.7.57-3.2,1.56-4.47,2.94-3.24,3.51-4.59,7.2-4.14,11.27.31,2.86,2.06,4.87,4.55,5.26,1.65.26,3.28-.12,4.99-1.16,3.25-1.99,5.44-4.98,6.5-8.9.43-2.02.5-3.5.23-4.94-.36-1.87-1.32-3.35-2.71-4.16-.8-.46-1.72-.7-2.69-.7Z"/>
  <g>
    <path fill="#56221D" d="m35.98,47.97c-.67,0-1.36-.27-1.9-.81l-2.93-2.83.48-.94,3.15,3.05c.63.62,1.5.71,2.06.21.57-.5.6-1.39.08-2.16-.18-.27-.38-.54-.57-.81l-.36-.51-3.05-3.87.46-.95,3.77,4.75c.2.28.39.55.58.83.79,1.18.69,2.64-.25,3.47-.43.38-.96.57-1.51.57Zm-12.08-10.86l-1.17-1.16c-1.86-1.85-3.72-3.7-5.57-5.55l-2.85-2.85,7.1-6.53.33.44c.44.59.89,1.17,1.33,1.74.96,1.25,1.95,2.55,2.87,3.85.84,1.19,1.68,2.39,2.52,3.58l-.59.8c-.84-1.19-1.9-2.62-2.75-3.81-.91-1.29-1.85-2.52-2.85-3.82-.33-.43-.67-.87-1-1.31l-5.52,5.08,2.11,2.11c1.85,1.85,3.7,3.7,5.56,5.55l1.01,1-.55.86Zm-1.03-4.75l-4.5-4.7,2.68-2.57,3.78,5.01-1.96,2.26Zm-3.09-4.67l3.05,3.19.71-.82-2.62-3.47-1.14,1.1Z"/>
    <path fill="#56221D" d="m13.85,26.83l-1.08-.65c-.6-.35-1.2-.71-1.8-1.08l-1.34-.81c-.77-.47-1.53-.93-2.3-1.39-.66-.39-1-1-.98-1.73v-.41c.03-.99.04-1.71.69-2.84l.25-.43.43.24c.22.12.54.25.88.37-.26-.37-.51-.71-.77-.98l-.28-.29.29-.45c1.3-1.98,2.08-3.17,4.39-3.79.52-.14.82-.11,1.15.43.28.46.72.91,1.2,1.36l-1.27-2.44.89.06c.27.02.53.03.78.04.62.03,1.21.05,1.79.18.57.12.98.75,1.13,1.11.74,1.7,1.45,3.42,2.16,5.14l.84,2.03-7.05,6.34Zm-6.16-8.01c-.32.68-.33,1.17-.34,1.96v.42c-.02.37.14.64.49.84.77.46,1.54.93,2.31,1.4l1.34.81c.6.36,1.2.72,1.79,1.07l.45.27,5.97-5.38-.57-1.38c-.71-1.71-1.42-3.42-2.15-5.12-.12-.28-.34-.51-.42-.53-.48-.1-.98-.13-1.55-.15l1.91,3.66-.84.53c-.39-.52-.96-1.03-1.56-1.56-.74-.66-1.51-1.35-1.99-2.12-.01,0-.03,0-.04.01-1.87.51-2.52,1.41-3.68,3.17.23.27.44.57.64.86.28.39.54.76.82,1.04l.31.32-.28.34c-.34.42-1.83-.14-2.6-.47Z"/>
  </g>
</svg>