<?xml version="1.0" encoding="UTF-8"?>
<svg id="Layer_1" data-name="Layer 1" xmlns="http://www.w3.org/2000/svg" viewBox="0 0 57.53 56.44">
  <g>
    <path fill="#56221D" d="m30.59,46.18c-5.64,0-10.96-2.55-14.66-7.14-.18-.23-.29-.55-.29-.85,0-2.36,0-4.72,0-7.08v-5.56c0-.26.04-.63.46-.93,1.71-1.23,2.54-2.91,2.54-5.12,0-1.07,0-2.14,0-3.21,0-.38.13-.66.44-.89,2.3-1.76,5.81-2.86,8.33-3.3,3.88-.67,7.6-.07,11.06,1.79,1.64.88,3.16,2.08,4.53,3.56.31.33.42.68.35,1.13-.25,1.79-.49,3.59-.73,5.39l-.23,1.72c-.01.09-.03.17-.04.26l-.31,1.73.69,1.12c.45.73.8,1.05,1.46,1.31.33.13.45.52.45.73,0,1.05.03,2.08.05,3.11.03,1.21.05,2.41.05,3.64,0,.24-.11.46-.19.59-1.52,3.96-5.7,6.94-10.92,7.77-1,.16-2.01.24-3,.24Zm-13.97-20.64v5.57c0,2.36,0,4.72.01,7.08,0,.07.04.18.07.22,4.12,5.11,10.37,7.56,16.72,6.54,4.9-.78,8.79-3.54,10.17-7.19l.06-.11s.05-.08.05-.1c0-1.21-.02-2.4-.05-3.6-.02-1-.04-1.99-.05-3.01-.37-.16-.68-.36-.95-.61-.42,3.1-1.9,5.67-4.5,7.83-2.83,2.35-6.13,3.25-9.8,2.66-5.53-.88-9.72-5.43-10.18-11.05-.5-6.05,3.61-11.6,9.56-12.91,2.68-.59,5.28-.31,7.72.84,2.81,1.32,4.87,3.41,6.13,6.22v-.1c.25-1.8.49-3.6.75-5.39.02-.15,0-.2-.1-.31-1.31-1.42-2.7-2.52-4.27-3.36-3.26-1.75-6.76-2.32-10.42-1.68-2.4.42-5.74,1.45-7.89,3.11l-.04.09c0,1.07,0,2.15,0,3.22,0,2.52-1,4.52-2.96,5.93l-.04.12Zm13.82-7.98c-.82,0-1.64.09-2.48.28-5.46,1.21-9.23,6.3-8.78,11.85.42,5.17,4.26,9.34,9.34,10.15,3.38.54,6.4-.28,9-2.44,2.72-2.26,4.11-5,4.25-8.38l.05-1.28-.49-1.66c-1.05-3.54-3.11-5.98-6.29-7.48-1.47-.69-3.01-1.04-4.59-1.04Zm13.17,13.27h0s0,0,0,0Z"/>
    <path fill="#56221D" d="m11.88,48.21c-.31,0-.62-.08-.9-.23-.64-.35-1.03-1.01-1.05-1.78-.02-.67-.01-1.34,0-2v-3.66c0-5.44,0-10.88.02-16.32,0-.22,0-.23-.19-.32-1.8-.89-2.77-2.43-2.8-4.44-.03-2.21-.02-4.41-.01-6.62v-2.26c0-.78.47-1.39,1.19-1.55.66-.16,1.34.17,1.64.8.11.23.17.52.17.85,0,1.2,0,2.41,0,3.61v1.18s.46,0,.46,0v-2.04c0-.91,0-1.82,0-2.73,0-.32.04-.58.13-.8.26-.64.97-1.04,1.65-.9.7.15,1.22.79,1.22,1.53,0,1.14,0,2.29,0,3.43v1.49s.46,0,.46,0v-1.02c0-1.26,0-2.51,0-3.77,0-.2.01-.47.1-.71.24-.66.92-1.07,1.6-.96.73.12,1.26.72,1.27,1.46.01.69.01,1.38,0,2.08v.41c0,.67,0,1.34,0,2.01,0,1.59.01,3.23-.05,4.85-.08,1.87-1.08,3.31-2.9,4.16-.04,0-.04.03-.04.1v21.93c.01.89-.3,1.52-.94,1.91-.32.2-.67.3-1.03.3Zm-3.44-38.23s-.07,0-.1.01c-.35.08-.41.4-.41.58v2.27c-.02,2.2-.02,4.4,0,6.6.02,1.63.78,2.83,2.24,3.56.53.26.75.63.75,1.22-.01,5.44-.01,10.88-.01,16.31v3.67c0,.66-.01,1.31,0,1.97.01.41.21.76.53.93.29.16.63.14.92-.04.33-.21.48-.52.48-1.06v-21.93c-.01-.34.06-.76.61-1.01,1.48-.69,2.27-1.8,2.33-3.29.06-1.59.06-3.23.05-4.8,0-.67,0-1.35,0-2.02v-.41c0-.68,0-1.37,0-2.05,0-.25-.18-.45-.43-.49-.21-.04-.43.1-.5.31-.04.1-.04.26-.04.37,0,1.25,0,2.51,0,3.77v2.02h-2.46v-2.49c0-1.14,0-2.29,0-3.43,0-.27-.18-.51-.42-.56-.18-.04-.43.08-.51.3-.04.1-.06.24-.06.43,0,.91,0,1.81,0,2.72v3.04s-2.46,0-2.46,0v-2.18c0-1.2,0-2.4,0-3.6,0-.18-.03-.33-.07-.43-.08-.17-.24-.27-.41-.27Z"/>
    <path fill="#56221D" d="m48.64,48.64c-.84,0-1.6-.54-1.84-1.34-.1-.34-.12-.68-.12-.95,0-4.36,0-8.72,0-13.09v-3.96c-.09,0-.18,0-.27,0-.71-.02-1.29-.27-1.68-.72-.39-.45-.54-1.06-.45-1.76l1.91-14.22c.1-.74.19-1.48.3-2.22.13-.92.72-1.58,1.58-1.77.87-.18,1.63.11,2.08.81.23.36.37.84.38,1.33.03,1,.03,2,.03,2.99v.97s.04,31.83.04,31.83c0,1.06-.68,1.91-1.65,2.06-.11.02-.21.03-.31.03Zm-1.46-20.34h.5v4.96c0,4.36,0,8.72,0,13.09,0,.18,0,.44.07.66.13.42.59.7,1.04.62.49-.08.82-.51.81-1.07l-.04-31.84v-.98c0-.99,0-1.98-.02-2.96,0-.3-.09-.61-.22-.82-.23-.35-.57-.47-1.03-.38-.45.09-.73.42-.8.93-.1.74-.2,1.48-.3,2.21l-1.92,14.23c-.05.41.02.75.22.98.2.23.52.36.94.37.15,0,.3,0,.47,0h.27Z"/>
  </g>
  <path fill="#56221D" d="m30.66,24.1c-5.44,0-9.39-2.44-9.45-2.47l.53-.85c.08.05,8.48,5.2,17.44,0l.5.86c-3.18,1.85-6.29,2.46-9.03,2.46Z"/>
  <path fill="#56221D" d="m21.8,36.96l-.5-.86c9.51-5.52,18.39-.05,18.48,0l-.53.85c-.08-.05-8.47-5.2-17.44,0Z"/>
  <rect x="18.68" y="28.34" width="23.51" height="1"/>
  <rect x="29.94" y="17.03" width="1" height="23.51"/>
  <path fill="#56221D" d="m30.44,40.95c-4.07,0-7.38-5.46-7.38-12.16s3.31-12.16,7.38-12.16,7.38,5.46,7.38,12.16-3.31,12.16-7.38,12.16Zm0-23.33c-3.52,0-6.38,5.01-6.38,11.16s2.86,11.16,6.38,11.16,6.38-5.01,6.38-11.16-2.86-11.16-6.38-11.16Z"/>
</svg>