<?xml version="1.0" encoding="UTF-8"?>
<svg id="Layer_1" data-name="Layer 1" xmlns="http://www.w3.org/2000/svg" viewBox="0 0 57.53 56.44">
  <path fill="#56221D" d="m19.51,52.2c-2.99,0-5.98,0-8.96,0-1.11,0-2.06-.22-2.92-.68-1.65-.88-2.38-2.57-1.89-4.41.2-.77.54-1.56.97-2.29,1.82-3.07,3.66-6.12,5.49-9.18,1.19-1.98,2.38-3.97,3.57-5.96.08-.13.13-.33.13-.49.01-1.48.01-2.96,0-4.46v-.97c-.14,0-.29,0-.43,0-.84-.03-1.47-.66-1.45-1.47.02-.8.65-1.41,1.47-1.41,3.14,0,6.28,0,9.42,0,.82,0,1.45.61,1.47,1.41.01.81-.61,1.44-1.45,1.47-.14,0-.28,0-.43,0v1.17c0,1.43,0,2.86,0,4.3,0,.14.05.31.11.42,2.98,4.99,5.98,9.98,8.97,14.96.58.97,1,1.81,1.14,2.81.31,2.15-.78,3.85-2.84,4.45-.72.21-1.41.31-2.05.32-3.44.01-6.89.02-10.33.02Zm-3.11-29.44h.5v1.97c0,1.51,0,2.99,0,4.47,0,.34-.1.71-.28,1-1.19,1.99-2.38,3.97-3.57,5.96-1.83,3.06-3.67,6.11-5.49,9.18-.38.64-.68,1.35-.86,2.03-.36,1.39.16,2.62,1.4,3.28.71.38,1.51.56,2.45.56,6.43,0,12.86.01,19.29,0,.55,0,1.14-.1,1.77-.28,1.59-.46,2.37-1.68,2.12-3.35-.12-.83-.49-1.57-1.01-2.44-3-4.99-5.99-9.97-8.97-14.96-.16-.27-.25-.6-.26-.93-.01-1.43-.01-2.87,0-4.3v-2.17s.81,0,.81,0c.2,0,.39,0,.58,0,.3-.01.5-.19.49-.45,0-.26-.19-.43-.47-.43-3.14,0-6.28,0-9.42,0-.28,0-.46.17-.47.43,0,.26.19.44.49.45.19,0,.38,0,.58,0h.31Z"/>
  <path fill="#56221D" d="m15.98,47.6c-1.21,0-2.2-.99-2.2-2.2s.99-2.2,2.2-2.2,2.2.99,2.2,2.2-.99,2.2-2.2,2.2Zm0-3.4c-.66,0-1.2.54-1.2,1.2s.54,1.2,1.2,1.2,1.2-.54,1.2-1.2-.54-1.2-1.2-1.2Z"/>
  <path fill="#56221D" d="m20.34,40.84c-.95,0-1.72-.77-1.72-1.72s.77-1.72,1.72-1.72,1.72.77,1.72,1.72-.77,1.72-1.72,1.72Zm0-2.44c-.4,0-.72.32-.72.72s.32.72.72.72.72-.32.72-.72-.32-.72-.72-.72Z"/>
  <path fill="#56221D" d="m23.32,48.78c-1.86,0-3.38-1.52-3.38-3.38s1.52-3.38,3.38-3.38,3.38,1.52,3.38,3.38-1.52,3.38-3.38,3.38Zm0-5.76c-1.31,0-2.38,1.07-2.38,2.38s1.07,2.38,2.38,2.38,2.38-1.07,2.38-2.38-1.07-2.38-2.38-2.38Z"/>
  <path fill="#56221D" d="m22.21,17.91c-.89,0-1.62-.73-1.62-1.62s.72-1.62,1.62-1.62,1.62.73,1.62,1.62-.72,1.62-1.62,1.62Zm0-2.23c-.34,0-.62.28-.62.62s.28.62.62.62.62-.28.62-.62-.28-.62-.62-.62Z"/>
  <path fill="#56221D" d="m29.34,6.68c-.89,0-1.62-.72-1.62-1.62s.72-1.62,1.62-1.62,1.62.73,1.62,1.62-.72,1.62-1.62,1.62Zm0-2.23c-.34,0-.62.28-.62.62s.28.62.62.62.62-.28.62-.62-.28-.62-.62-.62Z"/>
  <path fill="#56221D" d="m29.34,13.72c-.89,0-1.62-.72-1.62-1.62s.72-1.62,1.62-1.62,1.62.73,1.62,1.62-.72,1.62-1.62,1.62Zm0-2.23c-.34,0-.62.28-.62.62s.28.62.62.62.62-.28.62-.62-.28-.62-.62-.62Z"/>
  <path fill="#56221D" d="m29.34,29.76c-.89,0-1.62-.72-1.62-1.62s.72-1.62,1.62-1.62,1.62.73,1.62,1.62-.72,1.62-1.62,1.62Zm0-2.23c-.34,0-.62.28-.62.62s.28.62.62.62.62-.28.62-.62-.28-.62-.62-.62Z"/>
  <path fill="#56221D" d="m43.35,13.72c-.89,0-1.62-.72-1.62-1.62s.72-1.62,1.62-1.62,1.62.73,1.62,1.62-.72,1.62-1.62,1.62Zm0-2.23c-.34,0-.62.28-.62.62s.28.62.62.62.62-.28.62-.62-.28-.62-.62-.62Z"/>
  <path fill="#56221D" d="m43.35,29.76c-.89,0-1.62-.72-1.62-1.62s.72-1.62,1.62-1.62,1.62.73,1.62,1.62-.72,1.62-1.62,1.62Zm0-2.23c-.34,0-.62.28-.62.62s.28.62.62.62.62-.28.62-.62-.28-.62-.62-.62Z"/>
  <path fill="#56221D" d="m43.35,36.05c-.89,0-1.62-.73-1.62-1.62s.72-1.62,1.62-1.62,1.62.73,1.62,1.62-.72,1.62-1.62,1.62Zm0-2.23c-.34,0-.62.28-.62.62s.28.62.62.62.62-.28.62-.62-.28-.62-.62-.62Z"/>
  <path fill="#56221D" d="m36.33,17.91c-.89,0-1.62-.73-1.62-1.62s.72-1.62,1.62-1.62,1.62.73,1.62,1.62-.72,1.62-1.62,1.62Zm0-2.23c-.34,0-.62.28-.62.62s.28.62.62.62.62-.28.62-.62-.28-.62-.62-.62Z"/>
  <path fill="#56221D" d="m36.33,26.06c-.89,0-1.62-.72-1.62-1.62s.72-1.62,1.62-1.62,1.62.73,1.62,1.62-.72,1.62-1.62,1.62Zm0-2.23c-.34,0-.62.28-.62.62s.28.62.62.62.62-.28.62-.62-.28-.62-.62-.62Z"/>
  <path fill="#56221D" d="m50.33,17.91c-.89,0-1.62-.73-1.62-1.62s.72-1.62,1.62-1.62,1.62.73,1.62,1.62-.72,1.62-1.62,1.62Zm0-2.23c-.34,0-.62.28-.62.62s.28.62.62.62.62-.28.62-.62-.28-.62-.62-.62Z"/>
  <path fill="#56221D" d="m50.33,26.06c-.89,0-1.62-.72-1.62-1.62s.72-1.62,1.62-1.62,1.62.73,1.62,1.62-.72,1.62-1.62,1.62Zm0-2.23c-.34,0-.62.28-.62.62s.28.62.62.62.62-.28.62-.62-.28-.62-.62-.62Z"/>
  <rect x="22.96" y="13.46" width="5.92" height="1" transform="translate(-3.49 15.35) rotate(-31.02)"/>
  <rect x="32.66" y="11" width="1" height="5.92" transform="translate(4.11 35.19) rotate(-58.98)"/>
  <rect x="46.18" y="11" width="1" height="5.92" transform="translate(10.66 46.77) rotate(-58.98)"/>
  <rect x="39.33" y="23.37" width="1" height="5.92" transform="translate(-3.26 46.9) rotate(-58.99)"/>
  <rect x="36.88" y="13.46" width="5.92" height="1" transform="translate(-1.5 22.52) rotate(-31.02)"/>
  <rect x="29.82" y="25.83" width="5.92" height="1" transform="translate(-8.88 20.66) rotate(-31.02)"/>
  <rect x="44.04" y="25.83" width="5.92" height="1" transform="translate(-6.85 27.99) rotate(-31.02)"/>
  <rect x="35.83" y="17.41" width="1" height="5.92"/>
  <rect x="49.83" y="17.41" width="1" height="5.92"/>
  <rect x="28.84" y="6.18" width="1" height="4.8"/>
  <rect x="20.9" y="24.07" width="1" height="6.07"/>
  <rect x="42.85" y="29.26" width="1" height="4.06"/>
</svg>